<svg id="svg" version="1.1" xmlns="http://www.w3.org/2000/svg" xmlns:xlink="http://www.w3.org/1999/xlink" width="400" height="400" viewBox="0, 0, 400,400"><g id="svgg"><path id="path0" d="M139.600 106.083 C 133.171 107.925,129.015 110.515,125.071 115.139 C 123.200 117.333,120.400 122.233,120.400 123.314 C 120.400 125.514,119.317 125.395,116.945 122.934 C 97.030 102.272,62.891 121.891,70.891 149.400 C 73.581 158.648,86.488 172.899,101.800 183.525 C 103.120 184.441,104.944 185.728,105.854 186.386 C 108.582 188.356,119.172 194.935,122.600 196.789 C 124.360 197.740,126.250 198.824,126.800 199.197 C 131.802 202.586,133.899 202.601,136.695 199.269 C 137.743 198.021,138.699 196.910,138.819 196.800 C 138.940 196.690,139.470 195.970,139.997 195.200 C 140.839 193.971,144.232 189.744,144.814 189.200 C 146.506 187.617,158.450 170.297,161.087 165.600 C 161.767 164.390,162.728 162.680,163.223 161.800 C 164.982 158.676,166.251 156.179,166.883 154.600 C 167.235 153.720,168.074 151.815,168.747 150.367 C 173.948 139.177,174.336 128.412,169.850 119.800 C 167.070 114.462,160.530 108.703,155.465 107.132 C 150.552 105.607,143.001 105.108,139.600 106.083 M244.200 105.880 C 233.464 108.797,226.761 114.872,223.547 124.600 C 222.449 127.923,222.236 136.324,223.162 139.800 C 224.978 146.615,228.707 155.838,231.817 161.204 C 238.347 172.470,248.108 186.610,253.768 193.000 C 254.547 193.880,255.188 194.729,255.192 194.887 C 255.197 195.044,256.027 196.124,257.037 197.287 C 262.126 203.139,261.650 203.081,269.400 198.808 C 270.720 198.080,271.980 197.350,272.200 197.184 C 272.420 197.019,273.500 196.393,274.600 195.792 C 276.244 194.895,280.574 192.218,286.558 188.400 C 289.600 186.459,295.679 182.148,298.002 180.283 C 318.432 163.890,325.586 153.856,325.586 141.600 C 325.586 117.477,296.890 105.391,279.342 122.123 L 276.067 125.246 274.000 120.961 C 270.547 113.803,263.578 107.899,256.688 106.295 C 254.796 105.855,245.438 105.543,244.200 105.880 M213.400 305.066 C 211.860 305.375,209.159 305.974,207.397 306.397 C 203.186 307.409,195.502 307.806,191.400 307.224 C 180.957 305.744,180.540 305.714,177.200 306.207 C 169.819 307.297,163.160 312.800,157.428 322.547 C 156.076 324.845,153.600 330.287,153.600 330.959 C 153.600 331.093,155.720 331.955,161.600 334.212 C 162.590 334.592,163.940 335.047,164.600 335.224 C 169.168 336.446,172.397 337.307,173.600 337.626 C 174.984 337.992,175.993 338.161,184.600 339.468 C 190.808 340.410,209.193 340.410,215.400 339.467 C 224.085 338.149,225.757 337.831,229.400 336.801 C 230.280 336.552,231.720 336.187,232.600 335.990 C 235.759 335.283,246.400 331.405,246.400 330.961 C 246.400 330.589,244.187 325.283,243.581 324.200 C 240.425 318.566,238.306 315.781,234.049 311.670 C 227.693 305.532,221.289 303.484,213.400 305.066 " stroke="none" fill="#e14b4a" fill-rule="evenodd"></path><path id="path1" d="M97.800 241.468 C 96.010 241.765,94.087 243.424,93.100 245.524 C 92.098 247.654,91.852 257.291,92.730 260.002 C 92.979 260.771,93.463 262.606,93.805 264.081 C 95.182 270.009,99.746 280.586,103.607 286.800 C 104.769 288.670,105.918 290.562,106.160 291.005 C 108.281 294.889,119.082 307.526,123.563 311.367 C 124.353 312.044,125.090 312.689,125.200 312.800 C 127.668 315.287,136.518 321.849,140.600 324.219 C 141.700 324.857,143.140 325.694,143.800 326.077 C 149.597 329.445,154.000 331.039,154.000 329.770 C 154.000 328.792,157.762 321.471,159.540 318.988 C 167.007 308.561,174.604 304.677,184.549 306.202 C 194.854 307.782,200.331 307.869,206.400 306.546 C 207.830 306.235,210.710 305.607,212.800 305.150 C 225.664 302.341,237.868 310.666,245.015 327.125 C 246.676 330.951,246.712 330.957,251.939 328.342 C 260.858 323.880,266.809 319.785,275.979 311.801 C 280.907 307.511,289.517 297.643,293.081 292.200 C 296.065 287.644,296.993 286.123,299.125 282.300 C 307.946 266.475,310.627 246.503,304.478 242.417 C 302.620 241.183,296.604 240.995,293.600 242.079 C 288.904 243.772,282.467 246.701,274.000 250.998 C 271.690 252.170,268.720 253.677,267.400 254.345 C 266.080 255.014,263.560 256.221,261.800 257.028 C 260.040 257.834,257.070 259.215,255.200 260.096 C 249.439 262.811,239.499 266.554,234.100 268.042 C 233.385 268.239,232.170 268.580,231.400 268.800 C 228.278 269.692,226.907 270.036,225.000 270.408 C 223.900 270.623,222.190 270.986,221.200 271.216 C 215.011 272.653,201.992 273.407,193.259 272.833 C 184.847 272.281,182.043 271.906,175.400 270.449 C 170.862 269.453,165.070 267.806,160.441 266.195 C 150.682 262.798,146.168 260.795,126.600 251.181 C 114.326 245.150,110.174 243.200,109.606 243.200 C 109.377 243.200,108.877 243.044,108.495 242.854 C 106.134 241.676,100.749 240.978,97.800 241.468 " stroke="none" fill="#3c4444" fill-rule="evenodd"></path><path id="path2" d="M182.389 0.138 C 182.273 0.257,180.613 0.389,178.699 0.432 C 176.785 0.474,175.316 0.664,175.433 0.854 C 175.611 1.142,171.304 1.431,169.730 1.237 C 169.472 1.205,169.146 1.364,169.007 1.589 C 168.867 1.815,167.989 2.000,167.056 2.000 C 166.123 2.000,165.189 2.166,164.980 2.369 C 164.771 2.572,163.700 2.782,162.600 2.836 C 161.500 2.890,160.411 3.076,160.181 3.249 C 159.950 3.422,159.095 3.609,158.281 3.664 C 157.466 3.719,156.800 3.907,156.800 4.082 C 156.800 4.257,156.091 4.400,155.224 4.400 C 154.357 4.400,153.536 4.580,153.400 4.800 C 153.264 5.020,152.433 5.200,151.553 5.200 C 150.673 5.200,150.052 5.361,150.174 5.558 C 150.296 5.755,149.722 6.007,148.898 6.117 C 148.074 6.228,146.680 6.533,145.800 6.796 C 144.920 7.059,143.613 7.368,142.896 7.481 C 142.179 7.595,141.494 7.849,141.373 8.044 C 141.252 8.240,140.613 8.400,139.953 8.400 C 139.255 8.400,138.856 8.567,139.000 8.800 C 139.139 9.026,138.815 9.200,138.257 9.200 C 137.712 9.200,137.207 9.377,137.133 9.593 C 137.060 9.809,136.325 10.034,135.501 10.093 C 134.676 10.152,134.001 10.329,134.001 10.487 C 134.000 10.646,133.745 10.677,133.432 10.557 C 133.120 10.437,132.400 10.644,131.832 11.016 C 131.265 11.388,130.800 11.559,130.800 11.397 C 130.800 11.235,130.573 11.291,130.295 11.521 C 129.538 12.150,125.079 13.781,124.460 13.656 C 124.163 13.596,124.038 13.739,124.183 13.973 C 124.344 14.233,124.047 14.400,123.424 14.400 C 122.861 14.400,122.400 14.591,122.400 14.824 C 122.400 15.057,122.220 15.136,122.000 15.000 C 121.780 14.864,121.600 14.973,121.600 15.243 C 121.600 15.513,121.497 15.631,121.372 15.505 C 121.246 15.380,120.674 15.520,120.100 15.818 C 119.527 16.116,118.909 16.268,118.729 16.156 C 118.548 16.044,118.400 16.143,118.400 16.376 C 118.400 16.609,118.055 16.800,117.633 16.800 C 117.212 16.800,116.807 16.935,116.733 17.100 C 116.546 17.521,113.116 19.202,112.447 19.201 C 112.143 19.200,111.582 19.560,111.200 20.000 C 110.818 20.440,110.032 20.839,109.453 20.887 C 108.874 20.935,108.400 21.076,108.400 21.201 C 108.400 21.422,105.999 22.967,105.600 23.002 C 105.017 23.055,102.800 24.239,102.800 24.498 C 102.800 24.664,102.564 24.800,102.275 24.800 C 101.987 24.800,101.364 25.160,100.892 25.600 C 100.420 26.040,99.756 26.400,99.417 26.400 C 99.078 26.400,98.800 26.566,98.800 26.768 C 98.800 26.971,98.242 27.259,97.559 27.409 C 96.877 27.559,95.994 27.978,95.597 28.341 C 94.681 29.179,92.912 30.406,92.509 30.483 C 92.339 30.516,91.962 30.781,91.671 31.071 C 91.381 31.362,90.894 31.600,90.590 31.600 C 90.285 31.600,89.577 32.060,89.015 32.622 C 88.450 33.186,87.788 33.516,87.535 33.360 C 87.252 33.185,87.186 33.253,87.362 33.538 C 87.531 33.812,87.393 34.000,87.024 34.000 C 86.681 34.000,86.400 34.136,86.400 34.302 C 86.400 34.469,85.859 34.844,85.198 35.137 C 84.536 35.430,84.078 35.803,84.180 35.967 C 84.281 36.131,83.750 36.506,83.000 36.800 C 82.250 37.094,81.729 37.485,81.842 37.668 C 81.955 37.850,81.756 38.000,81.400 38.000 C 81.044 38.000,80.864 38.180,81.000 38.400 C 81.136 38.620,80.903 38.800,80.482 38.800 C 80.061 38.800,79.285 39.313,78.758 39.941 C 78.231 40.568,77.393 41.295,76.896 41.557 C 76.398 41.819,75.362 42.611,74.592 43.316 C 73.823 44.022,73.028 44.600,72.825 44.600 C 72.623 44.600,72.129 44.917,71.728 45.303 C 68.696 48.231,65.374 51.200,65.130 51.200 C 64.656 51.200,62.863 53.130,63.109 53.376 C 63.232 53.499,63.023 53.600,62.643 53.600 C 62.263 53.600,62.030 53.735,62.123 53.900 C 62.351 54.300,54.158 62.425,53.844 62.111 C 53.710 61.977,53.600 62.197,53.600 62.600 C 53.600 63.003,53.499 63.232,53.376 63.109 C 53.130 62.863,51.200 64.656,51.200 65.130 C 51.200 65.374,48.231 68.696,45.303 71.728 C 44.917 72.129,44.600 72.623,44.600 72.825 C 44.600 73.028,44.022 73.823,43.316 74.592 C 42.611 75.362,41.819 76.398,41.557 76.896 C 41.295 77.393,40.568 78.231,39.941 78.758 C 39.313 79.285,38.800 80.061,38.800 80.482 C 38.800 80.903,38.620 81.136,38.400 81.000 C 38.180 80.864,38.000 81.044,38.000 81.400 C 38.000 81.756,37.850 81.955,37.668 81.842 C 37.485 81.729,37.094 82.250,36.800 83.000 C 36.506 83.750,36.131 84.281,35.967 84.180 C 35.803 84.078,35.430 84.536,35.137 85.198 C 34.844 85.859,34.469 86.400,34.302 86.400 C 34.136 86.400,34.000 86.681,34.000 87.024 C 34.000 87.393,33.812 87.531,33.538 87.362 C 33.253 87.186,33.185 87.252,33.360 87.535 C 33.516 87.788,33.186 88.450,32.622 89.015 C 32.060 89.577,31.600 90.285,31.600 90.590 C 31.600 90.894,31.324 91.419,30.986 91.757 C 30.648 92.095,30.383 92.472,30.398 92.595 C 30.430 92.871,29.226 94.629,28.341 95.597 C 27.978 95.994,27.559 96.877,27.409 97.559 C 27.259 98.242,26.971 98.800,26.768 98.800 C 26.566 98.800,26.400 99.078,26.400 99.417 C 26.400 99.756,26.040 100.420,25.600 100.892 C 25.160 101.364,24.800 101.987,24.800 102.275 C 24.800 102.564,24.664 102.800,24.498 102.800 C 24.239 102.800,23.055 105.017,23.002 105.600 C 22.967 105.999,21.422 108.400,21.201 108.400 C 21.076 108.400,20.935 108.874,20.887 109.453 C 20.839 110.032,20.440 110.818,20.000 111.200 C 19.560 111.582,19.200 112.143,19.201 112.447 C 19.202 113.116,17.521 116.546,17.100 116.733 C 16.935 116.807,16.800 117.212,16.800 117.633 C 16.800 118.055,16.609 118.400,16.376 118.400 C 16.143 118.400,16.044 118.548,16.156 118.729 C 16.268 118.909,16.116 119.527,15.818 120.100 C 15.520 120.674,15.380 121.246,15.505 121.372 C 15.631 121.497,15.513 121.600,15.243 121.600 C 14.973 121.600,14.864 121.780,15.000 122.000 C 15.136 122.220,15.057 122.400,14.824 122.400 C 14.591 122.400,14.400 122.861,14.400 123.424 C 14.400 124.047,14.233 124.344,13.973 124.183 C 13.739 124.038,13.596 124.163,13.656 124.460 C 13.781 125.079,12.150 129.538,11.521 130.295 C 11.291 130.573,11.235 130.800,11.397 130.800 C 11.559 130.800,11.388 131.265,11.016 131.832 C 10.644 132.400,10.437 133.120,10.557 133.432 C 10.677 133.745,10.646 134.000,10.487 134.001 C 10.329 134.001,10.152 134.676,10.093 135.501 C 10.034 136.325,9.809 137.060,9.593 137.133 C 9.377 137.207,9.200 137.712,9.200 138.257 C 9.200 138.815,9.026 139.139,8.800 139.000 C 8.567 138.856,8.400 139.255,8.400 139.953 C 8.400 140.613,8.240 141.252,8.044 141.373 C 7.849 141.494,7.595 142.179,7.481 142.896 C 7.368 143.613,7.059 144.920,6.796 145.800 C 6.533 146.680,6.228 148.074,6.117 148.898 C 6.007 149.722,5.755 150.296,5.558 150.174 C 5.361 150.052,5.200 150.673,5.200 151.553 C 5.200 152.433,5.020 153.264,4.800 153.400 C 4.580 153.536,4.400 154.357,4.400 155.224 C 4.400 156.091,4.257 156.800,4.082 156.800 C 3.907 156.800,3.719 157.466,3.664 158.281 C 3.609 159.095,3.422 159.950,3.249 160.181 C 3.076 160.411,2.890 161.500,2.836 162.600 C 2.782 163.700,2.572 164.771,2.369 164.980 C 2.166 165.189,2.000 166.123,2.000 167.056 C 2.000 167.989,1.815 168.867,1.589 169.007 C 1.364 169.146,1.205 169.472,1.237 169.730 C 1.431 171.304,1.142 175.611,0.854 175.433 C 0.338 175.115,0.200 180.314,0.200 200.000 C 0.200 218.985,0.363 224.870,0.878 224.552 C 1.137 224.392,1.433 228.524,1.247 229.700 C 1.221 229.865,1.341 230.000,1.514 230.000 C 1.687 230.000,1.842 230.315,1.859 230.700 C 2.010 234.151,2.191 235.529,2.471 235.356 C 2.652 235.244,2.800 236.063,2.800 237.176 C 2.800 238.289,2.945 239.200,3.122 239.200 C 3.299 239.200,3.488 239.965,3.543 240.900 C 3.598 241.835,3.813 242.771,4.021 242.980 C 4.230 243.189,4.400 244.029,4.400 244.847 C 4.400 245.664,4.570 246.393,4.779 246.467 C 4.987 246.540,5.200 247.445,5.252 248.478 C 5.304 249.511,5.475 250.278,5.630 250.181 C 5.897 250.017,6.124 250.974,6.657 254.500 C 6.782 255.325,7.045 256.000,7.242 256.000 C 7.439 256.000,7.600 256.450,7.600 257.000 C 7.600 257.550,7.741 258.000,7.913 258.000 C 8.085 258.000,8.266 258.495,8.316 259.100 C 8.365 259.705,8.684 260.787,9.024 261.504 C 9.364 262.222,9.532 262.987,9.397 263.204 C 9.263 263.422,9.343 263.600,9.576 263.600 C 9.809 263.600,10.000 263.949,10.000 264.376 C 10.000 264.803,10.150 265.246,10.334 265.359 C 10.518 265.473,10.637 265.979,10.598 266.483 C 10.558 266.987,10.873 268.069,11.297 268.887 C 11.720 269.704,12.112 270.604,12.167 270.887 C 12.290 271.517,13.101 273.438,13.845 274.862 C 14.150 275.446,14.400 276.301,14.400 276.762 C 14.400 277.223,14.610 277.600,14.867 277.600 C 15.123 277.600,15.218 277.715,15.077 277.856 C 14.936 277.997,15.074 278.582,15.382 279.156 C 15.691 279.730,16.180 280.785,16.469 281.500 C 16.759 282.215,17.131 282.800,17.298 282.800 C 17.464 282.800,17.600 283.162,17.600 283.605 C 17.600 284.048,17.763 284.723,17.963 285.105 C 18.163 285.487,18.764 286.743,19.300 287.896 C 19.836 289.049,20.392 289.874,20.537 289.730 C 20.759 289.508,20.874 290.144,20.773 291.036 C 20.759 291.166,21.059 291.501,21.440 291.780 C 21.822 292.059,22.195 292.686,22.269 293.175 C 22.344 293.663,22.943 294.846,23.602 295.803 C 24.261 296.761,24.800 297.737,24.800 297.972 C 24.800 298.207,24.980 298.400,25.200 298.400 C 25.420 298.400,25.600 298.861,25.600 299.424 C 25.600 300.004,25.773 300.340,26.000 300.200 C 26.220 300.064,26.400 300.233,26.400 300.576 C 26.400 300.919,26.580 301.200,26.800 301.200 C 27.020 301.200,27.200 301.549,27.200 301.976 C 27.200 302.403,27.383 302.866,27.607 303.004 C 27.830 303.142,27.909 303.423,27.783 303.628 C 27.656 303.832,27.753 304.000,27.997 304.000 C 28.242 304.000,28.631 304.544,28.863 305.208 C 29.095 305.873,29.641 306.608,30.076 306.841 C 30.512 307.074,30.769 307.364,30.647 307.486 C 30.526 307.608,30.778 308.154,31.208 308.701 C 31.637 309.247,31.874 309.881,31.733 310.109 C 31.584 310.349,31.671 310.403,31.938 310.238 C 32.212 310.069,32.400 310.207,32.400 310.576 C 32.400 310.919,32.558 311.200,32.751 311.200 C 32.945 311.200,33.327 311.740,33.600 312.400 C 33.873 313.060,34.243 313.600,34.422 313.600 C 34.600 313.600,34.860 313.959,34.999 314.398 C 35.138 314.836,35.472 315.421,35.739 315.698 C 36.007 315.974,36.666 316.830,37.202 317.600 C 38.508 319.473,38.783 319.816,40.300 321.460 C 41.015 322.235,41.600 323.001,41.600 323.162 C 41.600 323.323,42.230 324.162,43.000 325.027 C 43.770 325.892,44.400 326.836,44.400 327.124 C 44.400 327.412,44.583 327.534,44.807 327.396 C 45.030 327.258,45.100 326.962,44.962 326.739 C 44.439 325.892,47.205 327.685,52.874 331.867 C 63.579 339.763,80.567 349.447,91.000 353.600 C 91.440 353.775,92.430 354.192,93.200 354.526 C 98.881 356.994,104.749 359.048,114.800 362.088 C 115.570 362.321,116.650 362.649,117.200 362.818 C 118.214 363.128,120.811 363.752,123.900 364.428 C 124.835 364.633,126.365 364.967,127.300 365.172 C 128.235 365.377,129.810 365.730,130.800 365.958 C 133.599 366.602,136.677 367.120,140.600 367.607 C 142.580 367.853,145.280 368.219,146.600 368.422 C 157.796 370.135,180.072 370.107,194.400 368.360 C 277.097 358.280,346.106 296.347,364.612 215.600 C 366.055 209.307,365.972 209.735,367.342 201.400 C 370.033 185.021,370.520 160.307,368.422 146.600 C 368.219 145.280,367.853 142.580,367.607 140.600 C 367.130 136.758,366.610 133.650,365.986 130.900 C 365.774 129.965,365.420 128.390,365.200 127.400 C 363.687 120.591,363.144 118.268,362.818 117.200 C 362.649 116.650,362.321 115.570,362.088 114.800 C 359.048 104.749,356.994 98.881,354.526 93.200 C 354.192 92.430,353.775 91.440,353.600 91.000 C 349.447 80.567,339.763 63.579,331.867 52.874 C 327.685 47.205,325.892 44.439,326.739 44.962 C 326.962 45.100,327.258 45.030,327.396 44.807 C 327.534 44.583,327.412 44.400,327.124 44.400 C 326.836 44.400,325.892 43.770,325.027 43.000 C 324.162 42.230,323.323 41.600,323.162 41.600 C 323.001 41.600,322.235 41.015,321.460 40.300 C 319.816 38.783,319.473 38.508,317.600 37.202 C 316.830 36.666,315.974 36.007,315.698 35.739 C 315.421 35.472,314.836 35.138,314.398 34.999 C 313.959 34.860,313.600 34.600,313.600 34.422 C 313.600 34.243,313.060 33.873,312.400 33.600 C 311.740 33.327,311.200 32.945,311.200 32.751 C 311.200 32.558,310.919 32.400,310.576 32.400 C 310.207 32.400,310.069 32.212,310.238 31.938 C 310.403 31.671,310.349 31.584,310.109 31.733 C 309.881 31.874,309.247 31.637,308.701 31.208 C 308.154 30.778,307.608 30.526,307.486 30.647 C 307.364 30.769,307.074 30.512,306.841 30.076 C 306.608 29.641,305.873 29.095,305.208 28.863 C 304.544 28.631,304.000 28.242,304.000 27.997 C 304.000 27.753,303.832 27.656,303.628 27.783 C 303.423 27.909,303.142 27.830,303.004 27.607 C 302.866 27.383,302.403 27.200,301.976 27.200 C 301.549 27.200,301.200 27.020,301.200 26.800 C 301.200 26.580,300.919 26.400,300.576 26.400 C 300.233 26.400,300.064 26.220,300.200 26.000 C 300.340 25.773,300.004 25.600,299.424 25.600 C 298.861 25.600,298.400 25.420,298.400 25.200 C 298.400 24.980,298.207 24.800,297.972 24.800 C 297.737 24.800,296.761 24.261,295.803 23.602 C 294.846 22.943,293.663 22.344,293.175 22.269 C 292.686 22.195,292.035 21.788,291.726 21.367 C 291.418 20.945,291.083 20.645,290.983 20.700 C 290.575 20.923,289.485 20.781,289.730 20.537 C 289.874 20.392,289.049 19.836,287.896 19.300 C 286.743 18.764,285.487 18.163,285.105 17.963 C 284.723 17.763,284.048 17.600,283.605 17.600 C 283.162 17.600,282.800 17.464,282.800 17.298 C 282.800 17.131,282.215 16.759,281.500 16.469 C 280.785 16.180,279.730 15.691,279.156 15.382 C 278.582 15.074,277.997 14.936,277.856 15.077 C 277.715 15.218,277.600 15.123,277.600 14.867 C 277.600 14.610,277.223 14.400,276.762 14.400 C 276.301 14.400,275.446 14.150,274.862 13.845 C 273.438 13.101,271.517 12.290,270.887 12.167 C 270.604 12.112,269.704 11.720,268.887 11.297 C 268.069 10.873,266.987 10.558,266.483 10.598 C 265.979 10.637,265.473 10.518,265.359 10.334 C 265.246 10.150,264.803 10.000,264.376 10.000 C 263.949 10.000,263.600 9.809,263.600 9.576 C 263.600 9.343,263.422 9.263,263.204 9.397 C 262.987 9.532,262.222 9.364,261.504 9.024 C 260.787 8.684,259.705 8.365,259.100 8.316 C 258.495 8.266,258.000 8.085,258.000 7.913 C 258.000 7.741,257.550 7.600,257.000 7.600 C 256.450 7.600,256.000 7.439,256.000 7.242 C 256.000 7.045,255.325 6.782,254.500 6.657 C 250.974 6.124,250.017 5.897,250.181 5.630 C 250.278 5.475,249.511 5.304,248.478 5.252 C 247.445 5.200,246.540 4.987,246.467 4.779 C 246.393 4.570,245.664 4.400,244.847 4.400 C 244.029 4.400,243.189 4.230,242.980 4.021 C 242.771 3.813,241.835 3.598,240.900 3.543 C 239.965 3.488,239.200 3.299,239.200 3.122 C 239.200 2.945,238.289 2.800,237.176 2.800 C 236.063 2.800,235.244 2.652,235.356 2.471 C 235.529 2.191,234.151 2.010,230.700 1.859 C 230.315 1.842,230.000 1.687,230.000 1.514 C 230.000 1.341,229.865 1.221,229.700 1.247 C 228.542 1.430,224.391 1.139,224.547 0.886 C 224.871 0.361,182.895 -0.384,182.389 0.138 M359.600 78.800 C 359.600 79.020,359.780 79.200,360.000 79.200 C 360.220 79.200,360.400 79.470,360.400 79.800 C 360.400 80.130,360.576 80.400,360.791 80.400 C 361.030 80.400,361.004 80.008,360.727 79.400 C 360.272 78.401,359.600 78.044,359.600 78.800 M370.412 94.100 C 370.406 94.485,370.591 94.800,370.824 94.800 C 371.057 94.800,371.136 94.980,371.000 95.200 C 370.864 95.420,370.943 95.600,371.176 95.600 C 371.409 95.600,371.600 95.859,371.600 96.176 C 371.600 96.493,371.780 96.864,372.000 97.000 C 372.664 97.410,372.451 96.690,371.410 95.000 C 370.799 94.008,370.420 93.666,370.412 94.100 M149.800 105.090 C 151.120 105.188,152.371 105.432,152.580 105.634 C 152.789 105.835,153.363 106.000,153.856 106.000 C 154.349 106.000,154.864 106.180,155.000 106.400 C 155.136 106.620,155.687 106.800,156.224 106.800 C 156.761 106.800,157.200 106.980,157.200 107.200 C 157.200 107.420,157.560 107.600,158.000 107.600 C 158.440 107.600,158.800 107.738,158.800 107.906 C 158.800 108.074,159.515 108.521,160.389 108.900 C 164.898 110.853,171.884 120.149,172.640 125.200 C 172.788 126.190,173.075 127.211,173.278 127.469 C 175.358 130.115,172.053 145.842,167.589 154.538 C 167.155 155.384,166.800 156.329,166.800 156.638 C 166.800 156.947,166.620 157.200,166.400 157.200 C 166.180 157.200,166.000 157.472,166.000 157.805 C 166.000 158.361,165.278 159.922,164.800 160.400 C 164.404 160.796,163.146 163.015,162.929 163.700 C 162.807 164.085,162.581 164.400,162.428 164.400 C 162.275 164.400,161.902 165.030,161.600 165.800 C 161.298 166.570,160.938 167.200,160.800 167.200 C 160.662 167.200,160.302 167.830,160.000 168.600 C 159.698 169.370,159.304 170.000,159.125 170.000 C 158.946 170.000,158.800 170.188,158.800 170.417 C 158.800 170.646,158.440 171.220,158.000 171.692 C 157.560 172.164,157.200 172.787,157.200 173.075 C 157.200 173.364,157.032 173.600,156.827 173.600 C 156.622 173.600,156.340 173.959,156.201 174.398 C 156.062 174.836,155.734 175.421,155.473 175.698 C 155.212 175.974,154.479 177.010,153.845 178.000 C 152.734 179.733,147.253 187.190,146.788 187.600 C 146.663 187.710,146.127 188.430,145.596 189.200 C 145.065 189.970,144.167 191.050,143.600 191.600 C 143.033 192.150,142.129 193.230,141.590 194.000 C 140.450 195.631,140.318 195.801,137.621 199.095 C 134.339 203.105,132.545 203.539,129.138 201.146 C 128.554 200.736,127.879 200.400,127.638 200.400 C 127.397 200.400,127.200 200.220,127.200 200.000 C 127.200 199.780,126.840 199.600,126.400 199.600 C 125.960 199.600,125.600 199.441,125.600 199.247 C 125.600 199.052,125.285 198.793,124.900 198.671 C 124.204 198.451,121.982 197.187,121.600 196.795 C 121.490 196.682,120.500 196.142,119.400 195.595 C 118.300 195.048,117.340 194.465,117.267 194.300 C 117.193 194.135,116.878 194.000,116.567 194.000 C 116.255 194.000,116.000 193.820,116.000 193.600 C 116.000 193.380,115.730 193.200,115.400 193.200 C 115.070 193.200,114.800 193.020,114.800 192.800 C 114.800 192.580,114.530 192.400,114.200 192.400 C 113.870 192.400,113.600 192.220,113.600 192.000 C 113.600 191.780,113.442 191.600,113.248 191.600 C 112.766 191.600,109.208 189.411,105.600 186.894 C 99.697 182.776,98.592 181.991,98.000 181.493 C 97.670 181.216,96.593 180.361,95.606 179.594 C 94.619 178.828,93.359 177.743,92.806 177.185 C 92.253 176.626,91.170 175.735,90.400 175.204 C 88.324 173.773,79.396 164.932,78.116 163.040 C 77.506 162.138,76.690 161.109,76.303 160.753 C 75.917 160.397,75.600 159.936,75.600 159.729 C 75.600 159.521,75.285 158.993,74.900 158.555 C 74.515 158.117,73.958 157.339,73.662 156.825 C 71.984 153.908,71.600 153.119,71.600 152.588 C 71.600 152.265,71.420 152.000,71.200 152.000 C 70.980 152.000,70.800 151.561,70.800 151.024 C 70.800 150.487,70.620 149.936,70.400 149.800 C 70.180 149.664,70.000 149.059,70.000 148.456 C 70.000 147.853,69.809 147.169,69.576 146.936 C 68.769 146.129,69.550 133.925,70.444 133.373 C 70.640 133.252,70.800 132.713,70.800 132.176 C 70.800 131.639,70.980 131.200,71.200 131.200 C 71.420 131.200,71.600 130.947,71.600 130.638 C 71.600 129.844,73.264 126.726,74.100 125.953 C 74.485 125.597,74.800 125.126,74.800 124.907 C 74.800 124.351,78.704 120.376,80.400 119.205 C 81.170 118.673,81.890 118.136,82.000 118.011 C 82.518 117.423,87.662 115.209,89.860 114.630 C 99.660 112.045,109.463 114.629,116.558 121.664 C 118.865 123.953,120.000 124.258,120.000 122.592 C 120.000 121.964,122.066 117.994,123.291 116.268 C 125.320 113.409,131.101 108.400,132.372 108.400 C 132.607 108.400,132.800 108.220,132.800 108.000 C 132.800 107.780,133.072 107.600,133.405 107.600 C 133.738 107.600,134.323 107.441,134.705 107.247 C 137.173 105.992,140.031 105.203,142.228 105.172 C 143.313 105.156,144.560 104.985,145.000 104.790 C 145.440 104.596,146.160 104.544,146.600 104.675 C 147.040 104.806,148.480 104.992,149.800 105.090 M253.000 105.083 C 254.540 105.192,255.971 105.443,256.180 105.641 C 256.389 105.838,256.976 106.000,257.485 106.000 C 257.994 106.000,258.723 106.161,259.105 106.358 C 259.487 106.555,261.015 107.302,262.500 108.018 C 263.985 108.734,265.200 109.473,265.200 109.660 C 265.200 109.847,265.445 110.000,265.744 110.000 C 267.186 110.000,272.600 116.410,274.359 120.200 C 274.870 121.300,275.448 122.513,275.644 122.895 C 275.840 123.277,276.000 123.901,276.000 124.281 C 276.000 124.796,276.231 124.674,276.900 123.804 C 279.680 120.190,283.655 117.382,289.254 115.078 C 294.072 113.095,303.957 113.391,308.495 115.654 C 308.877 115.844,309.462 116.000,309.795 116.000 C 310.128 116.000,310.400 116.180,310.400 116.400 C 310.400 116.620,310.680 116.800,311.022 116.800 C 315.016 116.800,325.200 129.583,325.200 134.595 C 325.200 135.122,325.380 135.664,325.600 135.800 C 325.836 135.946,326.000 138.330,326.000 141.600 C 326.000 144.870,325.836 147.254,325.600 147.400 C 325.380 147.536,325.200 148.166,325.200 148.800 C 325.200 149.434,325.020 150.064,324.800 150.200 C 324.580 150.336,324.400 150.761,324.400 151.145 C 324.400 152.399,320.069 160.190,318.811 161.200 C 318.674 161.310,318.122 162.030,317.584 162.800 C 316.102 164.923,307.146 173.664,303.383 176.660 C 302.512 177.354,301.410 178.254,300.934 178.660 C 299.233 180.112,298.581 180.625,297.200 181.595 C 296.430 182.136,295.451 182.898,295.025 183.289 C 294.598 183.680,294.013 184.000,293.725 184.000 C 293.436 184.000,293.200 184.141,293.200 184.314 C 293.200 184.486,292.667 184.943,292.015 185.328 C 291.363 185.713,290.598 186.247,290.315 186.514 C 289.427 187.352,284.029 190.800,283.605 190.800 C 283.382 190.800,283.200 190.980,283.200 191.200 C 283.200 191.420,282.964 191.600,282.675 191.600 C 282.387 191.600,281.764 191.960,281.292 192.400 C 280.820 192.840,280.238 193.200,280.000 193.200 C 279.762 193.200,279.180 193.560,278.708 194.000 C 278.236 194.440,277.613 194.800,277.325 194.800 C 277.036 194.800,276.800 194.980,276.800 195.200 C 276.800 195.420,276.440 195.600,276.000 195.600 C 275.560 195.600,275.200 195.759,275.200 195.953 C 275.200 196.148,274.885 196.407,274.500 196.529 C 273.813 196.746,271.594 198.005,271.200 198.401 C 271.090 198.511,270.460 198.865,269.800 199.188 C 269.140 199.511,267.880 200.244,267.000 200.816 C 262.621 203.662,261.053 203.324,257.659 198.800 C 257.081 198.030,256.328 197.130,255.985 196.800 C 255.643 196.470,254.929 195.570,254.400 194.800 C 253.871 194.030,253.156 193.130,252.812 192.800 C 251.757 191.790,249.044 188.348,246.979 185.400 C 245.900 183.860,244.795 182.368,244.523 182.085 C 244.251 181.802,243.713 181.037,243.328 180.385 C 242.943 179.733,242.486 179.200,242.314 179.200 C 242.141 179.200,242.000 178.975,241.999 178.700 C 241.999 178.425,241.459 177.570,240.800 176.800 C 240.141 176.030,239.601 175.175,239.601 174.900 C 239.600 174.625,239.450 174.400,239.268 174.400 C 239.085 174.400,238.680 173.905,238.368 173.300 C 238.055 172.695,237.514 171.882,237.164 171.493 C 236.814 171.105,236.281 170.295,235.978 169.693 C 235.676 169.092,235.127 168.150,234.759 167.600 C 233.547 165.792,231.625 162.262,229.751 158.400 C 228.737 156.310,227.748 154.287,227.553 153.905 C 227.359 153.523,227.200 152.938,227.200 152.605 C 227.200 152.272,227.020 152.000,226.800 152.000 C 226.580 152.000,226.400 151.735,226.400 151.412 C 226.400 151.089,226.040 150.183,225.600 149.400 C 225.160 148.617,224.800 147.632,224.800 147.211 C 224.800 146.791,224.620 146.336,224.400 146.200 C 224.180 146.064,224.000 145.524,224.000 145.000 C 224.000 144.476,223.820 143.936,223.600 143.800 C 223.380 143.664,223.200 142.944,223.200 142.200 C 223.200 141.456,223.044 140.751,222.853 140.633 C 221.554 139.830,221.546 125.775,222.844 124.973 C 223.040 124.852,223.200 124.349,223.200 123.856 C 223.200 122.821,224.057 120.808,224.500 120.803 C 224.665 120.801,224.800 120.440,224.800 120.000 C 224.800 119.560,224.980 119.200,225.200 119.200 C 225.420 119.200,225.602 118.975,225.604 118.700 C 225.617 117.150,233.214 109.200,234.681 109.200 C 234.967 109.200,235.200 109.054,235.200 108.875 C 235.200 108.696,235.830 108.302,236.600 108.000 C 237.370 107.698,238.000 107.304,238.000 107.125 C 238.000 106.946,238.439 106.800,238.976 106.800 C 239.513 106.800,240.064 106.620,240.200 106.400 C 240.336 106.180,240.977 106.000,241.624 106.000 C 242.271 106.000,242.800 105.820,242.800 105.600 C 242.800 105.380,243.835 105.197,245.100 105.194 C 246.365 105.191,247.670 105.008,248.000 104.789 C 248.330 104.569,248.960 104.501,249.400 104.637 C 249.840 104.773,251.460 104.974,253.000 105.083 M394.000 150.400 C 394.000 150.840,394.169 151.200,394.375 151.200 C 394.581 151.200,394.723 150.840,394.690 150.400 C 394.657 149.960,394.488 149.600,394.315 149.600 C 394.142 149.600,394.000 149.960,394.000 150.400 M396.509 160.791 C 396.543 161.236,396.712 161.600,396.885 161.600 C 397.327 161.600,397.279 160.496,396.824 160.215 C 396.618 160.087,396.476 160.347,396.509 160.791 M398.012 169.780 C 398.003 170.641,398.120 170.840,398.441 170.519 C 398.758 170.202,398.761 169.868,398.454 169.339 C 398.077 168.691,398.023 168.746,398.012 169.780 M104.600 240.800 C 104.736 241.020,105.366 241.200,106.000 241.200 C 106.634 241.200,107.264 241.380,107.400 241.600 C 107.536 241.820,108.087 242.000,108.624 242.000 C 109.161 242.000,109.600 242.180,109.600 242.400 C 109.600 242.620,110.039 242.800,110.576 242.800 C 111.113 242.800,111.664 242.980,111.800 243.200 C 111.936 243.420,112.397 243.600,112.824 243.600 C 113.251 243.600,113.600 243.780,113.600 244.000 C 113.600 244.220,113.812 244.400,114.070 244.400 C 114.714 244.400,119.394 246.605,129.568 251.700 C 134.290 254.065,138.389 256.000,138.677 256.000 C 138.964 256.000,139.200 256.180,139.200 256.400 C 139.200 256.620,139.560 256.800,140.000 256.800 C 140.440 256.800,140.800 256.980,140.800 257.200 C 140.800 257.420,141.160 257.600,141.600 257.600 C 142.040 257.600,142.400 257.780,142.400 258.000 C 142.400 258.220,142.653 258.400,142.962 258.400 C 143.271 258.400,144.216 258.743,145.062 259.163 C 148.406 260.821,154.916 263.382,160.000 265.040 C 161.650 265.578,163.313 266.194,163.695 266.409 C 164.077 266.624,164.831 266.800,165.371 266.800 C 165.911 266.800,166.464 266.980,166.600 267.200 C 166.736 267.420,167.366 267.600,168.000 267.600 C 168.634 267.600,169.264 267.780,169.400 268.000 C 169.536 268.220,170.166 268.400,170.800 268.400 C 171.434 268.400,172.052 268.561,172.174 268.758 C 172.382 269.094,173.101 269.246,177.300 269.841 C 178.235 269.974,179.171 270.244,179.380 270.441 C 179.589 270.638,180.703 270.800,181.856 270.800 C 183.009 270.800,184.064 270.980,184.200 271.200 C 184.336 271.420,185.686 271.600,187.200 271.600 C 188.714 271.600,190.064 271.780,190.200 272.000 C 190.354 272.249,194.130 272.400,200.200 272.400 C 206.270 272.400,210.046 272.249,210.200 272.000 C 210.336 271.780,211.686 271.600,213.200 271.600 C 214.714 271.600,216.064 271.420,216.200 271.200 C 216.336 270.980,217.416 270.800,218.600 270.800 C 219.784 270.800,220.864 270.620,221.000 270.400 C 221.136 270.180,221.946 270.000,222.800 270.000 C 223.654 270.000,224.464 269.820,224.600 269.600 C 224.736 269.380,225.546 269.200,226.400 269.200 C 227.254 269.200,228.064 269.020,228.200 268.800 C 228.336 268.580,228.966 268.400,229.600 268.400 C 230.234 268.400,230.864 268.220,231.000 268.000 C 231.136 267.780,231.766 267.600,232.400 267.600 C 233.034 267.600,233.664 267.420,233.800 267.200 C 233.936 266.980,234.489 266.800,235.029 266.800 C 235.569 266.800,236.323 266.624,236.705 266.409 C 237.087 266.194,238.750 265.577,240.400 265.037 C 244.273 263.771,248.451 262.183,251.112 260.966 C 252.273 260.435,253.488 260.000,253.812 260.000 C 254.135 260.000,254.400 259.820,254.400 259.600 C 254.400 259.380,254.760 259.200,255.200 259.200 C 255.640 259.200,256.000 259.020,256.000 258.800 C 256.000 258.580,256.245 258.400,256.544 258.400 C 256.843 258.400,258.148 257.880,259.444 257.245 C 272.988 250.604,277.030 248.594,277.200 248.413 C 277.310 248.296,278.570 247.679,280.000 247.042 C 281.430 246.406,284.040 245.189,285.800 244.339 C 287.560 243.489,289.315 242.795,289.700 242.797 C 290.085 242.799,290.400 242.620,290.400 242.400 C 290.400 242.180,290.839 242.000,291.376 242.000 C 291.913 242.000,292.464 241.820,292.600 241.600 C 292.736 241.380,293.366 241.200,294.000 241.200 C 294.634 241.200,295.264 241.020,295.400 240.800 C 295.536 240.580,297.156 240.400,299.000 240.400 C 300.844 240.400,302.464 240.580,302.600 240.800 C 302.736 241.020,303.224 241.200,303.686 241.200 C 306.443 241.200,308.800 246.392,308.800 252.462 C 308.799 255.804,308.553 257.551,307.175 263.985 C 306.446 267.389,303.569 275.132,301.589 279.021 C 300.495 281.170,299.600 283.169,299.600 283.464 C 299.600 283.759,299.420 284.000,299.200 284.000 C 298.980 284.000,298.800 284.193,298.800 284.428 C 298.800 284.663,298.260 285.641,297.600 286.600 C 296.940 287.559,296.400 288.537,296.400 288.772 C 296.400 289.007,296.220 289.200,296.000 289.200 C 295.780 289.200,295.600 289.436,295.600 289.725 C 295.600 290.013,295.240 290.636,294.800 291.108 C 294.360 291.580,294.000 292.120,294.000 292.308 C 294.000 292.496,293.680 292.998,293.289 293.425 C 292.898 293.851,292.138 294.830,291.600 295.600 C 291.062 296.370,290.479 297.180,290.304 297.400 C 290.129 297.620,289.109 298.970,288.036 300.400 C 285.794 303.388,277.770 311.649,275.400 313.409 C 274.520 314.063,273.350 315.059,272.800 315.622 C 270.625 317.851,262.577 323.600,261.632 323.600 C 261.394 323.600,261.200 323.758,261.200 323.951 C 261.200 324.145,260.660 324.527,260.000 324.800 C 259.340 325.073,258.800 325.455,258.800 325.649 C 258.800 325.842,258.440 326.000,258.000 326.000 C 257.560 326.000,257.200 326.136,257.200 326.302 C 257.200 326.469,256.615 326.859,255.900 327.170 C 255.185 327.481,254.510 327.840,254.400 327.968 C 254.010 328.420,250.716 330.000,250.162 330.000 C 249.853 330.000,249.600 330.180,249.600 330.400 C 249.600 330.620,249.240 330.800,248.800 330.800 C 248.360 330.800,248.000 330.980,248.000 331.200 C 248.000 331.420,247.728 331.600,247.395 331.600 C 247.062 331.600,246.477 331.759,246.095 331.953 C 245.713 332.148,244.905 332.508,244.300 332.753 C 243.695 332.999,242.705 333.401,242.100 333.647 C 241.495 333.892,240.687 334.252,240.305 334.447 C 239.923 334.641,239.259 334.800,238.829 334.800 C 238.399 334.800,237.936 334.980,237.800 335.200 C 237.664 335.420,237.201 335.600,236.771 335.600 C 236.341 335.600,235.677 335.762,235.295 335.961 C 234.295 336.480,228.726 337.872,222.400 339.183 C 213.413 341.045,186.527 341.043,177.600 339.179 C 172.035 338.018,168.142 337.083,167.505 336.757 C 167.123 336.560,166.369 336.400,165.829 336.400 C 165.289 336.400,164.736 336.220,164.600 336.000 C 164.464 335.780,163.924 335.600,163.400 335.600 C 162.876 335.600,162.336 335.420,162.200 335.200 C 162.064 334.980,161.513 334.800,160.976 334.800 C 160.439 334.800,160.000 334.620,160.000 334.400 C 160.000 334.180,159.638 334.000,159.195 334.000 C 158.752 334.000,158.077 333.841,157.695 333.647 C 157.313 333.452,156.550 333.118,156.000 332.903 C 155.450 332.689,154.218 332.128,153.262 331.657 C 152.306 331.186,151.271 330.800,150.962 330.800 C 150.653 330.800,150.400 330.620,150.400 330.400 C 150.400 330.180,150.135 330.000,149.811 330.000 C 149.487 330.000,148.452 329.548,147.511 328.995 C 146.570 328.442,145.125 327.680,144.300 327.301 C 143.475 326.922,142.800 326.474,142.800 326.306 C 142.800 326.138,142.440 326.000,142.000 326.000 C 141.560 326.000,141.200 325.842,141.200 325.649 C 141.200 325.455,140.660 325.073,140.000 324.800 C 139.340 324.527,138.800 324.145,138.800 323.951 C 138.800 323.758,138.606 323.600,138.368 323.600 C 137.450 323.600,129.317 317.790,127.200 315.622 C 126.650 315.058,125.480 314.062,124.600 313.407 C 122.212 311.632,114.706 303.821,112.098 300.400 C 110.840 298.750,109.710 297.310,109.586 297.200 C 109.463 297.090,108.925 296.370,108.392 295.600 C 107.858 294.830,107.102 293.851,106.711 293.425 C 106.320 292.998,106.000 292.496,106.000 292.308 C 106.000 292.120,105.640 291.580,105.200 291.108 C 104.760 290.636,104.400 290.013,104.400 289.725 C 104.400 289.436,104.220 289.200,104.000 289.200 C 103.780 289.200,103.600 289.007,103.600 288.772 C 103.600 288.537,103.091 287.592,102.470 286.672 C 101.045 284.563,96.000 274.214,96.000 273.398 C 96.000 273.063,95.841 272.477,95.647 272.095 C 95.452 271.713,95.115 270.950,94.896 270.400 C 94.678 269.850,94.297 268.897,94.050 268.281 C 93.802 267.666,93.600 266.731,93.600 266.205 C 93.600 265.678,93.420 265.136,93.200 265.000 C 92.980 264.864,92.800 264.144,92.800 263.400 C 92.800 262.656,92.620 261.936,92.400 261.800 C 92.180 261.664,92.000 260.674,92.000 259.600 C 92.000 258.526,91.820 257.536,91.600 257.400 C 91.371 257.259,91.200 255.204,91.200 252.600 C 91.200 249.996,91.371 247.941,91.600 247.800 C 91.820 247.664,92.000 247.111,92.000 246.571 C 92.000 244.598,94.902 241.200,96.587 241.200 C 97.144 241.200,97.600 241.020,97.600 240.800 C 97.600 240.565,98.992 240.400,100.976 240.400 C 102.833 240.400,104.464 240.580,104.600 240.800 M381.406 285.488 L 380.704 286.600 381.630 285.711 C 382.139 285.222,382.455 284.722,382.332 284.599 C 382.209 284.476,381.792 284.876,381.406 285.488 M160.215 396.824 C 160.496 397.279,161.600 397.327,161.600 396.885 C 161.600 396.712,161.236 396.543,160.791 396.509 C 160.347 396.476,160.087 396.618,160.215 396.824 M169.339 398.454 C 169.868 398.761,170.202 398.758,170.519 398.441 C 170.840 398.120,170.641 398.003,169.780 398.012 C 168.746 398.023,168.691 398.077,169.339 398.454 " stroke="none" fill="#fbdb3c" fill-rule="evenodd"></path><path id="path3" d="M326.969 45.923 C 327.279 46.515,329.483 49.643,331.867 52.874 C 339.763 63.579,349.447 80.567,353.600 91.000 C 353.775 91.440,354.192 92.430,354.526 93.200 C 356.994 98.881,359.048 104.749,362.088 114.800 C 362.321 115.570,362.649 116.650,362.818 117.200 C 363.135 118.237,363.804 121.029,364.400 123.800 C 364.733 125.349,365.182 127.359,365.986 130.900 C 366.610 133.650,367.130 136.758,367.607 140.600 C 367.853 142.580,368.219 145.280,368.422 146.600 C 370.520 160.307,370.033 185.021,367.342 201.400 C 365.972 209.735,366.055 209.307,364.612 215.600 C 347.821 288.863,288.526 347.967,215.000 364.729 C 210.176 365.829,204.582 366.909,200.400 367.548 C 190.143 369.116,182.624 369.649,170.738 369.651 C 160.303 369.652,151.816 369.220,146.600 368.422 C 145.280 368.219,142.580 367.853,140.600 367.607 C 136.758 367.130,133.650 366.610,130.900 365.986 C 129.965 365.774,128.390 365.420,127.400 365.200 C 126.410 364.980,124.790 364.620,123.800 364.400 C 119.158 363.368,117.163 362.853,114.400 361.969 C 113.850 361.793,110.970 360.896,108.000 359.976 C 103.224 358.496,97.420 356.359,93.200 354.526 C 92.430 354.192,91.440 353.775,91.000 353.600 C 80.567 349.447,63.579 339.763,52.874 331.867 C 45.673 326.554,44.777 326.034,45.015 327.302 C 45.107 327.796,45.567 328.515,46.036 328.900 C 46.505 329.285,46.764 329.600,46.612 329.600 C 46.459 329.600,47.069 330.306,47.967 331.169 C 48.865 332.031,49.600 332.931,49.600 333.169 C 49.600 333.406,49.780 333.600,50.000 333.600 C 50.220 333.600,50.400 333.849,50.400 334.153 C 50.400 334.458,50.760 334.801,51.200 334.916 C 51.640 335.031,52.000 335.400,52.000 335.736 C 52.000 336.071,52.360 336.460,52.800 336.600 C 53.240 336.740,53.600 337.014,53.600 337.209 C 53.600 337.647,55.492 339.575,55.708 339.358 C 55.795 339.272,56.106 339.651,56.400 340.201 C 56.694 340.750,57.117 341.200,57.339 341.200 C 57.852 341.200,60.400 343.961,60.400 344.517 C 60.400 344.746,60.517 344.816,60.660 344.673 C 60.923 344.410,62.106 345.566,63.188 347.143 C 63.512 347.614,64.107 348.000,64.512 348.000 C 64.916 348.000,65.143 348.169,65.015 348.376 C 64.887 348.583,65.069 348.988,65.419 349.276 C 65.770 349.564,66.354 350.115,66.717 350.500 C 67.080 350.885,67.542 351.200,67.742 351.200 C 67.942 351.200,68.397 351.527,68.753 351.928 C 69.109 352.328,69.715 352.772,70.100 352.915 C 70.485 353.058,70.800 353.451,70.800 353.787 C 70.800 354.124,70.935 354.358,71.100 354.307 C 71.407 354.212,72.590 355.114,74.208 356.676 C 74.707 357.157,75.224 357.442,75.358 357.309 C 75.491 357.176,75.600 357.277,75.600 357.533 C 75.600 357.790,75.830 358.000,76.112 358.000 C 76.393 358.000,76.876 358.350,77.185 358.779 C 77.493 359.207,77.894 359.465,78.076 359.353 C 78.257 359.241,78.514 359.431,78.646 359.775 C 78.778 360.119,79.271 360.403,79.743 360.406 C 80.443 360.411,80.490 360.483,80.000 360.800 C 79.423 361.173,80.210 361.432,81.330 361.237 C 81.511 361.206,81.554 361.351,81.425 361.560 C 81.296 361.768,81.778 362.353,82.495 362.859 C 83.213 363.364,84.149 364.098,84.575 364.489 C 85.002 364.880,85.521 365.200,85.729 365.200 C 85.936 365.200,86.397 365.531,86.753 365.936 C 87.109 366.341,87.895 366.794,88.500 366.944 C 89.105 367.093,89.600 367.482,89.600 367.808 C 89.600 368.133,89.960 368.400,90.400 368.400 C 90.840 368.400,91.200 368.591,91.200 368.824 C 91.200 369.057,91.380 369.136,91.600 369.000 C 91.820 368.864,92.000 368.949,92.000 369.189 C 92.000 369.429,92.315 369.739,92.700 369.878 C 93.085 370.017,93.894 370.472,94.497 370.890 C 95.101 371.308,95.780 371.536,96.007 371.396 C 96.234 371.255,96.370 371.375,96.310 371.661 C 96.249 371.947,96.605 372.243,97.100 372.318 C 97.595 372.394,98.000 372.653,98.000 372.894 C 98.000 373.136,98.116 373.217,98.258 373.076 C 98.399 372.934,99.125 373.354,99.871 374.009 C 100.617 374.664,101.571 375.200,101.990 375.200 C 102.410 375.200,102.864 375.380,103.000 375.600 C 103.136 375.820,103.607 376.000,104.047 376.000 C 104.487 376.000,104.736 376.180,104.600 376.400 C 104.381 376.755,105.222 376.995,106.130 376.837 C 106.311 376.806,106.362 376.938,106.243 377.130 C 106.125 377.322,106.516 377.731,107.114 378.039 C 107.711 378.347,108.332 378.779,108.494 378.999 C 108.656 379.220,108.791 379.259,108.794 379.087 C 108.797 378.915,109.616 379.230,110.614 379.787 C 111.612 380.344,112.767 380.800,113.181 380.800 C 113.595 380.800,113.996 380.988,114.073 381.218 C 114.149 381.448,114.602 381.665,115.078 381.701 C 115.555 381.737,115.873 381.882,115.786 382.023 C 115.698 382.165,116.335 382.514,117.200 382.800 C 118.065 383.086,118.679 383.472,118.563 383.660 C 118.376 383.962,120.044 384.156,120.628 383.900 C 120.754 383.845,121.028 384.108,121.239 384.483 C 121.449 384.859,121.868 385.072,122.170 384.956 C 122.472 384.840,122.838 384.938,122.983 385.173 C 123.128 385.408,123.642 385.603,124.124 385.606 C 124.765 385.611,124.855 385.704,124.459 385.955 C 124.071 386.201,124.269 386.368,125.159 386.549 C 125.842 386.687,126.958 386.913,127.641 387.051 C 128.531 387.232,128.729 387.399,128.341 387.645 C 127.948 387.894,128.048 387.989,128.705 387.994 C 129.203 387.997,129.923 388.159,130.305 388.353 C 132.386 389.412,133.226 389.707,133.467 389.466 C 133.614 389.319,134.028 389.463,134.385 389.786 C 134.743 390.110,135.657 390.419,136.418 390.473 C 137.178 390.527,138.038 390.803,138.329 391.086 C 138.619 391.369,139.474 391.600,140.229 391.600 C 140.983 391.600,141.600 391.780,141.600 392.000 C 141.600 392.220,142.129 392.400,142.776 392.400 C 143.423 392.400,144.064 392.580,144.200 392.800 C 144.336 393.020,145.052 393.200,145.790 393.200 C 146.529 393.200,147.224 393.425,147.335 393.700 C 147.492 394.089,147.544 394.090,147.568 393.707 C 147.590 393.368,148.048 393.465,149.030 394.017 C 149.816 394.458,150.345 394.635,150.206 394.410 C 149.876 393.876,150.201 393.892,151.305 394.462 C 153.008 395.343,153.409 395.450,155.399 395.561 C 156.498 395.622,157.492 395.826,157.608 396.013 C 157.724 396.200,158.669 396.398,159.709 396.452 C 160.749 396.505,161.600 396.696,161.600 396.875 C 161.600 397.054,162.230 397.200,163.000 397.200 C 163.770 397.200,164.400 397.380,164.400 397.600 C 164.400 397.834,165.741 398.000,167.624 398.000 C 169.671 398.000,170.757 398.146,170.600 398.400 C 170.464 398.620,170.528 398.800,170.743 398.800 C 170.958 398.800,171.224 398.575,171.335 398.300 C 171.496 397.900,171.543 397.900,171.568 398.300 C 171.588 398.607,172.188 398.800,173.120 398.800 C 173.956 398.800,174.837 398.997,175.077 399.237 C 175.392 399.552,175.741 399.553,176.325 399.240 C 176.932 398.915,177.177 398.931,177.301 399.303 C 177.430 399.689,181.872 399.809,197.233 399.840 C 219.878 399.886,224.143 399.762,223.729 399.070 C 223.529 398.737,223.623 398.743,224.053 399.090 C 224.428 399.394,224.801 399.439,225.032 399.208 C 225.382 398.858,227.044 398.637,233.100 398.138 C 234.475 398.025,235.600 397.767,235.600 397.566 C 235.600 397.365,236.104 397.200,236.720 397.200 C 237.336 397.200,238.082 396.975,238.379 396.700 C 238.810 396.300,238.861 396.300,238.635 396.700 C 238.480 396.975,238.543 397.200,238.776 397.200 C 239.009 397.200,239.200 397.058,239.200 396.885 C 239.200 396.712,239.773 396.527,240.473 396.473 C 241.174 396.420,242.018 396.156,242.350 395.888 C 242.828 395.502,242.891 395.504,242.653 395.900 C 242.488 396.175,242.543 396.400,242.776 396.400 C 243.009 396.400,243.200 396.220,243.200 396.000 C 243.200 395.780,243.841 395.600,244.624 395.600 C 245.656 395.600,245.965 395.463,245.747 395.100 C 245.520 394.722,245.602 394.726,246.084 395.117 C 246.440 395.405,246.784 395.465,246.861 395.254 C 246.937 395.045,247.630 394.816,248.400 394.746 C 249.170 394.675,249.904 394.474,250.030 394.298 C 250.157 394.122,250.831 393.939,251.529 393.889 C 252.227 393.840,252.799 393.665,252.799 393.500 C 252.800 393.335,253.214 393.200,253.720 393.200 C 254.226 393.200,254.882 392.975,255.179 392.700 C 255.616 392.294,255.658 392.312,255.400 392.800 C 255.142 393.288,255.184 393.306,255.621 392.900 C 255.918 392.625,256.653 392.400,257.256 392.400 C 257.859 392.400,258.464 392.220,258.600 392.000 C 258.736 391.780,259.366 391.600,260.000 391.600 C 260.634 391.600,261.272 391.408,261.417 391.173 C 261.562 390.938,261.933 390.842,262.240 390.960 C 262.548 391.078,262.800 391.031,262.800 390.854 C 262.800 390.678,263.025 390.514,263.300 390.490 C 263.575 390.466,264.070 390.374,264.400 390.286 C 264.730 390.198,265.540 389.979,266.200 389.801 C 266.860 389.623,267.515 389.302,267.655 389.088 C 267.794 388.875,268.379 388.700,268.955 388.700 C 269.530 388.700,270.000 388.586,270.000 388.447 C 270.000 388.308,270.753 387.960,271.673 387.673 C 272.593 387.385,273.886 386.766,274.545 386.297 C 275.205 385.827,275.611 385.658,275.449 385.921 C 275.286 386.185,275.343 386.400,275.576 386.400 C 275.809 386.400,276.000 386.256,276.000 386.080 C 276.000 385.684,278.816 384.603,279.500 384.737 C 279.775 384.791,280.000 384.647,280.000 384.418 C 280.000 384.188,280.360 384.000,280.800 384.000 C 281.240 384.000,281.600 383.820,281.600 383.600 C 281.600 383.380,281.960 383.200,282.400 383.200 C 282.840 383.200,283.200 383.056,283.200 382.880 C 283.200 382.705,283.875 382.308,284.700 381.998 C 286.549 381.305,286.414 381.353,287.500 381.000 C 287.995 380.838,288.400 380.548,288.400 380.353 C 288.400 380.159,288.760 380.000,289.200 380.000 C 289.640 380.000,290.000 379.832,290.000 379.626 C 290.000 379.420,290.620 379.027,291.379 378.753 C 292.137 378.479,292.689 378.145,292.606 378.010 C 292.523 377.876,292.832 377.738,293.292 377.703 C 293.752 377.668,294.234 377.496,294.364 377.319 C 294.494 377.143,295.140 376.729,295.800 376.400 C 296.460 376.071,297.103 375.662,297.229 375.491 C 297.356 375.321,297.839 375.108,298.303 375.019 C 299.285 374.830,300.800 374.067,300.800 373.762 C 300.800 373.647,300.592 373.681,300.338 373.838 C 300.052 374.015,299.985 373.948,300.162 373.662 C 300.319 373.408,300.897 373.200,301.447 373.200 C 302.012 373.200,302.340 373.026,302.200 372.800 C 302.063 372.578,302.365 372.394,302.876 372.387 C 303.384 372.380,304.149 372.110,304.576 371.787 C 305.004 371.464,305.193 371.200,304.998 371.200 C 304.803 371.200,305.578 370.734,306.721 370.164 C 307.865 369.595,308.800 368.986,308.800 368.813 C 308.800 368.639,309.340 368.273,310.000 368.000 C 310.660 367.727,311.200 367.345,311.200 367.151 C 311.200 366.958,311.517 366.800,311.905 366.800 C 312.293 366.800,312.946 366.353,313.355 365.808 C 313.765 365.262,314.229 364.894,314.385 364.991 C 314.541 365.087,315.456 364.454,316.419 363.583 C 317.381 362.712,318.321 362.000,318.508 362.000 C 318.694 362.000,318.736 361.820,318.600 361.600 C 318.464 361.380,318.723 361.200,319.176 361.200 C 319.629 361.200,320.000 361.020,320.000 360.800 C 320.000 360.580,320.278 360.400,320.618 360.400 C 321.402 360.400,323.244 358.587,322.876 358.178 C 322.724 358.010,322.833 358.006,323.118 358.170 C 323.752 358.536,324.890 357.670,324.534 357.093 C 324.392 356.864,324.461 356.790,324.687 356.930 C 324.912 357.069,325.465 356.872,325.915 356.492 C 328.105 354.639,328.439 354.400,328.828 354.400 C 329.059 354.400,329.136 354.220,329.000 354.000 C 328.864 353.780,329.033 353.600,329.376 353.600 C 329.719 353.600,330.000 353.300,330.000 352.933 C 330.000 352.567,330.105 352.372,330.234 352.500 C 330.362 352.629,331.194 352.029,332.082 351.167 C 332.970 350.305,333.990 349.597,334.348 349.594 C 334.915 349.589,334.922 349.537,334.400 349.200 C 333.917 348.888,333.981 348.811,334.724 348.806 C 335.236 348.803,335.537 348.622,335.400 348.400 C 335.264 348.180,335.356 348.000,335.605 348.000 C 336.189 348.000,337.200 346.989,337.200 346.405 C 337.200 346.156,337.367 346.056,337.571 346.182 C 337.775 346.308,338.057 346.049,338.198 345.606 C 338.339 345.163,338.630 344.800,338.845 344.800 C 339.279 344.800,341.223 342.968,341.029 342.742 C 340.962 342.664,341.333 342.189,341.854 341.686 C 342.374 341.183,342.800 340.881,342.800 341.014 C 342.800 341.148,343.070 340.987,343.400 340.657 C 343.730 340.327,344.000 339.859,344.000 339.616 C 344.000 339.373,344.288 339.064,344.640 338.929 C 345.615 338.555,347.200 336.840,347.200 336.158 C 347.200 335.825,347.381 335.665,347.603 335.802 C 347.824 335.939,348.114 335.769,348.246 335.425 C 348.378 335.081,348.736 334.800,349.043 334.800 C 349.349 334.800,349.600 334.539,349.600 334.220 C 349.600 333.901,349.915 333.456,350.300 333.232 C 350.685 333.008,350.846 332.819,350.658 332.812 C 350.469 332.805,350.868 332.284,351.544 331.653 C 352.219 331.022,352.658 330.392,352.519 330.253 C 352.380 330.114,352.490 330.000,352.762 330.000 C 353.261 330.000,354.400 329.049,354.400 328.633 C 354.400 328.410,355.351 327.183,356.300 326.184 C 356.575 325.894,356.800 325.508,356.800 325.325 C 356.800 325.142,357.155 324.771,357.589 324.500 C 358.096 324.183,358.286 323.768,358.121 323.338 C 357.948 322.887,358.017 322.763,358.332 322.958 C 358.616 323.133,358.800 322.992,358.800 322.600 C 358.800 322.244,358.980 322.064,359.200 322.200 C 359.420 322.336,359.600 322.156,359.600 321.800 C 359.600 321.444,359.780 321.264,360.000 321.400 C 360.220 321.536,360.400 321.402,360.400 321.102 C 360.400 320.489,362.434 317.596,364.100 315.841 C 364.705 315.203,365.200 314.478,365.200 314.229 C 365.200 313.980,365.560 313.517,366.000 313.200 C 366.440 312.883,366.800 312.303,366.800 311.912 C 366.800 311.520,366.980 311.200,367.200 311.200 C 367.420 311.200,367.603 310.795,367.606 310.300 C 367.611 309.572,367.686 309.515,368.000 310.000 C 368.314 310.485,368.389 310.428,368.394 309.700 C 368.397 309.205,368.580 308.800,368.800 308.800 C 369.020 308.800,369.200 308.530,369.200 308.200 C 369.200 307.870,369.391 307.600,369.624 307.600 C 369.857 307.600,369.935 307.419,369.798 307.197 C 369.661 306.976,369.831 306.686,370.175 306.554 C 370.519 306.422,370.800 306.156,370.800 305.962 C 370.800 305.768,371.103 305.255,371.474 304.822 C 371.845 304.389,372.195 303.715,372.252 303.325 C 372.310 302.934,372.546 302.551,372.778 302.474 C 373.010 302.397,373.200 302.176,373.200 301.984 C 373.200 301.793,373.650 300.972,374.200 300.162 C 374.750 299.351,375.200 298.353,375.200 297.944 C 375.200 297.535,375.346 297.200,375.525 297.200 C 375.704 297.200,376.098 296.570,376.400 295.800 C 376.702 295.030,377.096 294.400,377.275 294.400 C 377.454 294.400,377.600 293.939,377.600 293.376 C 377.600 292.796,377.773 292.460,378.000 292.600 C 378.220 292.736,378.400 292.466,378.400 292.000 C 378.400 291.429,378.563 291.251,378.900 291.453 C 379.213 291.641,379.180 291.463,378.813 290.977 C 378.490 290.550,378.377 290.326,378.561 290.481 C 379.032 290.877,380.000 289.808,380.000 288.891 C 380.000 288.469,380.360 287.798,380.800 287.400 C 381.665 286.617,381.903 285.766,381.121 286.249 C 380.858 286.411,381.038 285.989,381.521 285.310 C 382.005 284.632,382.400 283.879,382.400 283.638 C 382.400 283.397,382.580 283.200,382.800 283.200 C 383.020 283.200,383.200 282.840,383.200 282.400 C 383.200 281.960,383.380 281.600,383.600 281.600 C 383.820 281.600,384.000 281.240,384.000 280.800 C 384.000 280.360,384.146 280.000,384.324 280.000 C 384.503 280.000,384.879 279.100,385.161 278.000 C 385.443 276.900,385.848 276.000,386.061 276.000 C 386.273 276.000,386.356 275.852,386.244 275.671 C 386.132 275.491,386.291 274.861,386.597 274.271 C 386.902 273.682,387.045 273.200,386.914 273.200 C 386.783 273.200,387.019 272.809,387.438 272.331 C 387.857 271.853,387.947 271.611,387.638 271.793 C 387.220 272.039,387.167 271.980,387.432 271.562 C 387.785 271.005,387.853 270.794,387.950 269.976 C 387.978 269.743,388.211 269.683,388.468 269.842 C 388.775 270.032,388.855 269.919,388.700 269.515 C 388.570 269.177,388.714 268.415,389.021 267.824 C 389.328 267.232,389.637 266.355,389.708 265.874 C 389.779 265.393,390.047 264.619,390.304 264.153 C 390.561 263.687,390.658 263.192,390.519 263.053 C 390.380 262.914,390.438 262.800,390.648 262.800 C 390.857 262.800,391.052 262.485,391.080 262.100 C 391.108 261.715,391.343 260.680,391.603 259.800 C 391.862 258.920,392.167 257.615,392.281 256.900 C 392.395 256.185,392.609 255.600,392.757 255.600 C 392.904 255.600,393.066 255.113,393.115 254.518 C 393.164 253.922,393.384 253.256,393.602 253.038 C 393.821 252.819,394.000 252.057,394.000 251.344 C 394.000 250.631,394.180 249.936,394.400 249.800 C 394.620 249.664,394.800 249.034,394.800 248.400 C 394.800 247.766,394.950 247.154,395.134 247.041 C 395.317 246.927,395.498 246.062,395.535 245.117 C 395.572 244.173,395.781 243.340,396.001 243.267 C 396.220 243.193,396.400 242.958,396.400 242.743 C 396.400 242.528,396.175 242.488,395.900 242.653 C 395.504 242.891,395.502 242.828,395.888 242.350 C 396.156 242.018,396.420 241.174,396.473 240.473 C 396.527 239.773,396.712 239.200,396.885 239.200 C 397.058 239.200,397.200 239.009,397.200 238.776 C 397.200 238.543,396.975 238.480,396.700 238.635 C 396.300 238.861,396.300 238.810,396.700 238.379 C 396.975 238.082,397.200 237.336,397.200 236.720 C 397.200 236.104,397.356 235.600,397.547 235.600 C 397.738 235.600,397.918 234.599,397.946 233.376 C 397.974 232.153,398.188 230.796,398.421 230.361 C 398.654 229.925,398.814 229.261,398.776 228.884 C 398.574 226.860,398.841 223.846,399.177 224.376 C 399.733 225.255,399.878 219.270,399.837 197.233 C 399.808 181.870,399.689 177.430,399.303 177.301 C 398.931 177.177,398.915 176.932,399.240 176.325 C 399.553 175.741,399.552 175.392,399.237 175.077 C 398.997 174.837,398.800 173.971,398.800 173.153 C 398.800 172.336,398.575 171.576,398.300 171.465 C 397.900 171.304,397.900 171.257,398.300 171.232 C 398.575 171.214,398.800 171.009,398.800 170.776 C 398.800 170.543,398.620 170.464,398.400 170.600 C 398.146 170.757,398.000 169.671,398.000 167.624 C 398.000 165.741,397.834 164.400,397.600 164.400 C 397.380 164.400,397.200 163.770,397.200 163.000 C 397.200 162.230,397.054 161.600,396.875 161.600 C 396.696 161.600,396.505 160.749,396.452 159.709 C 396.398 158.669,396.195 157.720,396.001 157.601 C 395.807 157.481,395.604 156.432,395.551 155.270 C 395.498 154.108,395.308 153.067,395.128 152.955 C 394.947 152.844,394.800 152.403,394.800 151.976 C 394.800 151.549,394.620 151.200,394.400 151.200 C 394.180 151.200,394.000 150.581,394.000 149.824 C 394.000 149.067,393.820 148.336,393.600 148.200 C 393.380 148.064,393.200 147.459,393.200 146.856 C 393.200 146.253,392.975 145.518,392.700 145.221 C 392.300 144.790,392.300 144.739,392.700 144.965 C 392.975 145.120,393.200 145.057,393.200 144.824 C 393.200 144.591,393.020 144.400,392.800 144.400 C 392.580 144.400,392.400 143.759,392.400 142.976 C 392.400 142.129,392.238 141.653,392.000 141.800 C 391.780 141.936,391.585 141.632,391.567 141.124 C 391.548 140.616,391.457 139.750,391.363 139.200 C 391.269 138.650,391.164 137.967,391.130 137.683 C 391.093 137.385,390.799 137.268,390.433 137.406 C 389.939 137.595,389.905 137.541,390.281 137.162 C 390.616 136.825,390.642 136.452,390.367 135.939 C 390.150 135.532,390.058 135.200,390.162 135.200 C 390.267 135.200,390.102 134.718,389.797 134.129 C 389.491 133.539,389.350 132.882,389.482 132.667 C 389.616 132.450,389.518 132.404,389.262 132.562 C 388.823 132.833,388.612 132.114,388.771 130.895 C 388.808 130.617,388.549 130.278,388.196 130.143 C 387.843 130.008,387.647 129.656,387.760 129.361 C 387.873 129.067,387.793 128.719,387.583 128.589 C 387.372 128.459,387.200 128.018,387.200 127.610 C 387.200 127.201,387.026 126.807,386.813 126.733 C 386.600 126.660,386.382 126.027,386.330 125.328 C 386.277 124.628,386.091 124.144,385.917 124.251 C 385.743 124.359,385.596 124.032,385.591 123.524 C 385.586 123.016,385.230 122.150,384.800 121.600 C 384.370 121.050,384.014 120.285,384.009 119.900 C 384.004 119.515,383.820 119.200,383.600 119.200 C 383.380 119.200,383.200 118.840,383.200 118.400 C 383.200 117.960,383.059 117.600,382.887 117.600 C 382.715 117.600,382.537 117.144,382.491 116.587 C 382.445 116.030,382.045 115.186,381.603 114.711 C 381.162 114.237,380.800 113.313,380.800 112.658 C 380.800 112.003,380.683 111.584,380.539 111.727 C 380.235 112.031,379.200 110.179,379.200 109.331 C 379.200 109.013,379.020 108.864,378.800 109.000 C 378.416 109.237,378.240 108.726,378.363 107.730 C 378.395 107.472,378.101 107.022,377.711 106.730 C 377.320 106.439,376.942 105.864,376.872 105.453 C 376.801 105.042,376.396 104.333,375.972 103.877 C 375.547 103.422,375.200 102.657,375.200 102.179 C 375.200 101.381,373.941 99.359,373.063 98.745 C 372.862 98.604,372.816 98.298,372.960 98.065 C 373.104 97.831,372.857 97.445,372.411 97.206 C 371.965 96.967,371.600 96.508,371.600 96.186 C 371.600 95.864,371.409 95.600,371.176 95.600 C 370.943 95.600,370.864 95.420,371.000 95.200 C 371.136 94.980,371.071 94.800,370.855 94.800 C 370.640 94.800,370.345 94.260,370.200 93.600 C 370.055 92.940,369.771 92.400,369.568 92.400 C 369.366 92.400,369.200 92.130,369.200 91.800 C 369.200 91.470,369.020 91.200,368.800 91.200 C 368.580 91.200,368.400 90.932,368.400 90.603 C 368.400 90.275,368.040 89.782,367.600 89.507 C 367.160 89.232,366.800 88.781,366.800 88.504 C 366.800 88.227,366.575 87.997,366.300 87.994 C 365.967 87.990,366.000 87.858,366.400 87.600 C 366.993 87.217,366.535 86.989,365.500 87.153 C 365.335 87.179,365.221 87.065,365.247 86.900 C 365.390 85.996,365.148 85.185,364.800 85.400 C 364.580 85.536,364.400 85.358,364.400 85.005 C 364.400 84.652,363.964 83.928,363.431 83.395 C 362.898 82.862,362.349 82.069,362.211 81.633 C 362.072 81.197,361.608 80.730,361.180 80.594 C 360.751 80.457,360.400 80.088,360.400 79.773 C 360.400 79.458,360.220 79.200,360.000 79.200 C 359.780 79.200,359.600 78.930,359.600 78.600 C 359.600 78.270,359.442 78.000,359.249 78.000 C 359.055 78.000,358.673 77.460,358.400 76.800 C 358.127 76.140,357.715 75.600,357.485 75.600 C 357.255 75.600,357.179 75.488,357.316 75.350 C 357.454 75.213,356.944 74.496,356.183 73.757 C 355.422 73.019,354.800 72.231,354.800 72.007 C 354.800 71.783,354.530 71.600,354.200 71.600 C 353.870 71.600,353.600 71.426,353.600 71.214 C 353.600 71.001,353.105 70.308,352.500 69.673 C 351.895 69.037,351.130 68.109,350.800 67.610 C 350.470 67.110,349.984 66.475,349.719 66.199 C 349.455 65.922,349.365 65.569,349.519 65.414 C 349.674 65.260,349.530 65.193,349.200 65.267 C 348.870 65.340,348.645 65.175,348.700 64.900 C 348.755 64.625,348.665 64.445,348.500 64.500 C 348.335 64.555,348.131 64.420,348.046 64.200 C 347.760 63.458,345.853 62.044,345.463 62.285 C 345.250 62.416,345.188 62.343,345.324 62.122 C 345.589 61.694,344.920 60.919,342.630 59.004 C 341.844 58.346,341.200 57.611,341.200 57.371 C 341.200 57.131,340.750 56.694,340.201 56.400 C 339.651 56.106,339.272 55.795,339.358 55.708 C 339.575 55.492,337.647 53.600,337.209 53.600 C 337.014 53.600,336.746 53.259,336.614 52.843 C 336.482 52.427,336.019 51.994,335.587 51.881 C 335.154 51.767,334.800 51.388,334.800 51.037 C 334.800 50.687,334.530 50.400,334.200 50.400 C 333.870 50.400,333.600 50.220,333.600 50.000 C 333.600 49.780,333.406 49.600,333.169 49.600 C 332.931 49.600,332.031 48.865,331.169 47.967 C 330.306 47.069,329.600 46.459,329.600 46.612 C 329.600 46.764,329.285 46.505,328.900 46.036 C 327.750 44.635,326.246 44.547,326.969 45.923 M145.000 104.790 C 144.560 104.985,143.313 105.156,142.228 105.172 C 140.031 105.203,137.173 105.992,134.705 107.247 C 134.323 107.441,133.738 107.600,133.405 107.600 C 133.072 107.600,132.800 107.780,132.800 108.000 C 132.800 108.220,132.607 108.400,132.372 108.400 C 131.101 108.400,125.320 113.409,123.291 116.268 C 122.066 117.994,120.000 121.964,120.000 122.592 C 120.000 124.258,118.865 123.953,116.558 121.664 C 109.463 114.629,99.660 112.045,89.860 114.630 C 87.662 115.209,82.518 117.423,82.000 118.011 C 81.890 118.136,81.170 118.673,80.400 119.205 C 78.704 120.376,74.800 124.351,74.800 124.907 C 74.800 125.126,74.485 125.597,74.100 125.953 C 73.264 126.726,71.600 129.844,71.600 130.638 C 71.600 130.947,71.420 131.200,71.200 131.200 C 70.980 131.200,70.800 131.639,70.800 132.176 C 70.800 132.713,70.640 133.252,70.444 133.373 C 69.550 133.925,68.769 146.129,69.576 146.936 C 69.809 147.169,70.000 147.853,70.000 148.456 C 70.000 149.059,70.180 149.664,70.400 149.800 C 70.620 149.936,70.800 150.487,70.800 151.024 C 70.800 151.561,70.980 152.000,71.200 152.000 C 71.420 152.000,71.600 152.265,71.600 152.588 C 71.600 153.119,71.984 153.908,73.662 156.825 C 73.958 157.339,74.515 158.117,74.900 158.555 C 75.285 158.993,75.600 159.521,75.600 159.729 C 75.600 159.936,75.917 160.397,76.303 160.753 C 76.690 161.109,77.506 162.138,78.116 163.040 C 79.396 164.932,88.324 173.773,90.400 175.204 C 91.170 175.735,92.253 176.626,92.806 177.185 C 93.359 177.743,94.619 178.828,95.606 179.594 C 96.593 180.361,97.670 181.216,98.000 181.493 C 98.592 181.991,99.697 182.776,105.600 186.894 C 109.208 189.411,112.766 191.600,113.248 191.600 C 113.442 191.600,113.600 191.780,113.600 192.000 C 113.600 192.220,113.870 192.400,114.200 192.400 C 114.530 192.400,114.800 192.580,114.800 192.800 C 114.800 193.020,115.070 193.200,115.400 193.200 C 115.730 193.200,116.000 193.380,116.000 193.600 C 116.000 193.820,116.255 194.000,116.567 194.000 C 116.878 194.000,117.193 194.135,117.267 194.300 C 117.340 194.465,118.300 195.048,119.400 195.595 C 120.500 196.142,121.490 196.682,121.600 196.795 C 121.982 197.187,124.204 198.451,124.900 198.671 C 125.285 198.793,125.600 199.052,125.600 199.247 C 125.600 199.441,125.960 199.600,126.400 199.600 C 126.840 199.600,127.200 199.780,127.200 200.000 C 127.200 200.220,127.397 200.400,127.638 200.400 C 127.879 200.400,128.554 200.736,129.138 201.146 C 132.545 203.539,134.339 203.105,137.621 199.095 C 140.318 195.801,140.450 195.631,141.590 194.000 C 142.129 193.230,143.033 192.150,143.600 191.600 C 144.167 191.050,145.065 189.970,145.596 189.200 C 146.127 188.430,146.663 187.710,146.788 187.600 C 147.253 187.190,152.734 179.733,153.845 178.000 C 154.479 177.010,155.212 175.974,155.473 175.698 C 155.734 175.421,156.062 174.836,156.201 174.398 C 156.340 173.959,156.622 173.600,156.827 173.600 C 157.032 173.600,157.200 173.364,157.200 173.075 C 157.200 172.787,157.560 172.164,158.000 171.692 C 158.440 171.220,158.800 170.646,158.800 170.417 C 158.800 170.188,158.946 170.000,159.125 170.000 C 159.304 170.000,159.698 169.370,160.000 168.600 C 160.302 167.830,160.662 167.200,160.800 167.200 C 160.938 167.200,161.298 166.570,161.600 165.800 C 161.902 165.030,162.275 164.400,162.428 164.400 C 162.581 164.400,162.807 164.085,162.929 163.700 C 163.146 163.015,164.404 160.796,164.800 160.400 C 165.278 159.922,166.000 158.361,166.000 157.805 C 166.000 157.472,166.180 157.200,166.400 157.200 C 166.620 157.200,166.800 156.947,166.800 156.638 C 166.800 156.329,167.155 155.384,167.589 154.538 C 169.864 150.106,171.985 144.228,172.886 139.858 C 173.451 137.114,173.744 127.984,173.281 127.521 C 173.059 127.299,172.918 129.095,172.924 132.077 C 172.929 134.795,172.699 137.985,172.409 139.200 C 171.436 143.272,169.979 147.716,168.747 150.367 C 168.074 151.815,167.235 153.720,166.883 154.600 C 166.251 156.179,164.982 158.676,163.223 161.800 C 162.728 162.680,161.767 164.390,161.087 165.600 C 158.450 170.297,146.506 187.617,144.814 189.200 C 144.232 189.744,140.839 193.971,139.997 195.200 C 139.470 195.970,138.940 196.690,138.819 196.800 C 138.699 196.910,137.743 198.021,136.695 199.269 C 133.899 202.601,131.802 202.586,126.800 199.197 C 126.250 198.824,124.360 197.740,122.600 196.789 C 119.172 194.935,108.582 188.356,105.854 186.386 C 104.944 185.728,103.120 184.441,101.800 183.525 C 81.749 169.609,69.597 153.818,69.600 141.680 C 69.607 117.156,99.838 105.185,116.945 122.934 C 119.317 125.395,120.400 125.514,120.400 123.314 C 120.400 123.020,121.017 121.570,121.771 120.090 C 127.964 107.944,141.412 102.772,155.465 107.132 C 162.290 109.249,169.651 117.079,171.793 124.500 C 172.573 127.203,173.014 127.517,172.636 125.100 C 171.855 120.105,164.843 110.829,160.389 108.900 C 159.515 108.521,158.800 108.074,158.800 107.906 C 158.800 107.738,158.440 107.600,158.000 107.600 C 157.560 107.600,157.200 107.420,157.200 107.200 C 157.200 106.980,156.761 106.800,156.224 106.800 C 155.687 106.800,155.136 106.620,155.000 106.400 C 154.864 106.180,154.349 106.000,153.856 106.000 C 153.363 106.000,152.789 105.835,152.580 105.634 C 152.371 105.432,151.120 105.188,149.800 105.090 C 148.480 104.992,147.040 104.806,146.600 104.675 C 146.160 104.544,145.440 104.596,145.000 104.790 M248.000 104.789 C 247.670 105.008,246.365 105.191,245.100 105.194 C 243.835 105.197,242.800 105.380,242.800 105.600 C 242.800 105.820,242.271 106.000,241.624 106.000 C 240.977 106.000,240.336 106.180,240.200 106.400 C 240.064 106.620,239.513 106.800,238.976 106.800 C 238.439 106.800,238.000 106.946,238.000 107.125 C 238.000 107.304,237.370 107.698,236.600 108.000 C 235.830 108.302,235.200 108.696,235.200 108.875 C 235.200 109.054,234.967 109.200,234.681 109.200 C 233.214 109.200,225.617 117.150,225.604 118.700 C 225.602 118.975,225.420 119.200,225.200 119.200 C 224.980 119.200,224.800 119.560,224.800 120.000 C 224.800 120.440,224.665 120.801,224.500 120.803 C 224.057 120.808,223.200 122.821,223.200 123.856 C 223.200 124.349,223.040 124.852,222.844 124.973 C 221.546 125.775,221.554 139.830,222.853 140.633 C 223.044 140.751,223.200 141.456,223.200 142.200 C 223.200 142.944,223.380 143.664,223.600 143.800 C 223.820 143.936,224.000 144.476,224.000 145.000 C 224.000 145.524,224.180 146.064,224.400 146.200 C 224.620 146.336,224.800 146.791,224.800 147.211 C 224.800 147.632,225.160 148.617,225.600 149.400 C 226.040 150.183,226.400 151.089,226.400 151.412 C 226.400 151.735,226.580 152.000,226.800 152.000 C 227.020 152.000,227.200 152.272,227.200 152.605 C 227.200 152.938,227.359 153.523,227.553 153.905 C 227.748 154.287,228.737 156.310,229.751 158.400 C 231.625 162.262,233.547 165.792,234.759 167.600 C 235.127 168.150,235.676 169.092,235.978 169.693 C 236.281 170.295,236.814 171.105,237.164 171.493 C 237.514 171.882,238.055 172.695,238.368 173.300 C 238.680 173.905,239.085 174.400,239.268 174.400 C 239.450 174.400,239.600 174.625,239.601 174.900 C 239.601 175.175,240.141 176.030,240.800 176.800 C 241.459 177.570,241.999 178.425,241.999 178.700 C 242.000 178.975,242.141 179.200,242.314 179.200 C 242.486 179.200,242.943 179.733,243.328 180.385 C 243.713 181.037,244.251 181.802,244.523 182.085 C 244.795 182.368,245.900 183.860,246.979 185.400 C 249.044 188.348,251.757 191.790,252.812 192.800 C 253.156 193.130,253.871 194.030,254.400 194.800 C 254.929 195.570,255.643 196.470,255.985 196.800 C 256.328 197.130,257.081 198.030,257.659 198.800 C 261.053 203.324,262.621 203.662,267.000 200.816 C 267.880 200.244,269.140 199.511,269.800 199.188 C 270.460 198.865,271.090 198.511,271.200 198.401 C 271.594 198.005,273.813 196.746,274.500 196.529 C 274.885 196.407,275.200 196.148,275.200 195.953 C 275.200 195.759,275.560 195.600,276.000 195.600 C 276.440 195.600,276.800 195.420,276.800 195.200 C 276.800 194.980,277.036 194.800,277.325 194.800 C 277.613 194.800,278.236 194.440,278.708 194.000 C 279.180 193.560,279.762 193.200,280.000 193.200 C 280.238 193.200,280.820 192.840,281.292 192.400 C 281.764 191.960,282.387 191.600,282.675 191.600 C 282.964 191.600,283.200 191.420,283.200 191.200 C 283.200 190.980,283.382 190.800,283.605 190.800 C 284.029 190.800,289.427 187.352,290.315 186.514 C 290.598 186.247,291.363 185.713,292.015 185.328 C 292.667 184.943,293.200 184.486,293.200 184.314 C 293.200 184.141,293.436 184.000,293.725 184.000 C 294.013 184.000,294.598 183.680,295.025 183.289 C 295.451 182.898,296.430 182.136,297.200 181.595 C 298.581 180.625,299.233 180.112,300.934 178.660 C 301.410 178.254,302.512 177.354,303.383 176.660 C 307.146 173.664,316.102 164.923,317.584 162.800 C 318.122 162.030,318.674 161.310,318.811 161.200 C 320.054 160.202,324.424 152.360,324.371 151.221 C 324.355 150.880,323.769 151.770,323.069 153.200 C 318.939 161.634,312.289 168.819,298.002 180.283 C 295.679 182.148,289.600 186.459,286.558 188.400 C 280.574 192.218,276.244 194.895,274.600 195.792 C 273.500 196.393,272.420 197.019,272.200 197.184 C 271.691 197.567,267.577 199.837,265.106 201.099 C 262.843 202.254,261.289 202.068,259.842 200.469 C 257.226 197.577,255.199 195.144,255.192 194.887 C 255.188 194.729,254.547 193.880,253.768 193.000 C 248.108 186.610,238.347 172.470,231.817 161.204 C 228.707 155.838,224.978 146.615,223.162 139.800 C 218.581 122.607,231.406 105.876,249.200 105.831 C 260.945 105.802,269.083 110.767,274.000 120.961 L 276.067 125.246 279.342 122.123 C 290.399 111.580,306.891 111.714,317.646 122.435 C 324.296 129.065,327.256 139.194,325.000 147.600 C 324.298 150.216,324.274 150.525,324.800 150.200 C 325.020 150.064,325.200 149.434,325.200 148.800 C 325.200 148.166,325.380 147.536,325.600 147.400 C 325.836 147.254,326.000 144.870,326.000 141.600 C 326.000 138.330,325.836 135.946,325.600 135.800 C 325.380 135.664,325.200 135.122,325.200 134.595 C 325.200 129.583,315.016 116.800,311.022 116.800 C 310.680 116.800,310.400 116.620,310.400 116.400 C 310.400 116.180,310.128 116.000,309.795 116.000 C 309.462 116.000,308.877 115.844,308.495 115.654 C 303.957 113.391,294.072 113.095,289.254 115.078 C 283.655 117.382,279.680 120.190,276.900 123.804 C 276.231 124.674,276.000 124.796,276.000 124.281 C 276.000 123.901,275.840 123.277,275.644 122.895 C 275.448 122.513,274.870 121.300,274.359 120.200 C 272.600 116.410,267.186 110.000,265.744 110.000 C 265.445 110.000,265.200 109.847,265.200 109.660 C 265.200 109.473,263.985 108.734,262.500 108.018 C 261.015 107.302,259.487 106.555,259.105 106.358 C 258.723 106.161,257.994 106.000,257.485 106.000 C 256.976 106.000,256.389 105.838,256.180 105.641 C 255.971 105.443,254.540 105.192,253.000 105.083 C 251.460 104.974,249.840 104.773,249.400 104.637 C 248.960 104.501,248.330 104.569,248.000 104.789 M103.400 240.800 C 104.501 241.273,104.892 241.273,104.600 240.800 C 104.464 240.580,103.958 240.413,103.476 240.428 C 102.631 240.455,102.629 240.469,103.400 240.800 M295.400 240.800 C 295.108 241.273,295.499 241.273,296.600 240.800 C 297.371 240.469,297.369 240.455,296.524 240.428 C 296.042 240.413,295.536 240.580,295.400 240.800 M306.828 243.800 C 306.828 244.020,307.086 244.650,307.400 245.200 C 307.714 245.750,307.972 246.020,307.972 245.800 C 307.972 245.580,307.714 244.950,307.400 244.400 C 307.086 243.850,306.828 243.580,306.828 243.800 M279.600 247.124 C 278.390 247.716,277.310 248.299,277.200 248.421 C 277.090 248.542,276.325 248.956,275.500 249.340 C 274.013 250.031,273.354 250.643,274.700 250.083 C 276.347 249.396,282.400 246.317,282.400 246.166 C 282.400 245.846,281.781 246.058,279.600 247.124 M308.051 247.400 C 308.048 247.840,308.195 248.920,308.377 249.800 L 308.708 251.400 308.726 249.800 C 308.736 248.920,308.589 247.840,308.400 247.400 L 308.056 246.600 308.051 247.400 M91.492 247.842 C 91.331 248.002,91.220 248.958,91.244 249.967 L 91.288 251.800 91.642 250.000 C 92.018 248.087,91.968 247.365,91.492 247.842 M121.290 247.824 C 121.721 248.254,129.324 252.010,129.469 251.864 C 129.550 251.783,127.809 250.791,125.600 249.658 C 121.879 247.752,120.728 247.262,121.290 247.824 M272.093 250.980 C 270.839 251.672,270.462 252.101,271.412 251.755 C 272.398 251.395,273.914 250.386,273.389 250.439 C 273.175 250.461,272.592 250.704,272.093 250.980 M130.000 252.160 C 130.000 252.502,134.049 254.484,134.279 254.255 C 134.440 254.094,133.032 253.321,130.300 252.071 C 130.135 251.995,130.000 252.035,130.000 252.160 M91.200 255.310 C 91.200 256.323,91.394 257.273,91.631 257.419 C 91.930 257.604,91.976 257.092,91.780 255.743 C 91.409 253.190,91.200 253.034,91.200 255.310 M308.216 256.325 C 308.051 257.713,308.010 258.943,308.125 259.058 C 308.406 259.339,308.935 254.997,308.701 254.328 C 308.600 254.038,308.382 254.936,308.216 256.325 M251.653 260.653 C 250.913 260.976,250.390 261.324,250.492 261.425 C 250.704 261.637,253.600 260.490,253.600 260.195 C 253.600 259.898,253.129 260.009,251.653 260.653 M307.400 261.200 C 307.250 261.673,307.217 262.150,307.327 262.260 C 307.437 262.370,307.650 262.073,307.800 261.600 C 307.950 261.127,307.983 260.650,307.873 260.540 C 307.763 260.430,307.550 260.727,307.400 261.200 M153.800 263.189 C 156.039 264.237,163.713 266.821,163.933 266.601 C 164.033 266.501,163.864 266.334,163.557 266.229 C 163.251 266.125,161.650 265.597,160.000 265.055 C 158.350 264.513,156.048 263.694,154.885 263.235 C 152.276 262.205,151.640 262.178,153.800 263.189 M245.200 263.332 C 243.990 263.826,241.650 264.661,240.000 265.187 C 238.350 265.713,236.820 266.312,236.600 266.517 C 236.170 266.918,237.602 266.610,239.000 266.001 C 239.440 265.809,240.970 265.254,242.400 264.766 C 245.406 263.741,248.383 262.462,247.800 262.445 C 247.580 262.439,246.410 262.838,245.200 263.332 M306.673 264.153 C 306.523 264.545,306.411 265.166,306.425 265.533 C 306.442 265.975,306.581 265.874,306.837 265.234 C 307.049 264.703,307.161 264.082,307.085 263.854 C 307.009 263.627,306.824 263.761,306.673 264.153 M164.433 266.944 C 164.905 267.350,166.843 267.593,166.610 267.216 C 166.468 266.987,165.883 266.800,165.310 266.800 C 164.736 266.800,164.342 266.865,164.433 266.944 M233.790 267.216 C 233.621 267.489,233.923 267.538,234.666 267.360 C 236.199 266.992,236.344 266.800,235.090 266.800 C 234.517 266.800,233.932 266.987,233.790 267.216 M167.233 267.744 C 167.705 268.150,169.643 268.393,169.410 268.016 C 169.268 267.787,168.683 267.600,168.110 267.600 C 167.536 267.600,167.142 267.665,167.233 267.744 M230.990 268.016 C 230.821 268.289,231.123 268.338,231.866 268.160 C 233.399 267.792,233.544 267.600,232.290 267.600 C 231.717 267.600,231.132 267.787,230.990 268.016 M170.033 268.544 C 170.505 268.950,172.443 269.193,172.210 268.816 C 172.068 268.587,171.483 268.400,170.910 268.400 C 170.336 268.400,169.942 268.465,170.033 268.544 M228.190 268.816 C 228.021 269.089,228.323 269.138,229.066 268.960 C 230.599 268.592,230.744 268.400,229.490 268.400 C 228.917 268.400,228.332 268.587,228.190 268.816 M174.000 269.600 C 175.542 270.094,176.364 270.094,175.600 269.600 C 175.270 269.387,174.550 269.227,174.000 269.246 L 173.000 269.280 174.000 269.600 M224.604 269.594 C 224.452 269.840,224.855 269.894,225.680 269.737 C 227.449 269.400,227.601 269.200,226.090 269.200 C 225.407 269.200,224.738 269.377,224.604 269.594 M304.977 269.843 C 304.844 270.259,304.570 271.013,304.367 271.519 C 304.165 272.024,304.010 272.654,304.022 272.919 C 304.034 273.183,304.400 272.521,304.836 271.447 C 305.272 270.373,305.536 269.403,305.423 269.290 C 305.311 269.178,305.110 269.426,304.977 269.843 M177.600 270.400 C 179.036 270.860,179.684 270.860,179.400 270.400 C 179.264 270.180,178.578 270.018,177.876 270.040 C 176.657 270.078,176.645 270.094,177.600 270.400 M221.004 270.394 C 220.852 270.640,221.255 270.694,222.080 270.537 C 223.849 270.200,224.001 270.000,222.490 270.000 C 221.807 270.000,221.138 270.177,221.004 270.394 M180.833 270.944 C 181.286 271.336,184.437 271.584,184.206 271.209 C 184.067 270.984,183.213 270.800,182.310 270.800 C 181.406 270.800,180.742 270.865,180.833 270.944 M216.184 271.226 C 216.005 271.515,216.412 271.562,217.461 271.372 C 219.503 271.003,219.655 270.800,217.890 270.800 C 217.097 270.800,216.329 270.991,216.184 271.226 M187.800 272.000 C 189.575 272.452,190.479 272.452,190.200 272.000 C 190.064 271.780,189.198 271.621,188.276 271.647 C 186.693 271.692,186.667 271.712,187.800 272.000 M210.194 272.009 C 210.027 272.279,210.531 272.328,211.671 272.154 C 213.956 271.803,214.110 271.600,212.090 271.600 C 211.187 271.600,210.333 271.784,210.194 272.009 M198.300 272.693 C 199.235 272.777,200.765 272.777,201.700 272.693 C 202.635 272.609,201.870 272.540,200.000 272.540 C 198.130 272.540,197.365 272.609,198.300 272.693 M96.028 273.473 C 95.995 274.026,99.953 282.400,100.248 282.400 C 100.357 282.400,100.376 282.265,100.289 282.100 C 99.947 281.450,97.464 276.161,96.781 274.626 C 96.382 273.732,96.044 273.213,96.028 273.473 M303.187 274.645 C 302.833 275.584,301.173 279.213,300.508 280.500 C 300.423 280.665,300.441 280.800,300.550 280.800 C 300.898 280.800,304.088 273.955,303.851 273.718 C 303.725 273.592,303.427 274.009,303.187 274.645 M100.408 282.888 C 100.398 283.251,101.854 285.863,102.847 287.262 C 103.261 287.846,103.600 288.521,103.600 288.762 C 103.600 289.003,103.795 289.200,104.033 289.200 C 104.271 289.200,104.055 288.525,103.555 287.700 C 101.214 283.844,100.415 282.622,100.408 282.888 M297.916 285.288 C 297.051 286.622,296.348 288.000,296.533 288.000 C 296.825 288.000,298.864 284.730,298.684 284.551 C 298.587 284.454,298.242 284.786,297.916 285.288 M104.422 289.800 C 104.427 290.329,105.542 291.791,105.769 291.565 C 105.866 291.468,105.602 290.941,105.182 290.394 C 104.761 289.847,104.420 289.580,104.422 289.800 M294.645 290.588 C 294.280 291.144,294.122 291.600,294.295 291.600 C 294.684 291.600,295.719 289.986,295.482 289.749 C 295.386 289.653,295.010 290.031,294.645 290.588 M106.022 292.200 C 106.027 292.729,107.142 294.191,107.369 293.965 C 107.466 293.868,107.202 293.341,106.782 292.794 C 106.361 292.247,106.020 291.980,106.022 292.200 M293.045 292.988 C 292.680 293.544,292.522 294.000,292.695 294.000 C 293.084 294.000,294.119 292.386,293.882 292.149 C 293.786 292.053,293.410 292.431,293.045 292.988 M108.893 296.400 C 109.168 296.840,109.531 297.200,109.700 297.200 C 109.869 297.200,109.782 296.840,109.507 296.400 C 109.232 295.960,108.869 295.600,108.700 295.600 C 108.531 295.600,108.618 295.960,108.893 296.400 M290.493 296.400 C 290.218 296.840,290.131 297.200,290.300 297.200 C 290.469 297.200,290.832 296.840,291.107 296.400 C 291.382 295.960,291.469 295.600,291.300 295.600 C 291.131 295.600,290.768 295.960,290.493 296.400 M110.740 298.716 C 111.233 299.409,111.844 300.104,112.097 300.260 C 112.350 300.417,112.154 299.977,111.660 299.284 C 111.167 298.591,110.556 297.896,110.303 297.740 C 110.050 297.583,110.246 298.023,110.740 298.716 M288.060 299.700 C 287.200 300.855,284.874 303.510,282.891 305.600 C 280.908 307.690,279.351 309.469,279.430 309.554 C 279.793 309.941,288.414 300.376,289.753 298.100 C 290.496 296.837,289.473 297.805,288.060 299.700 M113.189 301.794 C 114.376 303.415,121.204 310.532,121.183 310.125 C 121.173 309.946,119.174 307.730,116.740 305.200 C 114.306 302.670,112.708 301.137,113.189 301.794 M121.600 310.584 C 121.600 310.960,123.276 312.484,125.000 313.675 C 126.078 314.420,126.058 314.371,124.800 313.183 C 122.299 310.822,121.600 310.255,121.600 310.584 M275.996 312.471 C 274.788 313.578,274.340 314.115,275.000 313.665 C 276.708 312.499,278.559 310.826,278.360 310.627 C 278.267 310.534,277.203 311.364,275.996 312.471 M127.282 315.716 C 129.051 317.480,136.800 323.167,136.800 322.701 C 136.800 322.620,135.585 321.674,134.100 320.599 C 132.615 319.524,130.386 317.779,129.146 316.722 C 126.805 314.726,125.681 314.120,127.282 315.716 M270.556 316.927 C 269.212 318.067,267.502 319.485,266.756 320.079 C 266.010 320.672,265.516 321.167,265.659 321.179 C 265.992 321.206,271.425 317.011,272.678 315.759 C 274.355 314.081,273.088 314.779,270.556 316.927 M138.800 323.927 C 138.800 324.116,139.250 324.477,139.800 324.727 C 140.350 324.978,140.800 325.117,140.800 325.037 C 140.800 324.957,140.350 324.597,139.800 324.237 C 139.250 323.876,138.800 323.737,138.800 323.927 M260.000 324.420 L 259.000 325.222 260.100 324.747 C 260.705 324.485,261.200 324.120,261.200 323.936 C 261.200 323.479,261.145 323.502,260.000 324.420 M152.000 330.994 C 152.000 331.151,153.670 331.942,156.000 332.887 C 156.550 333.111,157.313 333.452,157.695 333.647 C 158.077 333.841,158.752 334.000,159.195 334.000 C 159.638 334.000,160.000 334.180,160.000 334.400 C 160.000 334.620,160.439 334.800,160.976 334.800 C 161.513 334.800,162.064 334.980,162.200 335.200 C 162.336 335.420,162.876 335.600,163.400 335.600 C 163.924 335.600,164.464 335.780,164.600 336.000 C 164.736 336.220,165.289 336.400,165.829 336.400 C 166.369 336.400,167.123 336.562,167.505 336.761 C 168.106 337.072,170.413 337.623,177.800 339.218 C 180.077 339.709,184.245 340.124,183.958 339.830 C 183.825 339.694,182.565 339.412,181.158 339.204 C 179.751 338.995,177.610 338.630,176.400 338.392 C 175.190 338.154,173.524 337.859,172.697 337.737 C 171.871 337.615,171.095 337.355,170.974 337.158 C 170.852 336.961,170.221 336.800,169.571 336.800 C 168.921 336.800,168.077 336.638,167.695 336.439 C 167.313 336.240,166.190 335.863,165.200 335.600 C 164.210 335.337,163.087 334.960,162.705 334.761 C 162.323 334.562,161.736 334.400,161.400 334.400 C 161.064 334.400,160.477 334.241,160.095 334.047 C 159.713 333.852,158.950 333.516,158.400 333.300 C 156.758 332.655,155.459 332.132,154.400 331.690 C 152.910 331.068,152.000 330.804,152.000 330.994 M246.654 331.402 C 246.024 331.731,245.257 332.000,244.949 332.000 C 244.641 332.000,244.077 332.159,243.695 332.353 C 243.313 332.548,242.460 332.929,241.800 333.200 C 241.140 333.471,240.287 333.852,239.905 334.047 C 239.523 334.241,238.936 334.400,238.600 334.400 C 238.264 334.400,237.677 334.562,237.295 334.761 C 236.913 334.960,235.790 335.340,234.800 335.607 C 233.810 335.873,232.640 336.237,232.200 336.415 C 231.760 336.594,230.860 336.853,230.200 336.991 C 229.540 337.130,228.190 337.422,227.200 337.640 C 224.105 338.322,221.493 338.811,218.842 339.204 C 217.435 339.412,216.175 339.694,216.042 339.830 C 215.740 340.138,219.919 339.694,222.600 339.132 C 229.197 337.752,234.304 336.476,235.295 335.961 C 235.677 335.762,236.341 335.600,236.771 335.600 C 237.201 335.600,237.664 335.420,237.800 335.200 C 237.936 334.980,238.399 334.800,238.829 334.800 C 239.259 334.800,239.923 334.641,240.305 334.447 C 240.687 334.252,241.495 333.892,242.100 333.647 C 242.705 333.401,243.695 332.999,244.300 332.753 C 244.905 332.508,245.713 332.148,246.095 331.953 C 246.477 331.759,247.062 331.600,247.395 331.600 C 247.728 331.600,248.000 331.420,248.000 331.200 C 248.000 330.694,248.019 330.691,246.654 331.402 M187.146 340.196 C 187.886 340.528,189.236 340.782,190.146 340.760 L 191.800 340.720 190.400 340.405 C 189.630 340.232,188.280 339.978,187.400 339.842 L 185.800 339.593 187.146 340.196 M210.800 340.200 C 208.624 340.705,208.617 340.711,210.200 340.741 C 211.080 340.758,212.250 340.514,212.800 340.200 C 213.984 339.523,213.719 339.523,210.800 340.200 " stroke="none" fill="#f4c434" fill-rule="evenodd"></path><path id="path4" d="M97.290 241.175 C 94.740 242.044,93.966 242.702,92.900 244.910 C 92.052 246.664,91.017 252.655,91.391 253.638 C 91.509 253.947,91.772 255.640,91.975 257.400 C 92.178 259.160,92.529 261.320,92.754 262.200 C 92.980 263.080,93.276 264.340,93.412 265.000 C 93.549 265.660,93.809 266.560,93.990 267.000 C 94.171 267.440,94.536 268.430,94.800 269.200 C 95.064 269.970,95.426 270.960,95.603 271.400 C 95.781 271.840,96.193 272.920,96.520 273.800 C 98.558 279.285,106.738 293.840,108.771 295.600 C 108.898 295.710,109.805 296.880,110.787 298.200 C 112.668 300.729,120.765 309.679,122.302 310.928 C 122.798 311.332,123.428 311.876,123.702 312.137 C 126.451 314.766,136.755 322.800,137.377 322.800 C 137.530 322.800,138.409 323.318,139.330 323.952 C 144.329 327.391,153.600 331.840,153.600 330.800 C 153.600 330.580,153.318 330.400,152.973 330.400 C 152.377 330.400,146.359 327.564,143.800 326.077 C 143.140 325.694,141.700 324.857,140.600 324.219 C 136.518 321.849,127.668 315.287,125.200 312.800 C 125.090 312.689,124.353 312.044,123.563 311.367 C 119.082 307.526,108.281 294.889,106.160 291.005 C 105.918 290.562,104.769 288.670,103.607 286.800 C 99.746 280.586,95.182 270.009,93.805 264.081 C 93.463 262.606,92.979 260.771,92.730 260.002 C 91.852 257.291,92.098 247.654,93.100 245.524 C 95.170 241.120,102.670 239.812,108.495 242.839 C 108.877 243.038,109.377 243.200,109.606 243.200 C 110.174 243.200,114.326 245.150,126.600 251.181 C 142.110 258.801,146.663 260.925,152.249 263.144 C 160.558 266.445,168.333 268.898,175.400 270.449 C 182.043 271.906,184.847 272.281,193.259 272.833 C 201.992 273.407,215.011 272.653,221.200 271.216 C 222.190 270.986,223.900 270.623,225.000 270.408 C 226.918 270.034,228.572 269.620,231.600 268.755 C 232.370 268.535,233.540 268.204,234.200 268.019 C 239.681 266.486,249.509 262.778,255.200 260.096 C 257.070 259.215,260.040 257.831,261.800 257.021 C 268.336 254.012,275.335 250.402,275.096 250.163 C 274.993 250.060,272.050 251.395,268.555 253.128 C 265.060 254.862,261.120 256.780,259.800 257.389 C 258.480 257.999,256.140 259.094,254.600 259.823 C 251.487 261.296,244.376 264.160,241.600 265.058 C 240.610 265.378,239.440 265.808,239.000 266.012 C 235.766 267.515,221.224 270.829,212.600 272.028 C 208.136 272.649,191.541 272.688,187.999 272.086 C 186.570 271.844,183.960 271.443,182.200 271.196 C 175.400 270.243,159.052 265.645,153.704 263.181 C 152.772 262.752,151.824 262.400,151.599 262.400 C 151.374 262.400,150.877 262.227,150.495 262.016 C 150.113 261.805,148.540 261.067,147.000 260.375 C 142.192 258.216,139.714 257.034,128.800 251.691 C 118.375 246.588,112.773 243.915,110.800 243.104 C 110.250 242.878,109.440 242.541,109.000 242.356 C 104.746 240.563,100.379 240.122,97.290 241.175 M296.000 240.890 C 292.831 241.813,289.706 242.898,288.200 243.598 C 281.834 246.556,275.557 249.690,275.703 249.836 C 275.799 249.932,278.560 248.730,281.839 247.164 C 292.495 242.075,294.450 241.429,299.200 241.432 C 303.847 241.436,305.413 242.238,306.877 245.365 C 309.875 251.765,306.088 269.809,299.125 282.300 C 296.993 286.123,296.065 287.644,293.081 292.200 C 289.517 297.643,280.907 307.511,275.979 311.801 C 271.910 315.344,266.971 319.325,264.922 320.715 C 258.076 325.358,248.333 330.542,246.937 330.284 C 246.365 330.179,246.138 330.294,246.265 330.626 C 246.371 330.902,246.071 331.250,245.599 331.400 C 245.126 331.550,244.837 331.770,244.956 331.889 C 245.074 332.008,245.853 331.787,246.686 331.398 C 253.235 328.342,257.932 325.873,260.020 324.386 C 260.627 323.954,261.321 323.600,261.562 323.600 C 261.803 323.600,262.000 323.420,262.000 323.200 C 262.000 322.980,262.225 322.799,262.500 322.799 C 263.098 322.797,269.559 317.987,273.187 314.843 C 274.610 313.609,276.304 312.150,276.952 311.600 C 279.771 309.205,286.358 302.014,289.044 298.400 C 290.106 296.970,291.085 295.710,291.220 295.600 C 292.534 294.525,298.849 283.998,301.212 278.943 C 303.841 273.319,303.858 273.280,304.457 271.400 C 304.737 270.520,305.077 269.620,305.211 269.400 C 305.549 268.848,306.467 265.544,307.601 260.800 C 310.927 246.884,305.775 238.042,296.000 240.890 M218.300 304.682 C 218.795 304.778,219.605 304.778,220.100 304.682 C 220.595 304.587,220.190 304.509,219.200 304.509 C 218.210 304.509,217.805 304.587,218.300 304.682 M167.800 336.400 C 167.936 336.620,168.442 336.787,168.924 336.772 C 169.769 336.745,169.771 336.731,169.000 336.400 C 167.899 335.927,167.508 335.927,167.800 336.400 M230.800 336.400 C 230.312 336.715,230.364 336.789,231.076 336.794 C 231.558 336.797,232.064 336.620,232.200 336.400 C 232.515 335.891,231.588 335.891,230.800 336.400 M228.000 337.200 C 227.467 337.545,227.467 337.588,228.000 337.588 C 228.330 337.588,228.870 337.413,229.200 337.200 C 229.733 336.855,229.733 336.812,229.200 336.812 C 228.870 336.812,228.330 336.987,228.000 337.200 M178.400 338.779 C 178.730 339.004,179.525 339.191,180.167 339.194 C 181.704 339.202,181.384 338.970,179.400 338.638 C 178.254 338.446,177.970 338.486,178.400 338.779 M219.800 338.800 L 218.600 339.105 219.800 339.147 C 220.460 339.169,221.270 339.013,221.600 338.800 C 222.343 338.320,221.687 338.320,219.800 338.800 M183.200 339.600 C 183.750 339.776,184.650 339.920,185.200 339.920 L 186.200 339.920 185.200 339.600 C 184.650 339.424,183.750 339.280,183.200 339.280 L 182.200 339.280 183.200 339.600 M214.600 339.600 L 213.400 339.905 214.600 339.913 C 215.260 339.917,216.250 339.776,216.800 339.600 L 217.800 339.280 216.800 339.287 C 216.250 339.291,215.260 339.432,214.600 339.600 M190.600 340.377 C 191.783 340.701,199.490 340.944,199.167 340.647 C 199.075 340.563,196.840 340.394,194.200 340.272 C 191.424 340.143,189.906 340.187,190.600 340.377 M203.400 340.400 C 200.672 340.652,200.704 340.659,204.600 340.682 C 206.800 340.695,209.140 340.568,209.800 340.400 C 211.312 340.015,207.564 340.015,203.400 340.400 " stroke="none" fill="#ae9842" fill-rule="evenodd"></path></g></svg>