<svg id="svg" version="1.1" xmlns="http://www.w3.org/2000/svg" xmlns:xlink="http://www.w3.org/1999/xlink" width="400" height="400" viewBox="0, 0, 400,400"><g id="svgg"><path id="path0" d="M131.734 132.775 C 123.351 134.112,114.509 140.153,110.994 146.943 C 110.669 147.572,110.062 148.742,109.646 149.543 C 109.230 150.344,108.672 151.810,108.406 152.800 C 108.140 153.790,107.748 154.931,107.536 155.335 C 107.033 156.291,107.033 167.309,107.536 168.265 C 107.748 168.669,108.140 169.810,108.407 170.800 C 108.902 172.640,109.627 174.442,110.016 174.800 C 110.136 174.910,110.529 175.625,110.891 176.388 C 115.925 187.026,132.395 193.961,143.800 190.245 C 144.900 189.887,146.377 189.406,147.082 189.177 C 150.180 188.172,153.875 185.676,157.193 182.350 C 177.019 162.472,159.494 128.346,131.734 132.775 M259.600 132.680 C 254.048 133.282,244.339 138.248,242.249 141.555 C 242.057 141.860,241.320 142.760,240.612 143.555 C 228.306 157.379,235.344 183.471,252.918 189.177 C 253.623 189.406,255.100 189.887,256.200 190.245 C 268.239 194.167,283.704 187.217,289.819 175.135 C 292.597 169.646,294.093 158.437,292.462 155.332 C 292.251 154.929,291.850 153.790,291.571 152.800 C 287.919 139.818,274.082 131.110,259.600 132.680 M120.000 258.673 C 109.763 259.792,107.664 274.297,117.112 278.631 L 119.224 279.600 199.912 279.594 C 288.195 279.587,282.277 279.752,285.292 277.221 C 291.182 272.276,290.132 263.433,283.200 259.596 L 281.400 258.600 201.400 258.560 C 157.400 258.538,120.770 258.589,120.000 258.673 " stroke="none" fill="#3d4544" fill-rule="evenodd"></path><path id="path1" d="M182.389 0.138 C 182.273 0.257,180.613 0.389,178.699 0.432 C 176.785 0.474,175.316 0.664,175.433 0.854 C 175.611 1.142,171.304 1.431,169.730 1.237 C 169.472 1.205,169.146 1.364,169.007 1.589 C 168.867 1.815,167.989 2.000,167.056 2.000 C 166.123 2.000,165.189 2.166,164.980 2.369 C 164.771 2.572,163.700 2.782,162.600 2.836 C 161.500 2.890,160.411 3.076,160.181 3.249 C 159.950 3.422,159.095 3.609,158.281 3.664 C 157.466 3.719,156.800 3.907,156.800 4.082 C 156.800 4.257,156.091 4.400,155.224 4.400 C 154.357 4.400,153.536 4.580,153.400 4.800 C 153.264 5.020,152.433 5.200,151.553 5.200 C 150.673 5.200,150.052 5.361,150.174 5.558 C 150.296 5.755,149.722 6.007,148.898 6.117 C 148.074 6.228,146.680 6.533,145.800 6.796 C 144.920 7.059,143.613 7.368,142.896 7.481 C 142.179 7.595,141.494 7.849,141.373 8.044 C 141.252 8.240,140.613 8.400,139.953 8.400 C 139.255 8.400,138.856 8.567,139.000 8.800 C 139.139 9.026,138.815 9.200,138.257 9.200 C 137.712 9.200,137.207 9.377,137.133 9.593 C 137.060 9.809,136.325 10.034,135.501 10.093 C 134.676 10.152,134.001 10.329,134.001 10.487 C 134.000 10.646,133.745 10.677,133.432 10.557 C 133.120 10.437,132.400 10.644,131.832 11.016 C 131.265 11.388,130.800 11.559,130.800 11.397 C 130.800 11.235,130.573 11.291,130.295 11.521 C 129.538 12.150,125.079 13.781,124.460 13.656 C 124.163 13.596,124.038 13.739,124.183 13.973 C 124.344 14.233,124.047 14.400,123.424 14.400 C 122.861 14.400,122.400 14.591,122.400 14.824 C 122.400 15.057,122.220 15.136,122.000 15.000 C 121.780 14.864,121.600 14.973,121.600 15.243 C 121.600 15.513,121.497 15.631,121.372 15.505 C 121.246 15.380,120.674 15.520,120.100 15.818 C 119.527 16.116,118.909 16.268,118.729 16.156 C 118.548 16.044,118.400 16.143,118.400 16.376 C 118.400 16.609,118.055 16.800,117.633 16.800 C 117.212 16.800,116.807 16.935,116.733 17.100 C 116.546 17.521,113.116 19.202,112.447 19.201 C 112.143 19.200,111.582 19.560,111.200 20.000 C 110.818 20.440,110.032 20.839,109.453 20.887 C 108.874 20.935,108.400 21.076,108.400 21.201 C 108.400 21.422,105.999 22.967,105.600 23.002 C 105.017 23.055,102.800 24.239,102.800 24.498 C 102.800 24.664,102.564 24.800,102.275 24.800 C 101.987 24.800,101.364 25.160,100.892 25.600 C 100.420 26.040,99.756 26.400,99.417 26.400 C 99.078 26.400,98.800 26.566,98.800 26.768 C 98.800 26.971,98.242 27.259,97.559 27.409 C 96.877 27.559,95.994 27.978,95.597 28.341 C 94.681 29.179,92.912 30.406,92.509 30.483 C 92.339 30.516,91.962 30.781,91.671 31.071 C 91.381 31.362,90.894 31.600,90.590 31.600 C 90.285 31.600,89.577 32.060,89.015 32.622 C 88.450 33.186,87.788 33.516,87.535 33.360 C 87.252 33.185,87.186 33.253,87.362 33.538 C 87.531 33.812,87.393 34.000,87.024 34.000 C 86.681 34.000,86.400 34.136,86.400 34.302 C 86.400 34.469,85.859 34.844,85.198 35.137 C 84.536 35.430,84.078 35.803,84.180 35.967 C 84.281 36.131,83.750 36.506,83.000 36.800 C 82.250 37.094,81.729 37.485,81.842 37.668 C 81.955 37.850,81.756 38.000,81.400 38.000 C 81.044 38.000,80.864 38.180,81.000 38.400 C 81.136 38.620,80.903 38.800,80.482 38.800 C 80.061 38.800,79.285 39.313,78.758 39.941 C 78.231 40.568,77.393 41.295,76.896 41.557 C 76.398 41.819,75.362 42.611,74.592 43.316 C 73.823 44.022,73.028 44.600,72.825 44.600 C 72.623 44.600,72.129 44.917,71.728 45.303 C 68.696 48.231,65.374 51.200,65.130 51.200 C 64.656 51.200,62.863 53.130,63.109 53.376 C 63.232 53.499,63.023 53.600,62.643 53.600 C 62.263 53.600,62.030 53.735,62.123 53.900 C 62.351 54.300,54.158 62.425,53.844 62.111 C 53.710 61.977,53.600 62.197,53.600 62.600 C 53.600 63.003,53.499 63.232,53.376 63.109 C 53.130 62.863,51.200 64.656,51.200 65.130 C 51.200 65.374,48.231 68.696,45.303 71.728 C 44.917 72.129,44.600 72.623,44.600 72.825 C 44.600 73.028,44.022 73.823,43.316 74.592 C 42.611 75.362,41.819 76.398,41.557 76.896 C 41.295 77.393,40.568 78.231,39.941 78.758 C 39.313 79.285,38.800 80.061,38.800 80.482 C 38.800 80.903,38.620 81.136,38.400 81.000 C 38.180 80.864,38.000 81.044,38.000 81.400 C 38.000 81.756,37.850 81.955,37.668 81.842 C 37.485 81.729,37.094 82.250,36.800 83.000 C 36.506 83.750,36.131 84.281,35.967 84.180 C 35.803 84.078,35.430 84.536,35.137 85.198 C 34.844 85.859,34.469 86.400,34.302 86.400 C 34.136 86.400,34.000 86.681,34.000 87.024 C 34.000 87.393,33.812 87.531,33.538 87.362 C 33.253 87.186,33.185 87.252,33.360 87.535 C 33.516 87.788,33.186 88.450,32.622 89.015 C 32.060 89.577,31.600 90.285,31.600 90.590 C 31.600 90.894,31.324 91.419,30.986 91.757 C 30.648 92.095,30.383 92.472,30.398 92.595 C 30.430 92.871,29.226 94.629,28.341 95.597 C 27.978 95.994,27.559 96.877,27.409 97.559 C 27.259 98.242,26.971 98.800,26.768 98.800 C 26.566 98.800,26.400 99.078,26.400 99.417 C 26.400 99.756,26.040 100.420,25.600 100.892 C 25.160 101.364,24.800 101.987,24.800 102.275 C 24.800 102.564,24.664 102.800,24.498 102.800 C 24.239 102.800,23.055 105.017,23.002 105.600 C 22.967 105.999,21.422 108.400,21.201 108.400 C 21.076 108.400,20.935 108.874,20.887 109.453 C 20.839 110.032,20.440 110.818,20.000 111.200 C 19.560 111.582,19.200 112.143,19.201 112.447 C 19.202 113.116,17.521 116.546,17.100 116.733 C 16.935 116.807,16.800 117.212,16.800 117.633 C 16.800 118.055,16.609 118.400,16.376 118.400 C 16.143 118.400,16.044 118.548,16.156 118.729 C 16.268 118.909,16.116 119.527,15.818 120.100 C 15.520 120.674,15.380 121.246,15.505 121.372 C 15.631 121.497,15.513 121.600,15.243 121.600 C 14.973 121.600,14.864 121.780,15.000 122.000 C 15.136 122.220,15.057 122.400,14.824 122.400 C 14.591 122.400,14.400 122.861,14.400 123.424 C 14.400 124.047,14.233 124.344,13.973 124.183 C 13.739 124.038,13.596 124.163,13.656 124.460 C 13.781 125.079,12.150 129.538,11.521 130.295 C 11.291 130.573,11.235 130.800,11.397 130.800 C 11.559 130.800,11.388 131.265,11.016 131.832 C 10.644 132.400,10.437 133.120,10.557 133.432 C 10.677 133.745,10.646 134.000,10.487 134.001 C 10.329 134.001,10.152 134.676,10.093 135.501 C 10.034 136.325,9.809 137.060,9.593 137.133 C 9.377 137.207,9.200 137.712,9.200 138.257 C 9.200 138.815,9.026 139.139,8.800 139.000 C 8.567 138.856,8.400 139.255,8.400 139.953 C 8.400 140.613,8.240 141.252,8.044 141.373 C 7.849 141.494,7.595 142.179,7.481 142.896 C 7.368 143.613,7.059 144.920,6.796 145.800 C 6.533 146.680,6.228 148.074,6.117 148.898 C 6.007 149.722,5.755 150.296,5.558 150.174 C 5.361 150.052,5.200 150.673,5.200 151.553 C 5.200 152.433,5.020 153.264,4.800 153.400 C 4.580 153.536,4.400 154.357,4.400 155.224 C 4.400 156.091,4.257 156.800,4.082 156.800 C 3.907 156.800,3.719 157.466,3.664 158.281 C 3.609 159.095,3.422 159.950,3.249 160.181 C 3.076 160.411,2.890 161.500,2.836 162.600 C 2.782 163.700,2.572 164.771,2.369 164.980 C 2.166 165.189,2.000 166.123,2.000 167.056 C 2.000 167.989,1.815 168.867,1.589 169.007 C 1.364 169.146,1.205 169.472,1.237 169.730 C 1.431 171.304,1.142 175.611,0.854 175.433 C 0.338 175.115,0.200 180.314,0.200 200.000 C 0.200 218.985,0.363 224.870,0.878 224.552 C 1.137 224.392,1.433 228.524,1.247 229.700 C 1.221 229.865,1.341 230.000,1.514 230.000 C 1.687 230.000,1.842 230.315,1.859 230.700 C 2.010 234.151,2.191 235.529,2.471 235.356 C 2.652 235.244,2.800 236.063,2.800 237.176 C 2.800 238.289,2.945 239.200,3.122 239.200 C 3.299 239.200,3.488 239.965,3.543 240.900 C 3.598 241.835,3.813 242.771,4.021 242.980 C 4.230 243.189,4.400 244.029,4.400 244.847 C 4.400 245.664,4.570 246.393,4.779 246.467 C 4.987 246.540,5.200 247.445,5.252 248.478 C 5.304 249.511,5.475 250.278,5.630 250.181 C 5.897 250.017,6.124 250.974,6.657 254.500 C 6.782 255.325,7.045 256.000,7.242 256.000 C 7.439 256.000,7.600 256.450,7.600 257.000 C 7.600 257.550,7.741 258.000,7.913 258.000 C 8.085 258.000,8.266 258.495,8.316 259.100 C 8.365 259.705,8.684 260.787,9.024 261.504 C 9.364 262.222,9.532 262.987,9.397 263.204 C 9.263 263.422,9.343 263.600,9.576 263.600 C 9.809 263.600,10.000 263.949,10.000 264.376 C 10.000 264.803,10.150 265.246,10.334 265.359 C 10.518 265.473,10.637 265.979,10.598 266.483 C 10.558 266.987,10.873 268.069,11.297 268.887 C 11.720 269.704,12.112 270.604,12.167 270.887 C 12.290 271.517,13.101 273.438,13.845 274.862 C 14.150 275.446,14.400 276.301,14.400 276.762 C 14.400 277.223,14.610 277.600,14.867 277.600 C 15.123 277.600,15.218 277.715,15.077 277.856 C 14.936 277.997,15.074 278.582,15.382 279.156 C 15.691 279.730,16.180 280.785,16.469 281.500 C 16.759 282.215,17.131 282.800,17.298 282.800 C 17.464 282.800,17.600 283.162,17.600 283.605 C 17.600 284.048,17.763 284.723,17.963 285.105 C 18.163 285.487,18.764 286.743,19.300 287.896 C 19.836 289.049,20.392 289.874,20.537 289.730 C 20.759 289.508,20.874 290.144,20.773 291.036 C 20.759 291.166,21.059 291.501,21.440 291.780 C 21.822 292.059,22.195 292.686,22.269 293.175 C 22.344 293.663,22.943 294.846,23.602 295.803 C 24.261 296.761,24.800 297.737,24.800 297.972 C 24.800 298.207,24.980 298.400,25.200 298.400 C 25.420 298.400,25.600 298.861,25.600 299.424 C 25.600 300.004,25.773 300.340,26.000 300.200 C 26.220 300.064,26.400 300.233,26.400 300.576 C 26.400 300.919,26.580 301.200,26.800 301.200 C 27.020 301.200,27.200 301.549,27.200 301.976 C 27.200 302.403,27.383 302.866,27.607 303.004 C 27.830 303.142,27.909 303.423,27.783 303.628 C 27.656 303.832,27.753 304.000,27.997 304.000 C 28.242 304.000,28.631 304.544,28.863 305.208 C 29.095 305.873,29.641 306.608,30.076 306.841 C 30.512 307.074,30.769 307.364,30.647 307.486 C 30.526 307.608,30.778 308.154,31.208 308.701 C 31.637 309.247,31.874 309.881,31.733 310.109 C 31.584 310.349,31.671 310.403,31.938 310.238 C 32.212 310.069,32.400 310.207,32.400 310.576 C 32.400 310.919,32.558 311.200,32.751 311.200 C 32.945 311.200,33.327 311.740,33.600 312.400 C 33.873 313.060,34.243 313.600,34.422 313.600 C 34.600 313.600,34.860 313.959,34.999 314.398 C 35.138 314.836,35.472 315.421,35.739 315.698 C 36.007 315.974,36.666 316.830,37.202 317.600 C 38.508 319.473,38.783 319.816,40.300 321.460 C 41.015 322.235,41.600 323.001,41.600 323.162 C 41.600 323.323,42.230 324.162,43.000 325.027 C 43.770 325.892,44.400 326.836,44.400 327.124 C 44.400 327.412,44.583 327.534,44.807 327.396 C 45.030 327.258,45.100 326.962,44.962 326.739 C 44.439 325.892,47.205 327.685,52.874 331.867 C 63.579 339.763,80.567 349.447,91.000 353.600 C 91.440 353.775,92.430 354.192,93.200 354.526 C 98.881 356.994,104.749 359.048,114.800 362.088 C 115.570 362.321,116.650 362.649,117.200 362.818 C 118.214 363.128,120.811 363.752,123.900 364.428 C 124.835 364.633,126.365 364.967,127.300 365.172 C 128.235 365.377,129.810 365.730,130.800 365.958 C 133.599 366.602,136.677 367.120,140.600 367.607 C 142.580 367.853,145.280 368.219,146.600 368.422 C 157.796 370.135,180.072 370.107,194.400 368.360 C 277.097 358.280,346.106 296.347,364.612 215.600 C 366.055 209.307,365.972 209.735,367.342 201.400 C 370.033 185.021,370.520 160.307,368.422 146.600 C 368.219 145.280,367.853 142.580,367.607 140.600 C 367.130 136.758,366.610 133.650,365.986 130.900 C 365.774 129.965,365.420 128.390,365.200 127.400 C 363.687 120.591,363.144 118.268,362.818 117.200 C 362.649 116.650,362.321 115.570,362.088 114.800 C 359.048 104.749,356.994 98.881,354.526 93.200 C 354.192 92.430,353.775 91.440,353.600 91.000 C 349.447 80.567,339.763 63.579,331.867 52.874 C 327.685 47.205,325.892 44.439,326.739 44.962 C 326.962 45.100,327.258 45.030,327.396 44.807 C 327.534 44.583,327.412 44.400,327.124 44.400 C 326.836 44.400,325.892 43.770,325.027 43.000 C 324.162 42.230,323.323 41.600,323.162 41.600 C 323.001 41.600,322.235 41.015,321.460 40.300 C 319.816 38.783,319.473 38.508,317.600 37.202 C 316.830 36.666,315.974 36.007,315.698 35.739 C 315.421 35.472,314.836 35.138,314.398 34.999 C 313.959 34.860,313.600 34.600,313.600 34.422 C 313.600 34.243,313.060 33.873,312.400 33.600 C 311.740 33.327,311.200 32.945,311.200 32.751 C 311.200 32.558,310.919 32.400,310.576 32.400 C 310.207 32.400,310.069 32.212,310.238 31.938 C 310.403 31.671,310.349 31.584,310.109 31.733 C 309.881 31.874,309.247 31.637,308.701 31.208 C 308.154 30.778,307.608 30.526,307.486 30.647 C 307.364 30.769,307.074 30.512,306.841 30.076 C 306.608 29.641,305.873 29.095,305.208 28.863 C 304.544 28.631,304.000 28.242,304.000 27.997 C 304.000 27.753,303.832 27.656,303.628 27.783 C 303.423 27.909,303.142 27.830,303.004 27.607 C 302.866 27.383,302.403 27.200,301.976 27.200 C 301.549 27.200,301.200 27.020,301.200 26.800 C 301.200 26.580,300.919 26.400,300.576 26.400 C 300.233 26.400,300.064 26.220,300.200 26.000 C 300.340 25.773,300.004 25.600,299.424 25.600 C 298.861 25.600,298.400 25.420,298.400 25.200 C 298.400 24.980,298.207 24.800,297.972 24.800 C 297.737 24.800,296.761 24.261,295.803 23.602 C 294.846 22.943,293.663 22.344,293.175 22.269 C 292.686 22.195,292.035 21.788,291.726 21.367 C 291.418 20.945,291.083 20.645,290.983 20.700 C 290.575 20.923,289.485 20.781,289.730 20.537 C 289.874 20.392,289.049 19.836,287.896 19.300 C 286.743 18.764,285.487 18.163,285.105 17.963 C 284.723 17.763,284.048 17.600,283.605 17.600 C 283.162 17.600,282.800 17.464,282.800 17.298 C 282.800 17.131,282.215 16.759,281.500 16.469 C 280.785 16.180,279.730 15.691,279.156 15.382 C 278.582 15.074,277.997 14.936,277.856 15.077 C 277.715 15.218,277.600 15.123,277.600 14.867 C 277.600 14.610,277.223 14.400,276.762 14.400 C 276.301 14.400,275.446 14.150,274.862 13.845 C 273.438 13.101,271.517 12.290,270.887 12.167 C 270.604 12.112,269.704 11.720,268.887 11.297 C 268.069 10.873,266.987 10.558,266.483 10.598 C 265.979 10.637,265.473 10.518,265.359 10.334 C 265.246 10.150,264.803 10.000,264.376 10.000 C 263.949 10.000,263.600 9.809,263.600 9.576 C 263.600 9.343,263.422 9.263,263.204 9.397 C 262.987 9.532,262.222 9.364,261.504 9.024 C 260.787 8.684,259.705 8.365,259.100 8.316 C 258.495 8.266,258.000 8.085,258.000 7.913 C 258.000 7.741,257.550 7.600,257.000 7.600 C 256.450 7.600,256.000 7.439,256.000 7.242 C 256.000 7.045,255.325 6.782,254.500 6.657 C 250.974 6.124,250.017 5.897,250.181 5.630 C 250.278 5.475,249.511 5.304,248.478 5.252 C 247.445 5.200,246.540 4.987,246.467 4.779 C 246.393 4.570,245.664 4.400,244.847 4.400 C 244.029 4.400,243.189 4.230,242.980 4.021 C 242.771 3.813,241.835 3.598,240.900 3.543 C 239.965 3.488,239.200 3.299,239.200 3.122 C 239.200 2.945,238.289 2.800,237.176 2.800 C 236.063 2.800,235.244 2.652,235.356 2.471 C 235.529 2.191,234.151 2.010,230.700 1.859 C 230.315 1.842,230.000 1.687,230.000 1.514 C 230.000 1.341,229.865 1.221,229.700 1.247 C 228.542 1.430,224.391 1.139,224.547 0.886 C 224.871 0.361,182.895 -0.384,182.389 0.138 M359.600 78.800 C 359.600 79.020,359.780 79.200,360.000 79.200 C 360.220 79.200,360.400 79.470,360.400 79.800 C 360.400 80.130,360.576 80.400,360.791 80.400 C 361.030 80.400,361.004 80.008,360.727 79.400 C 360.272 78.401,359.600 78.044,359.600 78.800 M370.412 94.100 C 370.406 94.485,370.591 94.800,370.824 94.800 C 371.057 94.800,371.136 94.980,371.000 95.200 C 370.864 95.420,370.943 95.600,371.176 95.600 C 371.409 95.600,371.600 95.859,371.600 96.176 C 371.600 96.493,371.780 96.864,372.000 97.000 C 372.664 97.410,372.451 96.690,371.410 95.000 C 370.799 94.008,370.420 93.666,370.412 94.100 M144.189 132.442 C 147.076 133.308,152.096 135.561,152.333 136.098 C 152.407 136.264,152.630 136.400,152.829 136.400 C 154.439 136.400,161.755 144.486,163.232 147.900 C 163.542 148.615,163.931 149.200,164.098 149.200 C 164.264 149.200,164.400 149.639,164.400 150.176 C 164.400 150.713,164.580 151.264,164.800 151.400 C 165.020 151.536,165.200 152.051,165.200 152.544 C 165.200 153.037,165.362 153.611,165.559 153.820 C 166.796 155.129,166.841 166.839,165.621 169.800 C 165.440 170.240,165.053 171.410,164.762 172.400 C 164.472 173.390,164.136 174.290,164.016 174.400 C 163.897 174.510,163.535 175.140,163.212 175.800 C 160.458 181.429,150.922 190.000,147.413 190.000 C 147.070 190.000,146.477 190.158,146.095 190.351 C 144.515 191.149,142.411 191.600,140.266 191.600 C 139.014 191.600,137.632 191.823,137.195 192.096 C 136.562 192.491,136.238 192.491,135.605 192.096 C 135.168 191.823,133.559 191.600,132.029 191.600 C 130.499 191.600,129.136 191.420,129.000 191.200 C 128.864 190.980,128.324 190.800,127.800 190.800 C 127.276 190.800,126.736 190.620,126.600 190.400 C 126.464 190.180,125.981 190.000,125.526 190.000 C 122.105 190.000,112.381 181.819,110.351 177.234 C 110.051 176.555,109.669 176.000,109.502 176.000 C 109.336 176.000,109.200 175.640,109.200 175.200 C 109.200 174.760,109.020 174.400,108.800 174.400 C 108.580 174.400,108.400 173.961,108.400 173.424 C 108.400 172.887,108.220 172.336,108.000 172.200 C 107.780 172.064,107.600 171.549,107.600 171.056 C 107.600 170.563,107.438 169.989,107.241 169.780 C 106.406 168.897,105.654 158.586,106.371 157.869 C 106.607 157.633,106.800 156.677,106.800 155.744 C 106.800 154.811,106.980 153.936,107.200 153.800 C 107.420 153.664,107.600 153.124,107.600 152.600 C 107.600 152.076,107.780 151.536,108.000 151.400 C 108.220 151.264,108.400 150.713,108.400 150.176 C 108.400 149.639,108.536 149.200,108.702 149.200 C 108.869 149.200,109.257 148.615,109.565 147.900 C 114.676 136.048,131.361 128.599,144.189 132.442 M271.547 132.459 C 274.435 133.394,279.731 135.805,280.512 136.541 C 280.780 136.793,281.702 137.524,282.559 138.165 C 285.251 140.178,289.986 145.757,290.009 146.944 C 290.014 147.195,290.370 147.850,290.800 148.400 C 291.230 148.950,291.586 149.794,291.591 150.276 C 291.596 150.758,291.780 151.264,292.000 151.400 C 292.220 151.536,292.400 152.051,292.400 152.544 C 292.400 153.037,292.563 153.611,292.761 153.820 C 293.558 154.658,294.316 165.044,293.630 165.730 C 293.393 165.967,293.200 166.923,293.200 167.856 C 293.200 168.789,293.020 169.664,292.800 169.800 C 292.580 169.936,292.400 170.476,292.400 171.000 C 292.400 171.524,292.220 172.064,292.000 172.200 C 291.780 172.336,291.600 172.761,291.600 173.144 C 291.600 174.019,290.701 175.993,290.300 175.997 C 290.135 175.999,290.000 176.250,290.000 176.556 C 290.000 177.186,287.110 181.191,285.349 183.000 C 280.573 187.909,272.965 191.600,267.624 191.600 C 266.285 191.600,264.832 191.823,264.395 192.096 C 263.762 192.491,263.438 192.491,262.805 192.096 C 262.368 191.823,260.986 191.600,259.734 191.600 C 257.589 191.600,255.485 191.149,253.905 190.351 C 253.523 190.158,252.930 190.000,252.587 190.000 C 251.057 190.000,245.567 186.434,242.279 183.305 C 240.595 181.702,238.325 178.726,237.372 176.871 C 236.730 175.622,236.106 174.510,235.985 174.400 C 235.865 174.290,235.528 173.390,235.238 172.400 C 234.947 171.410,234.564 170.240,234.386 169.800 C 233.733 168.180,233.440 165.702,233.440 161.800 C 233.440 157.898,233.733 155.420,234.386 153.800 C 234.564 153.360,234.947 152.190,235.238 151.200 C 235.528 150.210,235.864 149.310,235.984 149.200 C 236.103 149.090,236.465 148.460,236.788 147.800 C 238.459 144.385,245.633 136.400,247.031 136.400 C 247.307 136.400,247.593 136.264,247.667 136.098 C 247.889 135.595,252.834 133.336,255.600 132.474 C 259.456 131.273,267.861 131.265,271.547 132.459 M394.000 150.400 C 394.000 150.840,394.169 151.200,394.375 151.200 C 394.581 151.200,394.723 150.840,394.690 150.400 C 394.657 149.960,394.488 149.600,394.315 149.600 C 394.142 149.600,394.000 149.960,394.000 150.400 M396.509 160.791 C 396.543 161.236,396.712 161.600,396.885 161.600 C 397.327 161.600,397.279 160.496,396.824 160.215 C 396.618 160.087,396.476 160.347,396.509 160.791 M398.012 169.780 C 398.003 170.641,398.120 170.840,398.441 170.519 C 398.758 170.202,398.761 169.868,398.454 169.339 C 398.077 168.691,398.023 168.746,398.012 169.780 M281.200 258.000 C 281.200 258.220,281.740 258.400,282.400 258.400 C 283.060 258.400,283.600 258.536,283.600 258.702 C 283.600 258.869,284.152 259.249,284.826 259.548 C 290.506 262.061,291.745 273.009,286.822 277.164 C 286.407 277.514,285.690 278.115,285.229 278.500 C 284.768 278.885,284.123 279.200,283.795 279.200 C 283.468 279.200,283.200 279.360,283.200 279.556 C 283.200 280.580,120.860 281.420,119.842 280.402 C 119.621 280.181,119.043 280.000,118.558 280.000 C 116.359 280.000,112.785 277.244,111.456 274.523 C 111.046 273.686,110.551 272.687,110.356 272.305 C 108.684 269.041,111.407 261.625,115.000 259.657 C 115.660 259.296,116.260 258.865,116.333 258.700 C 116.407 258.535,116.992 258.400,117.633 258.400 C 118.275 258.400,118.800 258.220,118.800 258.000 C 118.800 257.735,146.133 257.600,200.000 257.600 C 253.867 257.600,281.200 257.735,281.200 258.000 M381.406 285.488 L 380.704 286.600 381.630 285.711 C 382.139 285.222,382.455 284.722,382.332 284.599 C 382.209 284.476,381.792 284.876,381.406 285.488 M160.215 396.824 C 160.496 397.279,161.600 397.327,161.600 396.885 C 161.600 396.712,161.236 396.543,160.791 396.509 C 160.347 396.476,160.087 396.618,160.215 396.824 M169.339 398.454 C 169.868 398.761,170.202 398.758,170.519 398.441 C 170.840 398.120,170.641 398.003,169.780 398.012 C 168.746 398.023,168.691 398.077,169.339 398.454 " stroke="none" fill="#fbdb3c" fill-rule="evenodd"></path><path id="path2" d="M326.969 45.923 C 327.279 46.515,329.483 49.643,331.867 52.874 C 339.763 63.579,349.447 80.567,353.600 91.000 C 353.775 91.440,354.192 92.430,354.526 93.200 C 356.994 98.881,359.048 104.749,362.088 114.800 C 362.321 115.570,362.649 116.650,362.818 117.200 C 363.135 118.237,363.804 121.029,364.400 123.800 C 364.733 125.349,365.182 127.359,365.986 130.900 C 366.610 133.650,367.130 136.758,367.607 140.600 C 367.853 142.580,368.219 145.280,368.422 146.600 C 370.520 160.307,370.033 185.021,367.342 201.400 C 365.972 209.735,366.055 209.307,364.612 215.600 C 347.821 288.863,288.526 347.967,215.000 364.729 C 210.176 365.829,204.582 366.909,200.400 367.548 C 190.143 369.116,182.624 369.649,170.738 369.651 C 160.303 369.652,151.816 369.220,146.600 368.422 C 145.280 368.219,142.580 367.853,140.600 367.607 C 136.758 367.130,133.650 366.610,130.900 365.986 C 129.965 365.774,128.390 365.420,127.400 365.200 C 126.410 364.980,124.790 364.620,123.800 364.400 C 119.158 363.368,117.163 362.853,114.400 361.969 C 113.850 361.793,110.970 360.896,108.000 359.976 C 103.224 358.496,97.420 356.359,93.200 354.526 C 92.430 354.192,91.440 353.775,91.000 353.600 C 80.567 349.447,63.579 339.763,52.874 331.867 C 45.762 326.620,44.777 326.041,45.008 327.244 C 45.098 327.706,45.762 328.711,46.485 329.477 C 47.208 330.243,48.205 331.296,48.700 331.817 C 49.195 332.338,49.600 332.952,49.600 333.182 C 49.600 333.412,49.780 333.600,50.000 333.600 C 50.220 333.600,50.400 333.849,50.400 334.153 C 50.400 334.458,50.760 334.801,51.200 334.916 C 51.640 335.031,52.000 335.400,52.000 335.736 C 52.000 336.071,52.315 336.452,52.700 336.581 C 53.085 336.711,53.850 337.425,54.400 338.169 C 54.950 338.913,55.508 339.455,55.640 339.374 C 55.772 339.294,56.117 339.671,56.407 340.214 C 56.698 340.756,57.117 341.200,57.339 341.200 C 57.852 341.200,60.400 343.961,60.400 344.517 C 60.400 344.746,60.517 344.816,60.660 344.673 C 60.923 344.410,62.106 345.566,63.188 347.143 C 63.512 347.614,64.107 348.000,64.512 348.000 C 64.916 348.000,65.143 348.169,65.015 348.376 C 64.887 348.583,65.069 348.988,65.419 349.276 C 65.770 349.564,66.354 350.115,66.717 350.500 C 67.080 350.885,67.542 351.200,67.742 351.200 C 67.942 351.200,68.397 351.527,68.753 351.928 C 69.109 352.328,69.715 352.772,70.100 352.915 C 70.485 353.058,70.800 353.451,70.800 353.787 C 70.800 354.124,70.935 354.358,71.100 354.307 C 71.407 354.212,72.590 355.114,74.208 356.676 C 74.707 357.157,75.224 357.442,75.358 357.309 C 75.491 357.176,75.600 357.277,75.600 357.533 C 75.600 357.790,75.830 358.000,76.112 358.000 C 76.393 358.000,76.876 358.350,77.185 358.779 C 77.493 359.207,77.894 359.465,78.076 359.353 C 78.257 359.241,78.514 359.431,78.646 359.775 C 78.778 360.119,79.271 360.403,79.743 360.406 C 80.443 360.411,80.490 360.483,80.000 360.800 C 79.423 361.173,80.210 361.432,81.330 361.237 C 81.511 361.206,81.554 361.351,81.425 361.560 C 81.296 361.768,81.778 362.352,82.495 362.856 C 83.213 363.361,84.038 364.005,84.329 364.287 C 84.619 364.569,85.016 364.800,85.210 364.800 C 85.405 364.800,85.985 365.221,86.500 365.736 C 87.014 366.251,87.923 366.794,88.518 366.944 C 89.113 367.093,89.600 367.482,89.600 367.808 C 89.600 368.133,89.960 368.400,90.400 368.400 C 90.840 368.400,91.200 368.591,91.200 368.824 C 91.200 369.057,91.380 369.136,91.600 369.000 C 91.820 368.864,92.000 368.949,92.000 369.189 C 92.000 369.429,92.315 369.739,92.700 369.878 C 93.085 370.017,93.894 370.472,94.497 370.890 C 95.101 371.308,95.780 371.536,96.007 371.396 C 96.234 371.255,96.370 371.375,96.310 371.661 C 96.249 371.947,96.605 372.243,97.100 372.318 C 97.595 372.394,98.000 372.653,98.000 372.894 C 98.000 373.136,98.116 373.217,98.258 373.076 C 98.399 372.934,99.125 373.354,99.871 374.009 C 100.617 374.664,101.571 375.200,101.990 375.200 C 102.410 375.200,102.864 375.380,103.000 375.600 C 103.136 375.820,103.607 376.000,104.047 376.000 C 104.487 376.000,104.736 376.180,104.600 376.400 C 104.381 376.755,105.222 376.995,106.130 376.837 C 106.311 376.806,106.362 376.938,106.243 377.130 C 106.125 377.322,106.516 377.731,107.114 378.039 C 107.711 378.347,108.332 378.779,108.494 378.999 C 108.656 379.220,108.791 379.259,108.794 379.087 C 108.797 378.915,109.616 379.230,110.614 379.787 C 111.612 380.344,112.767 380.800,113.181 380.800 C 113.595 380.800,113.996 380.988,114.073 381.218 C 114.149 381.448,114.602 381.665,115.078 381.701 C 115.555 381.737,115.873 381.882,115.786 382.023 C 115.698 382.165,116.335 382.514,117.200 382.800 C 118.065 383.086,118.679 383.472,118.563 383.660 C 118.376 383.962,120.044 384.156,120.628 383.900 C 120.754 383.845,121.028 384.108,121.239 384.483 C 121.449 384.859,121.868 385.072,122.170 384.956 C 122.472 384.840,122.838 384.938,122.983 385.173 C 123.128 385.408,123.642 385.603,124.124 385.606 C 124.765 385.611,124.855 385.704,124.459 385.955 C 124.071 386.201,124.269 386.368,125.159 386.549 C 125.842 386.687,126.940 386.910,127.600 387.045 C 128.260 387.180,128.800 387.406,128.800 387.548 C 128.800 387.689,129.385 388.044,130.100 388.336 C 130.815 388.628,131.805 389.062,132.299 389.301 C 132.794 389.539,133.318 389.616,133.463 389.471 C 133.608 389.326,133.986 389.422,134.304 389.686 C 134.877 390.162,135.471 390.340,137.000 390.492 C 137.440 390.535,138.038 390.803,138.329 391.086 C 138.619 391.368,139.474 391.600,140.229 391.600 C 140.983 391.600,141.600 391.780,141.600 392.000 C 141.600 392.220,142.129 392.400,142.776 392.400 C 143.423 392.400,144.064 392.580,144.200 392.800 C 144.336 393.020,145.052 393.200,145.790 393.200 C 146.529 393.200,147.224 393.425,147.335 393.700 C 147.492 394.089,147.544 394.090,147.568 393.707 C 147.590 393.368,148.048 393.465,149.030 394.017 C 149.816 394.458,150.345 394.635,150.206 394.410 C 149.876 393.876,150.201 393.892,151.305 394.462 C 153.008 395.343,153.409 395.450,155.399 395.561 C 156.498 395.622,157.492 395.826,157.608 396.013 C 157.724 396.200,158.669 396.398,159.709 396.452 C 160.749 396.505,161.600 396.696,161.600 396.875 C 161.600 397.054,162.230 397.200,163.000 397.200 C 163.770 397.200,164.400 397.380,164.400 397.600 C 164.400 397.834,165.741 398.000,167.624 398.000 C 169.671 398.000,170.757 398.146,170.600 398.400 C 170.464 398.620,170.528 398.800,170.743 398.800 C 170.958 398.800,171.224 398.575,171.335 398.300 C 171.496 397.900,171.543 397.900,171.568 398.300 C 171.588 398.607,172.188 398.800,173.120 398.800 C 173.956 398.800,174.837 398.997,175.077 399.237 C 175.392 399.552,175.741 399.553,176.325 399.240 C 176.932 398.915,177.177 398.931,177.301 399.303 C 177.430 399.689,181.872 399.809,197.233 399.840 C 219.878 399.886,224.143 399.762,223.729 399.070 C 223.529 398.737,223.623 398.743,224.053 399.090 C 224.428 399.394,224.801 399.439,225.032 399.208 C 225.382 398.858,227.044 398.637,233.100 398.138 C 234.475 398.025,235.600 397.767,235.600 397.566 C 235.600 397.365,236.104 397.200,236.720 397.200 C 237.336 397.200,238.082 396.975,238.379 396.700 C 238.810 396.300,238.861 396.300,238.635 396.700 C 238.480 396.975,238.543 397.200,238.776 397.200 C 239.009 397.200,239.200 397.058,239.200 396.885 C 239.200 396.712,239.773 396.527,240.473 396.473 C 241.174 396.420,242.018 396.156,242.350 395.888 C 242.828 395.502,242.891 395.504,242.653 395.900 C 242.488 396.175,242.543 396.400,242.776 396.400 C 243.009 396.400,243.200 396.220,243.200 396.000 C 243.200 395.780,243.841 395.600,244.624 395.600 C 245.656 395.600,245.965 395.463,245.747 395.100 C 245.520 394.722,245.602 394.726,246.084 395.117 C 246.440 395.405,246.784 395.465,246.861 395.254 C 246.937 395.045,247.630 394.816,248.400 394.746 C 249.170 394.675,249.904 394.474,250.030 394.298 C 250.157 394.122,250.831 393.939,251.529 393.889 C 252.227 393.840,252.799 393.665,252.799 393.500 C 252.800 393.335,253.214 393.200,253.720 393.200 C 254.226 393.200,254.882 392.975,255.179 392.700 C 255.616 392.294,255.658 392.312,255.400 392.800 C 255.142 393.288,255.184 393.306,255.621 392.900 C 255.918 392.625,256.576 392.400,257.085 392.400 C 257.594 392.400,258.323 392.244,258.705 392.054 C 260.032 391.392,262.119 390.826,262.459 391.036 C 262.646 391.152,262.800 391.087,262.800 390.890 C 262.800 390.694,263.025 390.514,263.300 390.490 C 263.575 390.466,264.070 390.374,264.400 390.286 C 264.730 390.198,265.540 389.979,266.200 389.801 C 266.860 389.623,267.515 389.302,267.655 389.088 C 267.794 388.875,268.379 388.700,268.955 388.700 C 269.530 388.700,270.000 388.586,270.000 388.447 C 270.000 388.308,270.753 387.960,271.673 387.673 C 272.593 387.385,273.886 386.766,274.545 386.297 C 275.205 385.827,275.611 385.658,275.449 385.921 C 275.286 386.185,275.343 386.400,275.576 386.400 C 275.809 386.400,276.000 386.256,276.000 386.080 C 276.000 385.684,278.816 384.603,279.500 384.737 C 279.775 384.791,280.000 384.647,280.000 384.418 C 280.000 384.188,280.360 384.000,280.800 384.000 C 281.240 384.000,281.600 383.820,281.600 383.600 C 281.600 383.380,281.960 383.200,282.400 383.200 C 282.840 383.200,283.200 383.056,283.200 382.880 C 283.200 382.705,283.875 382.308,284.700 381.998 C 286.549 381.305,286.414 381.353,287.500 381.000 C 287.995 380.838,288.400 380.548,288.400 380.353 C 288.400 380.159,288.760 380.000,289.200 380.000 C 289.640 380.000,290.000 379.832,290.000 379.626 C 290.000 379.420,290.620 379.027,291.379 378.753 C 292.137 378.479,292.689 378.145,292.606 378.010 C 292.523 377.876,292.832 377.738,293.292 377.703 C 293.752 377.668,294.234 377.496,294.364 377.319 C 294.494 377.143,295.140 376.729,295.800 376.400 C 296.460 376.071,297.103 375.662,297.229 375.491 C 297.356 375.321,297.839 375.108,298.303 375.019 C 299.285 374.830,300.800 374.067,300.800 373.762 C 300.800 373.647,300.592 373.681,300.338 373.838 C 300.052 374.015,299.985 373.948,300.162 373.662 C 300.319 373.408,300.897 373.200,301.447 373.200 C 302.012 373.200,302.340 373.026,302.200 372.800 C 302.063 372.578,302.365 372.394,302.876 372.387 C 303.384 372.380,304.149 372.110,304.576 371.787 C 305.004 371.464,305.193 371.200,304.998 371.200 C 304.803 371.200,305.578 370.734,306.721 370.164 C 307.865 369.595,308.800 368.986,308.800 368.813 C 308.800 368.639,309.340 368.273,310.000 368.000 C 310.660 367.727,311.200 367.345,311.200 367.151 C 311.200 366.958,311.517 366.800,311.905 366.800 C 312.293 366.800,312.946 366.353,313.355 365.808 C 313.765 365.262,314.229 364.894,314.385 364.991 C 314.541 365.087,315.456 364.454,316.419 363.583 C 317.381 362.712,318.321 362.000,318.508 362.000 C 318.694 362.000,318.736 361.820,318.600 361.600 C 318.464 361.380,318.723 361.200,319.176 361.200 C 319.629 361.200,320.000 361.020,320.000 360.800 C 320.000 360.580,320.278 360.400,320.618 360.400 C 321.402 360.400,323.244 358.587,322.876 358.178 C 322.724 358.010,322.833 358.006,323.118 358.170 C 323.767 358.545,324.881 357.667,324.531 357.055 C 324.389 356.805,324.413 356.727,324.585 356.883 C 324.881 357.149,327.646 355.346,327.933 354.700 C 328.007 354.535,328.332 354.400,328.657 354.400 C 328.982 354.400,329.136 354.220,329.000 354.000 C 328.864 353.780,329.033 353.600,329.376 353.600 C 329.719 353.600,330.000 353.300,330.000 352.933 C 330.000 352.567,330.105 352.372,330.234 352.500 C 330.362 352.629,331.194 352.029,332.082 351.167 C 332.970 350.305,333.990 349.597,334.348 349.594 C 334.915 349.589,334.922 349.537,334.400 349.200 C 333.917 348.888,333.981 348.811,334.724 348.806 C 335.236 348.803,335.537 348.622,335.400 348.400 C 335.264 348.180,335.356 348.000,335.605 348.000 C 336.189 348.000,337.200 346.989,337.200 346.405 C 337.200 346.156,337.367 346.056,337.571 346.182 C 337.775 346.308,338.057 346.049,338.198 345.606 C 338.339 345.163,338.630 344.800,338.845 344.800 C 339.279 344.800,341.223 342.968,341.029 342.742 C 340.962 342.664,341.333 342.189,341.854 341.686 C 342.374 341.183,342.800 340.881,342.800 341.014 C 342.800 341.148,343.070 340.987,343.400 340.657 C 343.730 340.327,344.000 339.859,344.000 339.616 C 344.000 339.373,344.288 339.064,344.640 338.929 C 345.600 338.561,347.200 336.844,347.200 336.182 C 347.200 335.862,347.349 335.645,347.530 335.700 C 347.712 335.755,348.519 335.125,349.323 334.300 C 350.128 333.475,350.680 332.800,350.551 332.800 C 350.421 332.800,350.868 332.284,351.544 331.653 C 352.219 331.022,352.658 330.392,352.519 330.253 C 352.380 330.114,352.490 330.000,352.762 330.000 C 353.261 330.000,354.400 329.049,354.400 328.633 C 354.400 328.410,355.351 327.183,356.300 326.184 C 356.575 325.894,356.800 325.508,356.800 325.325 C 356.800 325.142,357.155 324.771,357.589 324.500 C 358.096 324.183,358.286 323.768,358.121 323.338 C 357.948 322.887,358.017 322.763,358.332 322.958 C 358.616 323.133,358.800 322.992,358.800 322.600 C 358.800 322.244,358.980 322.064,359.200 322.200 C 359.420 322.336,359.600 322.156,359.600 321.800 C 359.600 321.444,359.780 321.264,360.000 321.400 C 360.220 321.536,360.400 321.402,360.400 321.102 C 360.400 320.489,362.434 317.596,364.100 315.841 C 364.705 315.203,365.200 314.478,365.200 314.229 C 365.200 313.980,365.560 313.517,366.000 313.200 C 366.440 312.883,366.800 312.303,366.800 311.912 C 366.800 311.520,366.980 311.200,367.200 311.200 C 367.420 311.200,367.603 310.795,367.606 310.300 C 367.611 309.572,367.686 309.515,368.000 310.000 C 368.314 310.485,368.389 310.428,368.394 309.700 C 368.397 309.205,368.580 308.800,368.800 308.800 C 369.020 308.800,369.200 308.530,369.200 308.200 C 369.200 307.870,369.391 307.600,369.624 307.600 C 369.857 307.600,369.935 307.419,369.798 307.197 C 369.661 306.976,369.831 306.686,370.175 306.554 C 370.519 306.422,370.800 306.064,370.800 305.757 C 370.800 305.451,370.966 305.200,371.169 305.200 C 371.372 305.200,371.746 304.570,372.000 303.800 C 372.254 303.030,372.628 302.400,372.831 302.400 C 373.034 302.400,373.200 302.228,373.200 302.018 C 373.200 301.808,373.650 300.972,374.200 300.162 C 374.750 299.351,375.200 298.353,375.200 297.944 C 375.200 297.535,375.346 297.200,375.525 297.200 C 375.704 297.200,376.098 296.570,376.400 295.800 C 376.702 295.030,377.096 294.400,377.275 294.400 C 377.454 294.400,377.600 293.939,377.600 293.376 C 377.600 292.796,377.773 292.460,378.000 292.600 C 378.220 292.736,378.400 292.466,378.400 292.000 C 378.400 291.429,378.563 291.251,378.900 291.453 C 379.213 291.641,379.180 291.463,378.813 290.977 C 378.490 290.550,378.377 290.326,378.561 290.481 C 379.032 290.877,380.000 289.808,380.000 288.891 C 380.000 288.469,380.360 287.798,380.800 287.400 C 381.665 286.617,381.903 285.766,381.121 286.249 C 380.858 286.411,381.038 285.989,381.521 285.310 C 382.005 284.632,382.400 283.879,382.400 283.638 C 382.400 283.397,382.580 283.200,382.800 283.200 C 383.020 283.200,383.200 282.840,383.200 282.400 C 383.200 281.960,383.380 281.600,383.600 281.600 C 383.820 281.600,384.000 281.240,384.000 280.800 C 384.000 280.360,384.146 280.000,384.324 280.000 C 384.503 280.000,384.879 279.100,385.161 278.000 C 385.443 276.900,385.848 276.000,386.061 276.000 C 386.273 276.000,386.356 275.852,386.244 275.671 C 386.132 275.491,386.291 274.861,386.597 274.271 C 386.902 273.682,387.045 273.200,386.914 273.200 C 386.783 273.200,387.019 272.809,387.438 272.331 C 387.857 271.853,387.947 271.611,387.638 271.793 C 387.220 272.039,387.167 271.980,387.432 271.562 C 387.785 271.005,387.853 270.794,387.950 269.976 C 387.978 269.743,388.211 269.683,388.468 269.842 C 388.775 270.032,388.855 269.919,388.700 269.515 C 388.570 269.177,388.714 268.415,389.021 267.824 C 389.328 267.232,389.637 266.355,389.708 265.874 C 389.779 265.393,390.047 264.619,390.304 264.153 C 390.561 263.687,390.658 263.192,390.519 263.053 C 390.380 262.914,390.438 262.800,390.648 262.800 C 390.857 262.800,391.052 262.485,391.080 262.100 C 391.108 261.715,391.343 260.680,391.603 259.800 C 391.862 258.920,392.167 257.615,392.281 256.900 C 392.395 256.185,392.609 255.600,392.757 255.600 C 392.904 255.600,393.066 255.113,393.115 254.518 C 393.164 253.922,393.384 253.256,393.602 253.038 C 393.821 252.819,394.000 252.057,394.000 251.344 C 394.000 250.631,394.180 249.936,394.400 249.800 C 394.620 249.664,394.800 249.034,394.800 248.400 C 394.800 247.766,394.950 247.154,395.134 247.041 C 395.317 246.927,395.498 246.062,395.535 245.117 C 395.572 244.173,395.781 243.340,396.001 243.267 C 396.220 243.193,396.400 242.958,396.400 242.743 C 396.400 242.528,396.175 242.488,395.900 242.653 C 395.504 242.891,395.502 242.828,395.888 242.350 C 396.156 242.018,396.420 241.174,396.473 240.473 C 396.527 239.773,396.712 239.200,396.885 239.200 C 397.058 239.200,397.200 239.009,397.200 238.776 C 397.200 238.543,396.975 238.480,396.700 238.635 C 396.300 238.861,396.300 238.810,396.700 238.379 C 396.975 238.082,397.200 237.336,397.200 236.720 C 397.200 236.104,397.356 235.600,397.547 235.600 C 397.738 235.600,397.918 234.599,397.946 233.376 C 397.974 232.153,398.188 230.796,398.421 230.361 C 398.654 229.925,398.814 229.261,398.776 228.884 C 398.574 226.860,398.841 223.846,399.177 224.376 C 399.733 225.255,399.878 219.270,399.837 197.233 C 399.808 181.870,399.689 177.430,399.303 177.301 C 398.931 177.177,398.915 176.932,399.240 176.325 C 399.553 175.741,399.552 175.392,399.237 175.077 C 398.997 174.837,398.800 173.971,398.800 173.153 C 398.800 172.336,398.575 171.576,398.300 171.465 C 397.900 171.304,397.900 171.257,398.300 171.232 C 398.575 171.214,398.800 171.009,398.800 170.776 C 398.800 170.543,398.620 170.464,398.400 170.600 C 398.146 170.757,398.000 169.671,398.000 167.624 C 398.000 165.741,397.834 164.400,397.600 164.400 C 397.380 164.400,397.200 163.770,397.200 163.000 C 397.200 162.230,397.054 161.600,396.875 161.600 C 396.696 161.600,396.505 160.749,396.452 159.709 C 396.398 158.669,396.195 157.720,396.001 157.601 C 395.807 157.481,395.604 156.432,395.551 155.270 C 395.498 154.108,395.308 153.067,395.128 152.955 C 394.947 152.844,394.800 152.403,394.800 151.976 C 394.800 151.549,394.620 151.200,394.400 151.200 C 394.180 151.200,394.000 150.581,394.000 149.824 C 394.000 149.067,393.820 148.336,393.600 148.200 C 393.380 148.064,393.200 147.459,393.200 146.856 C 393.200 146.253,392.975 145.518,392.700 145.221 C 392.300 144.790,392.300 144.739,392.700 144.965 C 392.975 145.120,393.200 145.057,393.200 144.824 C 393.200 144.591,393.020 144.400,392.800 144.400 C 392.580 144.400,392.400 143.759,392.400 142.976 C 392.400 142.129,392.238 141.653,392.000 141.800 C 391.780 141.936,391.585 141.632,391.567 141.124 C 391.548 140.616,391.457 139.750,391.363 139.200 C 391.269 138.650,391.164 137.967,391.130 137.683 C 391.093 137.385,390.799 137.268,390.433 137.406 C 389.939 137.595,389.905 137.541,390.281 137.162 C 390.616 136.825,390.642 136.452,390.367 135.939 C 390.150 135.532,390.058 135.200,390.162 135.200 C 390.267 135.200,390.102 134.718,389.797 134.129 C 389.491 133.539,389.350 132.882,389.482 132.667 C 389.616 132.450,389.518 132.404,389.262 132.562 C 388.823 132.833,388.612 132.114,388.771 130.895 C 388.808 130.617,388.549 130.278,388.196 130.143 C 387.843 130.008,387.647 129.656,387.760 129.361 C 387.873 129.067,387.793 128.719,387.583 128.589 C 387.372 128.459,387.200 128.018,387.200 127.610 C 387.200 127.201,387.026 126.807,386.813 126.733 C 386.600 126.660,386.382 126.027,386.330 125.328 C 386.277 124.628,386.091 124.144,385.917 124.251 C 385.743 124.359,385.596 124.032,385.591 123.524 C 385.586 123.016,385.230 122.150,384.800 121.600 C 384.370 121.050,384.014 120.285,384.009 119.900 C 384.004 119.515,383.820 119.200,383.600 119.200 C 383.380 119.200,383.200 118.840,383.200 118.400 C 383.200 117.960,383.059 117.600,382.887 117.600 C 382.715 117.600,382.537 117.144,382.491 116.587 C 382.445 116.030,382.045 115.186,381.603 114.711 C 381.162 114.237,380.800 113.313,380.800 112.658 C 380.800 112.003,380.683 111.584,380.539 111.727 C 380.235 112.031,379.200 110.179,379.200 109.331 C 379.200 109.013,379.020 108.864,378.800 109.000 C 378.416 109.237,378.240 108.726,378.363 107.730 C 378.395 107.472,378.101 107.022,377.711 106.730 C 377.320 106.439,376.942 105.864,376.872 105.453 C 376.801 105.042,376.396 104.333,375.972 103.877 C 375.547 103.422,375.200 102.657,375.200 102.179 C 375.200 101.365,373.932 99.349,373.025 98.722 C 372.804 98.569,372.752 98.315,372.909 98.158 C 373.066 98.000,372.836 97.620,372.397 97.313 C 371.959 97.006,371.600 96.495,371.600 96.177 C 371.600 95.860,371.409 95.600,371.176 95.600 C 370.943 95.600,370.864 95.420,371.000 95.200 C 371.136 94.980,371.071 94.800,370.855 94.800 C 370.640 94.800,370.345 94.260,370.200 93.600 C 370.055 92.940,369.771 92.400,369.568 92.400 C 369.366 92.400,369.200 92.130,369.200 91.800 C 369.200 91.470,369.020 91.200,368.800 91.200 C 368.580 91.200,368.400 90.932,368.400 90.603 C 368.400 90.275,368.040 89.782,367.600 89.507 C 367.160 89.232,366.800 88.781,366.800 88.504 C 366.800 88.227,366.575 87.997,366.300 87.994 C 365.967 87.990,366.000 87.858,366.400 87.600 C 366.993 87.217,366.535 86.989,365.500 87.153 C 365.335 87.179,365.221 87.065,365.247 86.900 C 365.390 85.996,365.148 85.185,364.800 85.400 C 364.580 85.536,364.400 85.358,364.400 85.005 C 364.400 84.652,363.964 83.928,363.431 83.395 C 362.898 82.862,362.349 82.069,362.211 81.633 C 362.072 81.197,361.608 80.730,361.180 80.594 C 360.751 80.457,360.400 80.088,360.400 79.773 C 360.400 79.458,360.220 79.200,360.000 79.200 C 359.780 79.200,359.600 78.930,359.600 78.600 C 359.600 78.270,359.442 78.000,359.249 78.000 C 359.055 78.000,358.673 77.460,358.400 76.800 C 358.127 76.140,357.715 75.600,357.485 75.600 C 357.255 75.600,357.179 75.488,357.316 75.350 C 357.454 75.213,356.944 74.496,356.183 73.757 C 355.422 73.019,354.800 72.231,354.800 72.007 C 354.800 71.783,354.530 71.600,354.200 71.600 C 353.870 71.600,353.600 71.426,353.600 71.214 C 353.600 71.001,353.105 70.308,352.500 69.673 C 351.895 69.037,351.130 68.109,350.800 67.610 C 350.470 67.110,349.984 66.475,349.719 66.199 C 349.455 65.922,349.365 65.569,349.519 65.414 C 349.674 65.260,349.530 65.193,349.200 65.267 C 348.870 65.340,348.645 65.175,348.700 64.900 C 348.755 64.625,348.665 64.445,348.500 64.500 C 348.335 64.555,348.131 64.420,348.046 64.200 C 347.760 63.458,345.853 62.044,345.463 62.285 C 345.250 62.416,345.188 62.343,345.324 62.122 C 345.589 61.694,344.920 60.919,342.630 59.004 C 341.844 58.346,341.200 57.611,341.200 57.371 C 341.200 57.131,340.756 56.698,340.214 56.407 C 339.671 56.117,339.294 55.772,339.374 55.640 C 339.455 55.508,338.913 54.950,338.169 54.400 C 337.425 53.850,336.717 53.104,336.595 52.743 C 336.473 52.382,336.019 51.994,335.587 51.881 C 335.154 51.767,334.800 51.388,334.800 51.037 C 334.800 50.687,334.530 50.400,334.200 50.400 C 333.870 50.400,333.600 50.220,333.600 50.000 C 333.600 49.780,333.412 49.600,333.182 49.600 C 332.952 49.600,332.338 49.195,331.817 48.700 C 331.296 48.205,330.243 47.208,329.477 46.485 C 327.588 44.702,326.160 44.382,326.969 45.923 M129.066 132.274 C 128.003 132.600,127.204 132.938,127.293 133.026 C 127.381 133.114,128.071 132.989,128.826 132.748 C 129.582 132.507,131.550 132.177,133.200 132.015 L 136.200 131.721 133.600 131.702 C 132.170 131.692,130.130 131.949,129.066 132.274 M139.600 132.015 C 141.250 132.177,143.218 132.507,143.974 132.748 C 144.729 132.989,145.417 133.116,145.503 133.030 C 145.906 132.627,141.017 131.607,138.938 131.660 L 136.600 131.721 139.600 132.015 M256.266 132.274 C 255.203 132.600,254.404 132.938,254.493 133.026 C 254.581 133.114,255.271 132.989,256.026 132.748 C 256.782 132.507,258.750 132.177,260.400 132.015 L 263.400 131.721 260.800 131.702 C 259.370 131.692,257.330 131.949,256.266 132.274 M266.800 132.004 C 268.450 132.153,270.418 132.480,271.174 132.731 C 271.929 132.981,272.611 133.122,272.689 133.044 C 273.122 132.611,268.497 131.609,266.325 131.666 L 263.800 131.732 266.800 132.004 M119.185 136.810 L 117.800 138.019 119.390 136.987 C 121.271 135.764,121.456 135.600,120.952 135.600 C 120.742 135.600,119.947 136.144,119.185 136.810 M279.376 136.213 C 279.804 136.536,280.333 136.800,280.553 136.800 C 280.773 136.800,280.604 136.536,280.176 136.213 C 279.749 135.890,279.220 135.625,279.000 135.625 C 278.780 135.625,278.949 135.890,279.376 136.213 M245.454 137.433 C 243.837 138.855,244.307 138.968,245.985 137.561 C 246.747 136.922,247.197 136.406,246.985 136.413 C 246.773 136.420,246.084 136.879,245.454 137.433 M112.963 142.548 C 111.522 144.355,110.293 146.158,110.883 145.600 C 111.571 144.950,114.842 140.712,114.732 140.614 C 114.660 140.549,113.864 141.419,112.963 142.548 M285.200 140.566 C 285.200 140.701,285.965 141.756,286.900 142.912 C 287.835 144.067,288.923 145.459,289.317 146.006 C 290.028 146.991,290.029 146.989,289.380 145.783 C 288.691 144.502,285.200 140.145,285.200 140.566 M233.452 157.700 C 233.129 158.906,233.186 165.223,233.528 166.085 C 233.678 166.462,233.800 164.527,233.800 161.785 C 233.800 156.356,233.803 156.391,233.452 157.700 M166.200 161.800 C 166.200 164.288,166.332 166.116,166.494 165.862 C 166.656 165.608,166.788 163.780,166.788 161.800 C 166.788 159.820,166.656 157.992,166.494 157.738 C 166.332 157.484,166.200 159.312,166.200 161.800 M106.267 157.867 C 106.120 158.013,106.020 158.868,106.044 159.767 L 106.088 161.400 106.436 159.625 C 106.789 157.824,106.747 157.386,106.267 157.867 M293.438 159.000 C 293.770 160.984,294.002 161.304,293.994 159.767 C 293.991 159.125,293.804 158.330,293.579 158.000 C 293.286 157.570,293.246 157.854,293.438 159.000 M106.006 163.833 C 106.009 164.695,106.197 165.670,106.423 166.000 C 106.714 166.426,106.755 166.020,106.565 164.600 C 106.231 162.103,105.998 161.784,106.006 163.833 M293.659 163.400 C 293.620 163.840,293.477 164.650,293.340 165.200 C 293.148 165.970,293.202 166.097,293.575 165.751 C 293.844 165.501,293.985 164.703,293.893 163.951 C 293.802 163.208,293.697 162.960,293.659 163.400 M288.585 178.500 C 287.968 179.435,287.720 179.989,288.032 179.731 C 288.633 179.234,290.164 176.800,289.876 176.800 C 289.783 176.800,289.202 177.565,288.585 178.500 M238.349 178.600 C 239.010 179.809,239.971 180.963,240.157 180.771 C 240.248 180.677,239.780 179.970,239.117 179.200 C 238.454 178.430,238.109 178.160,238.349 178.600 M113.672 181.910 C 115.020 183.531,119.764 187.600,120.306 187.600 C 120.608 187.600,120.214 187.243,118.600 186.051 C 117.940 185.564,116.241 184.048,114.826 182.683 C 112.907 180.833,112.613 180.636,113.672 181.910 M282.999 184.712 C 282.339 185.310,281.259 186.215,280.599 186.722 C 279.940 187.229,279.760 187.465,280.200 187.247 C 281.248 186.727,284.988 183.597,284.544 183.612 C 284.355 183.618,283.660 184.113,282.999 184.712 M153.615 186.416 C 151.808 187.961,152.251 187.949,154.200 186.400 C 155.031 185.740,155.550 185.207,155.355 185.216 C 155.160 185.225,154.377 185.765,153.615 186.416 M245.800 186.400 C 246.631 187.060,247.413 187.600,247.540 187.600 C 247.909 187.600,245.036 185.234,244.645 185.216 C 244.450 185.207,244.969 185.740,245.800 186.400 M121.200 188.020 C 122.587 188.961,123.378 189.235,122.400 188.436 C 121.850 187.986,121.220 187.617,121.000 187.615 C 120.780 187.613,120.870 187.796,121.200 188.020 M277.700 188.144 C 277.205 188.389,276.800 188.733,276.800 188.909 C 276.800 189.214,277.498 188.903,278.800 188.020 C 279.581 187.489,278.856 187.572,277.700 188.144 M148.600 189.227 C 147.940 189.650,147.544 189.997,147.720 189.998 C 148.160 190.001,150.400 188.824,150.400 188.590 C 150.400 188.242,149.812 188.451,148.600 189.227 M249.600 188.590 C 249.600 188.824,251.839 190.001,252.280 189.999 C 252.456 189.998,252.011 189.638,251.290 189.199 C 249.951 188.382,249.600 188.256,249.600 188.590 M135.400 192.000 C 135.536 192.220,135.986 192.400,136.400 192.400 C 136.814 192.400,137.264 192.220,137.400 192.000 C 137.545 191.766,137.130 191.600,136.400 191.600 C 135.670 191.600,135.255 191.766,135.400 192.000 M262.600 192.000 C 262.736 192.220,263.186 192.400,263.600 192.400 C 264.014 192.400,264.464 192.220,264.600 192.000 C 264.745 191.766,264.330 191.600,263.600 191.600 C 262.870 191.600,262.455 191.766,262.600 192.000 M118.800 257.945 C 118.800 258.134,119.250 258.203,119.800 258.098 C 120.350 257.993,120.800 257.838,120.800 257.753 C 120.800 257.669,120.350 257.600,119.800 257.600 C 119.250 257.600,118.800 257.755,118.800 257.945 M279.200 257.753 C 279.200 257.838,279.650 257.993,280.200 258.098 C 280.750 258.203,281.200 258.134,281.200 257.945 C 281.200 257.755,280.750 257.600,280.200 257.600 C 279.650 257.600,279.200 257.669,279.200 257.753 M113.351 260.900 C 112.170 262.248,111.480 263.200,111.684 263.200 C 111.784 263.200,112.445 262.480,113.152 261.600 C 114.525 259.892,114.664 259.401,113.351 260.900 M288.352 263.600 C 288.776 264.370,289.247 265.598,289.399 266.329 C 289.552 267.059,289.761 267.573,289.864 267.469 C 290.223 267.110,289.186 264.071,288.386 263.138 L 287.582 262.200 288.352 263.600 M110.028 271.076 C 110.013 271.558,110.180 272.064,110.400 272.200 C 110.873 272.492,110.873 272.101,110.400 271.000 C 110.069 270.229,110.055 270.231,110.028 271.076 M289.429 271.829 C 289.281 272.415,289.238 272.972,289.332 273.066 C 289.427 273.160,289.624 272.758,289.771 272.171 C 289.919 271.585,289.962 271.028,289.868 270.934 C 289.773 270.840,289.576 271.242,289.429 271.829 M288.381 274.435 C 288.135 274.895,287.274 276.020,286.467 276.935 C 285.235 278.333,285.582 278.375,287.013 277.000 C 287.619 276.419,289.304 273.600,289.047 273.600 C 288.926 273.600,288.627 273.976,288.381 274.435 M111.944 275.400 C 112.544 276.485,113.244 277.287,114.200 277.983 C 114.640 278.303,114.370 277.853,113.601 276.983 C 112.832 276.112,112.045 275.220,111.852 275.000 C 111.660 274.780,111.701 274.960,111.944 275.400 M119.862 280.500 C 120.102 280.888,279.652 280.882,280.262 280.494 C 280.516 280.332,244.488 280.200,200.200 280.200 C 155.912 280.200,119.760 280.335,119.862 280.500 " stroke="none" fill="#f4c434" fill-rule="evenodd"></path><path id="path3" d="M131.804 132.351 C 131.146 132.491,133.206 132.606,136.382 132.606 C 139.821 132.606,141.518 132.493,140.578 132.326 C 138.657 131.985,133.444 132.000,131.804 132.351 M259.000 132.389 C 258.208 132.617,258.956 132.664,261.200 132.526 C 264.133 132.346,267.951 132.664,271.600 133.392 C 272.150 133.502,271.790 133.309,270.800 132.964 C 268.735 132.245,260.836 131.859,259.000 132.389 M128.200 133.200 C 127.181 133.638,128.232 133.638,129.600 133.200 C 130.404 132.943,130.443 132.877,129.800 132.868 C 129.360 132.862,128.640 133.011,128.200 133.200 M145.000 133.751 C 146.540 134.255,148.745 135.150,149.900 135.740 C 152.509 137.074,152.667 136.841,150.119 135.417 C 148.116 134.297,143.886 132.788,142.834 132.818 C 142.485 132.828,143.460 133.248,145.000 133.751 M254.200 133.501 C 253.100 133.840,252.380 134.179,252.600 134.253 C 252.820 134.327,254.080 134.040,255.400 133.615 C 256.720 133.191,257.440 132.852,257.000 132.863 C 256.560 132.874,255.300 133.161,254.200 133.501 M125.600 134.000 C 125.067 134.345,125.067 134.388,125.600 134.388 C 125.930 134.388,126.470 134.213,126.800 134.000 C 127.333 133.655,127.333 133.612,126.800 133.612 C 126.470 133.612,125.930 133.787,125.600 134.000 M273.200 134.000 C 273.530 134.213,274.070 134.388,274.400 134.388 C 274.933 134.388,274.933 134.345,274.400 134.000 C 274.070 133.787,273.530 133.612,273.200 133.612 C 272.667 133.612,272.667 133.655,273.200 134.000 M121.974 135.747 C 119.723 137.015,114.810 140.715,114.789 141.159 C 114.782 141.292,114.068 142.198,113.200 143.172 C 111.835 144.707,107.999 151.283,109.101 150.200 C 109.324 149.980,109.977 148.900,110.551 147.800 C 113.034 143.039,117.758 138.356,122.500 135.954 C 123.765 135.313,124.800 134.701,124.800 134.594 C 124.800 134.244,124.230 134.476,121.974 135.747 M249.911 135.360 C 247.587 136.741,247.582 137.006,249.900 135.841 C 251.055 135.261,252.000 134.700,252.000 134.593 C 252.000 134.249,251.429 134.458,249.911 135.360 M275.200 134.545 C 275.200 134.661,276.505 135.439,278.100 136.274 C 283.843 139.279,289.803 146.586,291.580 152.800 C 291.863 153.790,292.167 154.851,292.257 155.157 C 292.346 155.464,292.506 155.627,292.613 155.520 C 293.402 154.731,289.265 145.943,286.800 143.172 C 285.932 142.198,285.218 141.297,285.211 141.172 C 285.187 140.692,280.027 136.825,277.963 135.741 C 275.223 134.302,275.200 134.292,275.200 134.545 M153.809 138.082 C 155.756 139.651,158.125 142.007,160.164 144.400 C 161.008 145.390,161.468 145.750,161.187 145.200 C 160.542 143.935,153.324 136.800,152.690 136.800 C 152.430 136.800,152.934 137.377,153.809 138.082 M244.400 139.237 L 242.600 140.871 244.294 139.607 C 245.787 138.492,246.692 137.598,246.324 137.601 C 246.256 137.602,245.390 138.338,244.400 139.237 M240.568 143.100 C 239.728 144.145,239.455 144.640,239.963 144.200 C 240.917 143.374,242.592 141.200,242.275 141.200 C 242.177 141.200,241.409 142.055,240.568 143.100 M238.214 146.235 C 237.841 146.804,237.627 147.361,237.739 147.472 C 237.850 147.583,238.229 147.118,238.581 146.437 C 239.359 144.933,239.144 144.815,238.214 146.235 M162.400 148.190 C 162.400 148.295,162.759 148.970,163.199 149.690 C 164.138 151.231,164.269 150.881,163.390 149.180 C 162.841 148.119,162.400 147.678,162.400 148.190 M236.629 149.143 C 235.725 150.893,235.856 151.241,236.823 149.655 C 237.274 148.915,237.557 148.223,237.451 148.118 C 237.345 148.012,236.976 148.473,236.629 149.143 M108.446 151.267 C 108.421 151.634,108.296 152.264,108.170 152.667 C 107.952 153.362,107.963 153.363,108.397 152.687 C 108.648 152.296,108.773 151.666,108.673 151.287 C 108.511 150.668,108.488 150.666,108.446 151.267 M164.034 151.800 C 164.022 152.240,164.187 152.870,164.400 153.200 C 164.914 153.995,164.914 152.996,164.400 151.800 L 164.056 151.000 164.034 151.800 M235.429 152.229 C 235.281 152.815,235.238 153.372,235.332 153.466 C 235.427 153.560,235.624 153.158,235.771 152.571 C 235.919 151.985,235.962 151.428,235.868 151.334 C 235.773 151.240,235.576 151.642,235.429 152.229 M107.646 153.867 C 107.621 154.124,107.484 154.664,107.341 155.067 C 107.140 155.636,107.194 155.697,107.579 155.342 C 107.852 155.091,107.989 154.551,107.884 154.142 C 107.779 153.734,107.672 153.610,107.646 153.867 M164.834 154.400 C 164.846 154.730,165.011 155.360,165.200 155.800 L 165.544 156.600 165.566 155.800 C 165.578 155.360,165.413 154.730,165.200 154.400 C 164.855 153.867,164.815 153.867,164.834 154.400 M234.673 154.553 C 234.523 154.945,234.411 155.566,234.425 155.933 C 234.442 156.375,234.581 156.274,234.837 155.634 C 235.049 155.103,235.161 154.482,235.085 154.254 C 235.009 154.027,234.824 154.161,234.673 154.553 M292.933 161.800 C 292.934 166.898,292.979 167.349,293.237 164.800 C 293.403 163.150,293.403 160.450,293.236 158.800 C 292.977 156.250,292.932 156.701,292.933 161.800 M106.691 159.700 C 106.570 161.295,106.604 163.590,106.765 164.800 C 106.997 166.539,107.067 165.931,107.101 161.900 C 107.148 156.151,107.014 155.430,106.691 159.700 M165.694 161.800 C 165.694 165.274,165.738 165.537,166.028 163.800 C 166.213 162.700,166.213 160.900,166.029 159.800 C 165.738 158.063,165.694 158.326,165.694 161.800 M233.849 160.300 C 233.722 161.565,233.767 163.320,233.947 164.200 C 234.212 165.487,234.284 165.036,234.315 161.900 C 234.358 157.493,234.188 156.908,233.849 160.300 M165.029 168.229 C 164.881 168.815,164.851 169.384,164.961 169.494 C 165.071 169.604,165.281 169.215,165.429 168.629 C 165.576 168.042,165.606 167.473,165.496 167.363 C 165.386 167.253,165.176 167.642,165.029 168.229 M234.434 167.800 C 234.422 168.240,234.587 168.870,234.800 169.200 C 235.314 169.995,235.314 168.996,234.800 167.800 L 234.456 167.000 234.434 167.800 M107.228 168.276 C 107.318 169.315,107.944 170.196,107.972 169.324 C 107.987 168.842,107.820 168.336,107.600 168.200 C 107.380 168.064,107.213 168.098,107.228 168.276 M291.807 170.278 C 289.227 179.077,282.005 186.565,273.203 189.569 C 269.762 190.743,268.896 190.902,264.200 191.226 L 259.800 191.529 264.600 191.404 C 275.642 191.116,285.334 184.962,290.256 175.113 C 291.522 172.580,292.947 168.414,292.649 168.116 C 292.561 168.028,292.182 169.000,291.807 170.278 M164.273 170.553 C 164.123 170.945,164.011 171.566,164.025 171.933 C 164.042 172.375,164.181 172.274,164.437 171.634 C 164.649 171.103,164.761 170.482,164.685 170.254 C 164.609 170.027,164.424 170.161,164.273 170.553 M235.256 170.400 C 235.256 170.730,235.411 171.360,235.600 171.800 C 235.817 172.304,235.944 172.378,235.944 172.000 C 235.944 171.670,235.789 171.040,235.600 170.600 C 235.383 170.096,235.256 170.022,235.256 170.400 M108.244 171.400 C 108.573 172.871,108.802 173.190,108.794 172.167 C 108.791 171.745,108.605 171.130,108.382 170.800 C 108.085 170.362,108.048 170.524,108.244 171.400 M163.040 174.040 C 162.686 174.749,162.474 175.407,162.569 175.502 C 162.664 175.597,163.038 175.101,163.400 174.400 C 163.762 173.699,163.974 173.041,163.871 172.938 C 163.768 172.835,163.394 173.331,163.040 174.040 M236.001 172.920 C 235.999 173.473,237.250 175.684,237.451 175.482 C 237.557 175.377,237.274 174.685,236.823 173.945 C 236.372 173.205,236.002 172.744,236.001 172.920 M110.377 176.355 C 114.813 185.050,124.924 191.131,135.400 191.404 L 140.200 191.529 135.800 191.226 C 124.586 190.453,114.315 184.281,110.826 176.220 C 110.488 175.439,110.070 174.800,109.898 174.800 C 109.725 174.800,109.941 175.500,110.377 176.355 M237.600 176.208 C 237.600 180.623,253.045 191.419,258.999 191.166 C 259.725 191.135,258.725 190.817,254.305 189.673 C 249.204 188.353,241.028 181.955,238.751 177.500 C 238.062 176.153,237.600 175.634,237.600 176.208 M159.400 180.046 C 155.747 184.504,149.953 188.567,145.658 189.682 C 141.232 190.831,140.277 191.135,141.001 191.166 C 146.528 191.401,157.641 184.273,161.320 178.134 C 161.969 177.050,161.349 177.668,159.400 180.046 M119.377 258.367 C 110.921 259.756,107.690 270.286,113.737 276.750 C 114.899 277.993,118.252 279.882,118.627 279.506 C 118.716 279.417,117.936 278.970,116.894 278.511 C 108.890 274.987,108.979 263.725,117.044 259.577 L 118.944 258.600 200.331 258.600 C 245.093 258.600,281.015 258.475,280.158 258.323 C 278.163 257.969,121.543 258.011,119.377 258.367 M282.000 258.981 C 282.000 259.081,282.675 259.475,283.500 259.857 C 290.166 262.942,291.017 272.266,285.103 277.415 C 284.166 278.231,283.760 278.707,284.200 278.474 C 290.090 275.351,291.255 266.592,286.462 261.463 C 285.192 260.104,282.000 258.329,282.000 258.981 M281.600 279.200 C 281.067 279.545,281.067 279.588,281.600 279.588 C 281.930 279.588,282.470 279.413,282.800 279.200 C 283.333 278.855,283.333 278.812,282.800 278.812 C 282.470 278.812,281.930 278.987,281.600 279.200 M159.700 279.900 C 181.865 279.957,218.135 279.957,240.300 279.900 C 262.465 279.843,244.330 279.796,200.000 279.796 C 155.670 279.796,137.535 279.843,159.700 279.900 " stroke="none" fill="#9c8c44" fill-rule="evenodd"></path><path id="path4" d="M130.200 132.419 C 129.642 132.671,129.885 132.707,131.000 132.538 C 131.880 132.404,132.675 132.228,132.767 132.147 C 133.110 131.844,130.968 132.071,130.200 132.419 M139.633 132.144 C 139.725 132.224,140.610 132.396,141.600 132.527 C 142.802 132.686,143.134 132.647,142.600 132.410 C 141.836 132.072,139.286 131.843,139.633 132.144 M257.400 132.419 C 256.842 132.671,257.085 132.707,258.200 132.538 C 259.080 132.404,259.875 132.228,259.967 132.147 C 260.310 131.844,258.168 132.071,257.400 132.419 M267.233 132.143 C 267.325 132.222,268.120 132.397,269.000 132.532 C 270.090 132.699,270.409 132.655,270.000 132.395 C 269.453 132.046,266.845 131.809,267.233 132.143 M122.300 135.227 C 121.475 135.663,120.800 136.108,120.800 136.218 C 120.800 136.327,121.520 136.049,122.400 135.600 C 123.280 135.151,124.000 134.697,124.000 134.592 C 124.000 134.330,123.997 134.331,122.300 135.227 M276.000 134.584 C 276.000 134.694,276.720 135.151,277.600 135.600 C 278.480 136.049,279.200 136.326,279.200 136.216 C 279.200 136.106,278.480 135.649,277.600 135.200 C 276.720 134.751,276.000 134.474,276.000 134.584 M246.700 137.014 C 245.655 137.780,244.800 138.496,244.800 138.603 C 244.800 138.752,247.331 137.083,249.167 135.723 C 249.258 135.656,249.168 135.604,248.967 135.610 C 248.765 135.615,247.745 136.247,246.700 137.014 M117.453 138.414 C 116.382 139.286,115.662 139.995,115.853 139.988 C 116.214 139.976,119.952 136.822,119.600 136.826 C 119.490 136.827,118.524 137.542,117.453 138.414 M282.182 138.488 C 283.072 139.306,283.949 139.981,284.131 139.988 C 284.313 139.995,283.863 139.516,283.131 138.924 C 280.887 137.111,280.483 136.925,282.182 138.488 M157.385 140.731 C 158.477 141.869,159.435 142.800,159.515 142.800 C 159.831 142.800,157.752 140.524,156.611 139.621 C 155.945 139.094,156.293 139.593,157.385 140.731 M243.197 139.713 C 241.921 140.841,238.000 145.679,238.000 146.125 C 238.000 146.310,238.651 145.592,239.447 144.531 C 240.243 143.469,241.721 141.745,242.732 140.700 C 244.663 138.703,244.896 138.210,243.197 139.713 M113.601 142.198 C 113.086 142.748,112.739 143.264,112.832 143.346 C 112.924 143.428,113.419 142.978,113.930 142.347 C 115.076 140.935,114.874 140.844,113.601 142.198 M286.034 142.247 C 286.565 142.933,287.080 143.423,287.179 143.335 C 287.277 143.247,286.843 142.686,286.213 142.088 L 285.069 141.000 286.034 142.247 M162.360 147.400 C 163.034 148.705,163.588 149.428,163.585 149.000 C 163.583 148.780,163.214 148.150,162.764 147.600 C 162.221 146.936,162.085 146.869,162.360 147.400 M107.049 154.615 C 106.912 154.973,106.818 155.656,106.841 156.133 C 106.867 156.681,107.003 156.486,107.210 155.603 C 107.560 154.116,107.465 153.533,107.049 154.615 M165.701 156.600 C 165.705 157.480,165.787 157.793,165.883 157.295 C 165.979 156.798,165.975 156.078,165.875 155.695 C 165.775 155.313,165.696 155.720,165.701 156.600 M234.093 156.800 C 234.093 157.570,234.175 157.885,234.276 157.500 C 234.376 157.115,234.376 156.485,234.276 156.100 C 234.175 155.715,234.093 156.030,234.093 156.800 M165.701 167.000 C 165.705 167.880,165.787 168.193,165.883 167.695 C 165.979 167.198,165.975 166.478,165.875 166.095 C 165.775 165.713,165.696 166.120,165.701 167.000 M234.093 166.800 C 234.093 167.570,234.175 167.885,234.276 167.500 C 234.376 167.115,234.376 166.485,234.276 166.100 C 234.175 165.715,234.093 166.030,234.093 166.800 M106.806 167.633 C 106.809 168.165,106.989 168.870,107.206 169.200 C 107.482 169.622,107.523 169.385,107.342 168.400 C 107.025 166.675,106.798 166.349,106.806 167.633 M112.330 179.900 C 112.761 180.505,113.528 181.360,114.034 181.800 C 114.540 182.240,114.251 181.745,113.392 180.700 C 111.673 178.608,111.103 178.179,112.330 179.900 M286.577 180.700 C 285.741 181.745,284.954 182.787,284.828 183.016 C 284.504 183.606,286.659 181.216,287.637 179.900 C 289.000 178.066,288.201 178.669,286.577 180.700 M241.256 181.900 C 241.761 182.505,242.810 183.528,243.587 184.174 C 244.379 184.832,244.039 184.349,242.814 183.074 C 240.478 180.644,239.755 180.099,241.256 181.900 M156.175 184.100 L 155.000 185.400 156.398 184.200 C 157.167 183.540,157.872 182.955,157.965 182.900 C 158.057 182.845,157.957 182.800,157.742 182.800 C 157.526 182.800,156.821 183.385,156.175 184.100 M116.124 183.877 C 116.460 184.421,119.600 186.955,119.600 186.682 C 119.600 186.580,118.753 185.803,117.719 184.955 C 116.684 184.107,115.966 183.622,116.124 183.877 M282.000 185.254 L 280.200 186.885 281.894 185.613 C 283.368 184.507,284.314 183.574,283.924 183.612 C 283.856 183.619,282.990 184.358,282.000 185.254 M129.952 191.312 C 130.145 191.505,130.819 191.598,131.451 191.519 C 132.509 191.387,132.481 191.359,131.100 191.168 C 130.240 191.049,129.750 191.110,129.952 191.312 M141.200 191.200 L 139.800 191.495 141.276 191.547 C 142.088 191.576,142.864 191.420,143.000 191.200 C 143.268 190.766,143.261 190.766,141.200 191.200 M257.015 191.224 C 257.143 191.431,257.897 191.600,258.690 191.600 C 260.461 191.600,260.300 191.390,258.291 191.080 C 257.391 190.941,256.876 190.999,257.015 191.224 M268.800 191.200 L 267.400 191.495 268.676 191.547 C 269.378 191.576,270.064 191.420,270.200 191.200 C 270.336 190.980,270.392 190.824,270.324 190.853 C 270.256 190.882,269.570 191.038,268.800 191.200 M120.076 257.940 C 119.568 258.083,155.534 258.200,200.000 258.200 C 244.466 258.200,280.432 258.083,279.924 257.940 C 279.416 257.797,243.450 257.680,200.000 257.680 C 156.550 257.680,120.584 257.797,120.076 257.940 M114.291 260.429 C 113.471 261.105,112.805 261.870,112.812 262.129 C 112.819 262.388,113.007 262.286,113.231 261.901 C 113.455 261.517,114.301 260.752,115.112 260.201 C 115.922 259.651,116.405 259.200,116.184 259.200 C 115.963 259.200,115.111 259.753,114.291 260.429 M285.200 260.125 C 285.200 260.194,285.785 260.779,286.500 261.425 L 287.800 262.600 286.625 261.300 C 285.530 260.088,285.200 259.816,285.200 260.125 M110.168 267.828 C 110.021 268.614,110.058 269.805,110.250 270.476 C 110.538 271.478,110.600 271.223,110.600 269.048 C 110.600 266.014,110.540 265.845,110.168 267.828 M289.662 268.800 C 289.622 269.570,289.496 270.650,289.383 271.200 L 289.177 272.200 289.608 271.214 C 289.844 270.671,289.970 269.591,289.886 268.814 L 289.734 267.400 289.662 268.800 M113.600 277.000 C 114.346 277.770,115.047 278.400,115.157 278.400 C 115.267 278.400,114.746 277.770,114.000 277.000 C 113.254 276.230,112.553 275.600,112.443 275.600 C 112.333 275.600,112.854 276.230,113.600 277.000 M117.600 279.582 C 117.930 279.805,118.545 279.991,118.967 279.994 C 119.990 280.002,119.671 279.773,118.200 279.444 C 117.324 279.248,117.162 279.285,117.600 279.582 M160.300 280.300 C 182.135 280.357,217.865 280.357,239.700 280.300 C 261.535 280.243,243.670 280.196,200.000 280.196 C 156.330 280.196,138.465 280.243,160.300 280.300 " stroke="none" fill="#c0a83d" fill-rule="evenodd"></path></g></svg>