<svg id="svg" version="1.1" xmlns="http://www.w3.org/2000/svg" xmlns:xlink="http://www.w3.org/1999/xlink" width="400" height="400" viewBox="0, 0, 400,400"><g id="svgg"><path id="path0" d="M87.015 205.349 C 85.905 206.459,85.565 210.710,86.373 213.372 C 86.578 214.047,86.959 215.410,87.218 216.400 C 87.957 219.212,90.653 225.248,91.298 225.533 C 91.464 225.607,91.600 225.888,91.600 226.158 C 91.600 226.428,91.920 226.998,92.311 227.425 C 92.702 227.851,93.447 228.830,93.967 229.600 C 97.042 234.152,108.568 242.800,111.561 242.800 C 111.934 242.800,112.411 242.949,112.620 243.130 C 113.087 243.537,115.620 244.245,121.306 245.559 C 123.773 246.130,135.027 246.130,137.494 245.559 C 144.467 243.947,147.699 242.887,151.200 241.062 C 162.713 235.061,171.088 223.509,172.706 211.400 C 173.743 203.639,170.907 202.753,162.107 208.088 C 160.736 208.920,159.446 209.600,159.241 209.600 C 159.035 209.600,158.807 209.741,158.733 209.913 C 158.660 210.085,156.890 211.065,154.800 212.090 C 137.298 220.672,121.728 220.117,102.000 210.208 C 98.386 208.393,94.139 206.270,91.985 205.204 C 90.087 204.264,88.040 204.324,87.015 205.349 M228.396 205.123 C 225.456 207.504,228.061 219.054,233.348 227.080 C 237.803 233.841,248.862 242.800,252.754 242.800 C 253.131 242.800,253.611 242.949,253.820 243.130 C 254.287 243.537,256.820 244.245,262.506 245.559 C 264.973 246.130,276.227 246.130,278.694 245.559 C 284.629 244.187,286.892 243.555,287.380 243.130 C 287.589 242.949,288.069 242.800,288.446 242.800 C 289.410 242.800,294.973 239.821,297.600 237.898 C 304.080 233.155,310.864 223.963,312.446 217.783 C 312.641 217.022,313.008 215.725,313.261 214.900 C 315.552 207.453,313.013 202.759,308.015 205.199 C 306.959 205.715,303.970 207.233,299.382 209.583 C 281.319 218.835,266.113 220.476,251.250 214.777 C 247.357 213.283,239.481 209.270,236.400 207.209 C 233.028 204.953,229.682 204.081,228.396 205.123 M146.200 291.780 C 138.442 296.264,138.921 306.161,147.083 309.997 C 149.768 311.259,250.232 311.259,252.917 309.997 C 259.538 306.885,261.218 300.314,256.953 294.214 C 256.651 293.781,255.466 292.836,254.320 292.114 L 252.237 290.800 200.019 290.828 L 147.800 290.855 146.200 291.780 " stroke="none" fill="#3c4444" fill-rule="evenodd"></path><path id="path1" d="M182.389 0.138 C 182.273 0.257,180.613 0.389,178.699 0.432 C 176.785 0.474,175.316 0.664,175.433 0.854 C 175.611 1.142,171.304 1.431,169.730 1.237 C 169.472 1.205,169.146 1.364,169.007 1.589 C 168.867 1.815,167.989 2.000,167.056 2.000 C 166.123 2.000,165.189 2.166,164.980 2.369 C 164.771 2.572,163.700 2.782,162.600 2.836 C 161.500 2.890,160.411 3.076,160.181 3.249 C 159.950 3.422,159.095 3.609,158.281 3.664 C 157.466 3.719,156.800 3.907,156.800 4.082 C 156.800 4.257,156.091 4.400,155.224 4.400 C 154.357 4.400,153.536 4.580,153.400 4.800 C 153.264 5.020,152.433 5.200,151.553 5.200 C 150.673 5.200,150.052 5.361,150.174 5.558 C 150.296 5.755,149.722 6.007,148.898 6.117 C 148.074 6.228,146.680 6.533,145.800 6.796 C 144.920 7.059,143.613 7.368,142.896 7.481 C 142.179 7.595,141.494 7.849,141.373 8.044 C 141.252 8.240,140.613 8.400,139.953 8.400 C 139.255 8.400,138.856 8.567,139.000 8.800 C 139.139 9.026,138.815 9.200,138.257 9.200 C 137.712 9.200,137.207 9.377,137.133 9.593 C 137.060 9.809,136.325 10.034,135.501 10.093 C 134.676 10.152,134.001 10.329,134.001 10.487 C 134.000 10.646,133.745 10.677,133.432 10.557 C 133.120 10.437,132.400 10.644,131.832 11.016 C 131.265 11.388,130.800 11.559,130.800 11.397 C 130.800 11.235,130.573 11.291,130.295 11.521 C 129.538 12.150,125.079 13.781,124.460 13.656 C 124.163 13.596,124.038 13.739,124.183 13.973 C 124.344 14.233,124.047 14.400,123.424 14.400 C 122.861 14.400,122.400 14.610,122.400 14.867 C 122.400 15.123,122.290 15.224,122.156 15.089 C 122.022 14.955,121.273 15.188,120.492 15.607 C 119.711 16.025,118.921 16.275,118.736 16.160 C 118.551 16.046,118.400 16.143,118.400 16.376 C 118.400 16.609,118.055 16.800,117.633 16.800 C 117.212 16.800,116.807 16.935,116.733 17.100 C 116.546 17.521,113.116 19.202,112.447 19.201 C 112.143 19.200,111.582 19.560,111.200 20.000 C 110.818 20.440,110.032 20.839,109.453 20.887 C 108.874 20.935,108.400 21.076,108.400 21.201 C 108.400 21.422,105.999 22.967,105.600 23.002 C 105.017 23.055,102.800 24.239,102.800 24.498 C 102.800 24.664,102.564 24.800,102.275 24.800 C 101.987 24.800,101.364 25.160,100.892 25.600 C 100.420 26.040,99.756 26.400,99.417 26.400 C 99.078 26.400,98.800 26.566,98.800 26.768 C 98.800 26.971,98.242 27.259,97.559 27.409 C 96.877 27.559,95.994 27.978,95.597 28.341 C 94.681 29.179,92.912 30.406,92.509 30.483 C 92.339 30.516,91.962 30.781,91.671 31.071 C 91.381 31.362,90.894 31.600,90.590 31.600 C 90.285 31.600,89.577 32.060,89.015 32.622 C 88.450 33.186,87.788 33.516,87.535 33.360 C 87.252 33.185,87.186 33.253,87.362 33.538 C 87.531 33.812,87.393 34.000,87.024 34.000 C 86.681 34.000,86.400 34.136,86.400 34.302 C 86.400 34.469,85.859 34.844,85.198 35.137 C 84.536 35.430,84.078 35.803,84.180 35.967 C 84.281 36.131,83.750 36.506,83.000 36.800 C 82.250 37.094,81.729 37.485,81.842 37.668 C 81.955 37.850,81.756 38.000,81.400 38.000 C 81.044 38.000,80.864 38.180,81.000 38.400 C 81.136 38.620,80.903 38.800,80.482 38.800 C 80.061 38.800,79.285 39.313,78.758 39.941 C 78.231 40.568,77.393 41.295,76.896 41.557 C 76.398 41.819,75.362 42.611,74.592 43.316 C 73.823 44.022,73.028 44.600,72.825 44.600 C 72.623 44.600,72.129 44.917,71.728 45.303 C 68.696 48.231,65.374 51.200,65.130 51.200 C 64.656 51.200,62.863 53.130,63.109 53.376 C 63.232 53.499,63.003 53.600,62.600 53.600 C 62.197 53.600,61.969 53.702,62.093 53.827 C 62.390 54.123,54.292 62.308,53.900 62.107 C 53.735 62.022,53.600 62.263,53.600 62.643 C 53.600 63.023,53.499 63.232,53.376 63.109 C 53.130 62.863,51.200 64.656,51.200 65.130 C 51.200 65.374,48.231 68.696,45.303 71.728 C 44.917 72.129,44.600 72.623,44.600 72.825 C 44.600 73.028,44.022 73.823,43.316 74.592 C 42.611 75.362,41.819 76.398,41.557 76.896 C 41.295 77.393,40.568 78.231,39.941 78.758 C 39.313 79.285,38.800 80.061,38.800 80.482 C 38.800 80.903,38.620 81.136,38.400 81.000 C 38.180 80.864,38.000 81.044,38.000 81.400 C 38.000 81.756,37.850 81.955,37.668 81.842 C 37.485 81.729,37.094 82.250,36.800 83.000 C 36.506 83.750,36.131 84.281,35.967 84.180 C 35.803 84.078,35.430 84.536,35.137 85.198 C 34.844 85.859,34.469 86.400,34.302 86.400 C 34.136 86.400,34.000 86.681,34.000 87.024 C 34.000 87.393,33.812 87.531,33.538 87.362 C 33.253 87.186,33.185 87.252,33.360 87.535 C 33.516 87.788,33.186 88.450,32.622 89.015 C 32.060 89.577,31.600 90.285,31.600 90.590 C 31.600 90.894,31.324 91.419,30.986 91.757 C 30.648 92.095,30.383 92.472,30.398 92.595 C 30.430 92.871,29.226 94.629,28.341 95.597 C 27.978 95.994,27.559 96.877,27.409 97.559 C 27.259 98.242,26.971 98.800,26.768 98.800 C 26.566 98.800,26.400 99.078,26.400 99.417 C 26.400 99.756,26.040 100.420,25.600 100.892 C 25.160 101.364,24.800 101.987,24.800 102.275 C 24.800 102.564,24.664 102.800,24.498 102.800 C 24.239 102.800,23.055 105.017,23.002 105.600 C 22.967 105.999,21.422 108.400,21.201 108.400 C 21.076 108.400,20.935 108.874,20.887 109.453 C 20.839 110.032,20.440 110.818,20.000 111.200 C 19.560 111.582,19.200 112.143,19.201 112.447 C 19.202 113.116,17.521 116.546,17.100 116.733 C 16.935 116.807,16.800 117.212,16.800 117.633 C 16.800 118.055,16.609 118.400,16.376 118.400 C 16.143 118.400,16.046 118.551,16.160 118.736 C 16.275 118.921,16.025 119.711,15.607 120.492 C 15.188 121.273,14.955 122.022,15.089 122.156 C 15.224 122.290,15.123 122.400,14.867 122.400 C 14.610 122.400,14.400 122.861,14.400 123.424 C 14.400 124.047,14.233 124.344,13.973 124.183 C 13.739 124.038,13.596 124.163,13.656 124.460 C 13.781 125.079,12.150 129.538,11.521 130.295 C 11.291 130.573,11.235 130.800,11.397 130.800 C 11.559 130.800,11.388 131.265,11.016 131.832 C 10.644 132.400,10.437 133.120,10.557 133.432 C 10.677 133.745,10.646 134.000,10.487 134.001 C 10.329 134.001,10.152 134.676,10.093 135.501 C 10.034 136.325,9.809 137.060,9.593 137.133 C 9.377 137.207,9.200 137.712,9.200 138.257 C 9.200 138.815,9.026 139.139,8.800 139.000 C 8.567 138.856,8.400 139.255,8.400 139.953 C 8.400 140.613,8.240 141.252,8.044 141.373 C 7.849 141.494,7.595 142.179,7.481 142.896 C 7.368 143.613,7.059 144.920,6.796 145.800 C 6.533 146.680,6.228 148.074,6.117 148.898 C 6.007 149.722,5.755 150.296,5.558 150.174 C 5.361 150.052,5.200 150.673,5.200 151.553 C 5.200 152.433,5.020 153.264,4.800 153.400 C 4.580 153.536,4.400 154.357,4.400 155.224 C 4.400 156.091,4.257 156.800,4.082 156.800 C 3.907 156.800,3.719 157.466,3.664 158.281 C 3.609 159.095,3.422 159.950,3.249 160.181 C 3.076 160.411,2.890 161.500,2.836 162.600 C 2.782 163.700,2.572 164.771,2.369 164.980 C 2.166 165.189,2.000 166.123,2.000 167.056 C 2.000 167.989,1.815 168.867,1.589 169.007 C 1.364 169.146,1.205 169.472,1.237 169.730 C 1.431 171.304,1.142 175.611,0.854 175.433 C 0.338 175.115,0.200 180.314,0.200 200.000 C 0.200 218.985,0.363 224.870,0.878 224.552 C 1.115 224.405,1.373 228.584,1.172 229.300 C 1.156 229.355,1.327 229.882,1.551 230.470 C 1.775 231.059,1.999 232.445,2.049 233.550 C 2.100 234.656,2.289 235.468,2.471 235.356 C 2.652 235.244,2.800 236.063,2.800 237.176 C 2.800 238.289,2.945 239.200,3.122 239.200 C 3.299 239.200,3.488 239.965,3.543 240.900 C 3.598 241.835,3.813 242.771,4.021 242.980 C 4.230 243.189,4.400 244.029,4.400 244.847 C 4.400 245.664,4.570 246.393,4.779 246.467 C 4.987 246.540,5.200 247.445,5.252 248.478 C 5.304 249.511,5.475 250.278,5.630 250.181 C 5.897 250.017,6.124 250.974,6.657 254.500 C 6.782 255.325,7.045 256.000,7.242 256.000 C 7.439 256.000,7.600 256.450,7.600 257.000 C 7.600 257.550,7.742 258.000,7.915 258.000 C 8.088 258.000,8.273 258.573,8.327 259.273 C 8.380 259.974,8.598 260.757,8.811 261.014 C 9.025 261.271,9.239 261.958,9.287 262.540 C 9.335 263.123,9.515 263.600,9.687 263.600 C 9.859 263.600,10.000 263.949,10.000 264.376 C 10.000 264.803,10.150 265.246,10.334 265.359 C 10.518 265.473,10.637 265.979,10.598 266.483 C 10.558 266.987,10.873 268.069,11.297 268.887 C 11.720 269.704,12.112 270.604,12.167 270.887 C 12.290 271.517,13.101 273.438,13.845 274.862 C 14.150 275.446,14.400 276.301,14.400 276.762 C 14.400 277.223,14.610 277.600,14.867 277.600 C 15.123 277.600,15.218 277.715,15.077 277.856 C 14.936 277.997,15.074 278.582,15.382 279.156 C 15.691 279.730,16.180 280.785,16.469 281.500 C 16.759 282.215,17.131 282.800,17.298 282.800 C 17.464 282.800,17.600 283.162,17.600 283.605 C 17.600 284.048,17.763 284.723,17.963 285.105 C 18.163 285.487,18.764 286.743,19.300 287.896 C 19.836 289.049,20.392 289.874,20.537 289.730 C 20.758 289.508,20.875 290.147,20.774 291.030 C 20.759 291.157,21.074 291.562,21.474 291.930 C 21.873 292.299,22.261 292.951,22.336 293.380 C 22.411 293.809,22.996 294.922,23.636 295.852 C 24.276 296.783,24.800 297.737,24.800 297.972 C 24.800 298.207,24.980 298.400,25.200 298.400 C 25.420 298.400,25.600 298.861,25.600 299.424 C 25.600 300.004,25.773 300.340,26.000 300.200 C 26.220 300.064,26.400 300.233,26.400 300.576 C 26.400 300.919,26.580 301.200,26.800 301.200 C 27.020 301.200,27.200 301.549,27.200 301.976 C 27.200 302.403,27.383 302.866,27.607 303.004 C 27.830 303.142,27.909 303.423,27.783 303.628 C 27.656 303.832,27.753 304.000,27.997 304.000 C 28.242 304.000,28.631 304.544,28.863 305.208 C 29.095 305.873,29.641 306.608,30.076 306.841 C 30.512 307.074,30.769 307.364,30.647 307.486 C 30.526 307.608,30.778 308.154,31.208 308.701 C 31.637 309.247,31.874 309.881,31.733 310.109 C 31.584 310.349,31.671 310.403,31.938 310.238 C 32.212 310.069,32.400 310.207,32.400 310.576 C 32.400 310.919,32.558 311.200,32.751 311.200 C 32.945 311.200,33.327 311.740,33.600 312.400 C 33.873 313.060,34.243 313.600,34.422 313.600 C 34.600 313.600,34.860 313.959,34.999 314.398 C 35.138 314.836,35.472 315.421,35.739 315.698 C 36.007 315.974,36.666 316.830,37.202 317.600 C 38.508 319.473,38.783 319.816,40.300 321.460 C 41.015 322.235,41.600 323.001,41.600 323.162 C 41.600 323.323,42.230 324.162,43.000 325.027 C 43.770 325.892,44.400 326.836,44.400 327.124 C 44.400 327.412,44.583 327.534,44.807 327.396 C 45.030 327.258,45.098 326.959,44.958 326.732 C 44.391 325.814,46.464 327.206,55.400 333.741 C 63.863 339.931,81.809 349.942,91.000 353.600 C 91.440 353.775,92.430 354.192,93.200 354.526 C 98.881 356.994,104.749 359.048,114.800 362.088 C 115.570 362.321,116.650 362.649,117.200 362.818 C 118.214 363.128,120.811 363.752,123.900 364.428 C 124.835 364.633,126.365 364.967,127.300 365.172 C 128.235 365.377,129.810 365.730,130.800 365.958 C 133.599 366.602,136.677 367.120,140.600 367.607 C 142.580 367.853,145.280 368.219,146.600 368.422 C 157.796 370.135,180.072 370.107,194.400 368.360 C 277.097 358.280,346.106 296.347,364.612 215.600 C 366.055 209.307,365.972 209.735,367.342 201.400 C 370.033 185.021,370.520 160.307,368.422 146.600 C 368.219 145.280,367.853 142.580,367.607 140.600 C 367.130 136.758,366.610 133.650,365.986 130.900 C 365.774 129.965,365.420 128.390,365.200 127.400 C 363.687 120.591,363.144 118.268,362.818 117.200 C 362.649 116.650,362.321 115.570,362.088 114.800 C 359.048 104.749,356.994 98.881,354.526 93.200 C 354.192 92.430,353.775 91.440,353.600 91.000 C 349.942 81.809,339.931 63.863,333.741 55.400 C 327.206 46.464,325.814 44.391,326.732 44.958 C 326.959 45.098,327.258 45.030,327.396 44.807 C 327.534 44.583,327.412 44.400,327.124 44.400 C 326.836 44.400,325.892 43.770,325.027 43.000 C 324.162 42.230,323.323 41.600,323.162 41.600 C 323.001 41.600,322.235 41.015,321.460 40.300 C 319.816 38.783,319.473 38.508,317.600 37.202 C 316.830 36.666,315.974 36.007,315.698 35.739 C 315.421 35.472,314.836 35.138,314.398 34.999 C 313.959 34.860,313.600 34.600,313.600 34.422 C 313.600 34.243,313.060 33.873,312.400 33.600 C 311.740 33.327,311.200 32.945,311.200 32.751 C 311.200 32.558,310.919 32.400,310.576 32.400 C 310.207 32.400,310.069 32.212,310.238 31.938 C 310.403 31.671,310.349 31.584,310.109 31.733 C 309.881 31.874,309.247 31.637,308.701 31.208 C 308.154 30.778,307.608 30.526,307.486 30.647 C 307.364 30.769,307.074 30.512,306.841 30.076 C 306.608 29.641,305.873 29.095,305.208 28.863 C 304.544 28.631,304.000 28.242,304.000 27.997 C 304.000 27.753,303.832 27.656,303.628 27.783 C 303.423 27.909,303.142 27.830,303.004 27.607 C 302.866 27.383,302.403 27.200,301.976 27.200 C 301.549 27.200,301.200 27.020,301.200 26.800 C 301.200 26.580,300.919 26.400,300.576 26.400 C 300.233 26.400,300.064 26.220,300.200 26.000 C 300.340 25.773,300.004 25.600,299.424 25.600 C 298.861 25.600,298.400 25.420,298.400 25.200 C 298.400 24.980,298.207 24.800,297.972 24.800 C 297.737 24.800,296.783 24.276,295.852 23.636 C 294.922 22.996,293.809 22.411,293.380 22.336 C 292.951 22.261,292.299 21.873,291.930 21.474 C 291.562 21.074,291.157 20.759,291.030 20.774 C 290.147 20.875,289.508 20.758,289.730 20.537 C 289.874 20.392,289.049 19.836,287.896 19.300 C 286.743 18.764,285.487 18.163,285.105 17.963 C 284.723 17.763,284.048 17.600,283.605 17.600 C 283.162 17.600,282.800 17.464,282.800 17.298 C 282.800 17.131,282.215 16.759,281.500 16.469 C 280.785 16.180,279.730 15.691,279.156 15.382 C 278.582 15.074,277.997 14.936,277.856 15.077 C 277.715 15.218,277.600 15.123,277.600 14.867 C 277.600 14.610,277.223 14.400,276.762 14.400 C 276.301 14.400,275.446 14.150,274.862 13.845 C 273.438 13.101,271.517 12.290,270.887 12.167 C 270.604 12.112,269.704 11.720,268.887 11.297 C 268.069 10.873,266.987 10.558,266.483 10.598 C 265.979 10.637,265.473 10.518,265.359 10.334 C 265.246 10.150,264.803 10.000,264.376 10.000 C 263.949 10.000,263.600 9.859,263.600 9.687 C 263.600 9.515,263.123 9.335,262.540 9.287 C 261.958 9.239,261.271 9.025,261.014 8.811 C 260.757 8.598,259.974 8.380,259.273 8.327 C 258.573 8.273,258.000 8.088,258.000 7.915 C 258.000 7.742,257.550 7.600,257.000 7.600 C 256.450 7.600,256.000 7.439,256.000 7.242 C 256.000 7.045,255.325 6.782,254.500 6.657 C 250.974 6.124,250.017 5.897,250.181 5.630 C 250.278 5.475,249.511 5.304,248.478 5.252 C 247.445 5.200,246.540 4.987,246.467 4.779 C 246.393 4.570,245.664 4.400,244.847 4.400 C 244.029 4.400,243.189 4.230,242.980 4.021 C 242.771 3.813,241.835 3.598,240.900 3.543 C 239.965 3.488,239.200 3.299,239.200 3.122 C 239.200 2.945,238.289 2.800,237.176 2.800 C 236.063 2.800,235.244 2.652,235.356 2.471 C 235.468 2.289,234.656 2.100,233.550 2.049 C 232.445 1.999,231.059 1.775,230.470 1.551 C 229.882 1.327,229.355 1.156,229.300 1.172 C 228.597 1.370,224.404 1.117,224.547 0.886 C 224.871 0.361,182.895 -0.384,182.389 0.138 M335.593 52.300 C 336.435 53.571,337.200 53.999,337.200 53.200 C 337.200 52.980,337.044 52.845,336.853 52.900 C 336.662 52.955,336.106 52.550,335.618 52.000 L 334.731 51.000 335.593 52.300 M345.067 61.467 C 344.637 61.896,344.757 62.298,345.387 62.540 C 345.710 62.664,346.084 62.588,346.217 62.373 C 346.350 62.157,346.221 62.030,345.930 62.090 C 345.638 62.151,345.445 61.975,345.500 61.700 C 345.611 61.143,345.467 61.066,345.067 61.467 M348.162 65.000 C 348.756 65.550,349.353 66.000,349.490 66.000 C 349.627 66.000,349.317 65.550,348.800 65.000 C 348.283 64.450,347.686 64.000,347.472 64.000 C 347.258 64.000,347.569 64.450,348.162 65.000 M359.600 78.800 C 359.600 79.020,359.780 79.200,360.000 79.200 C 360.220 79.200,360.400 79.470,360.400 79.800 C 360.400 80.130,360.576 80.400,360.791 80.400 C 361.030 80.400,361.004 80.008,360.727 79.400 C 360.272 78.401,359.600 78.044,359.600 78.800 M370.412 94.100 C 370.406 94.485,370.591 94.800,370.824 94.800 C 371.057 94.800,371.136 94.980,371.000 95.200 C 370.864 95.420,370.943 95.600,371.176 95.600 C 371.409 95.600,371.600 95.859,371.600 96.176 C 371.600 96.493,371.780 96.864,372.000 97.000 C 372.664 97.410,372.451 96.690,371.410 95.000 C 370.799 94.008,370.420 93.666,370.412 94.100 M377.800 107.199 C 377.665 107.419,377.815 107.972,378.135 108.429 C 378.455 108.885,378.824 109.084,378.956 108.871 C 379.088 108.658,378.908 108.373,378.556 108.239 C 378.192 108.099,378.015 107.737,378.146 107.397 C 378.405 106.723,378.176 106.592,377.800 107.199 M152.040 139.261 C 157.043 140.958,159.414 146.450,157.241 151.304 C 156.823 152.237,156.239 153.585,155.943 154.300 C 155.647 155.015,155.269 155.600,155.102 155.600 C 154.936 155.600,154.800 155.787,154.800 156.015 C 154.800 157.908,144.782 169.656,140.400 172.902 C 139.630 173.472,138.126 174.596,137.057 175.399 C 123.919 185.278,101.859 190.174,81.400 187.753 C 72.942 186.752,68.894 181.714,71.556 175.502 C 73.536 170.883,75.952 170.088,85.862 170.794 C 101.909 171.937,112.748 169.883,123.400 163.679 C 130.519 159.533,137.771 151.770,141.600 144.196 C 143.666 140.111,148.211 137.962,152.040 139.261 M252.954 139.292 C 254.738 139.825,257.431 142.260,258.388 144.205 C 258.711 144.862,259.476 146.152,260.088 147.072 C 260.699 147.992,261.200 148.861,261.200 149.004 C 261.200 149.961,267.166 156.345,272.011 160.571 C 281.451 168.807,296.241 172.087,317.422 170.644 C 325.402 170.101,329.200 172.723,329.200 178.774 C 329.200 183.834,325.661 186.884,318.800 187.736 C 286.565 191.739,256.302 178.179,244.402 154.400 C 243.466 152.530,242.543 150.687,242.350 150.305 C 239.485 144.621,246.478 137.357,252.954 139.292 M394.000 150.624 C 394.000 151.187,394.169 151.543,394.375 151.416 C 394.819 151.141,394.769 149.600,394.315 149.600 C 394.142 149.600,394.000 150.061,394.000 150.624 M395.600 157.533 C 395.600 158.010,395.764 158.400,395.965 158.400 C 396.371 158.400,396.311 157.377,395.878 156.945 C 395.725 156.792,395.600 157.057,395.600 157.533 M396.509 160.791 C 396.543 161.236,396.712 161.600,396.885 161.600 C 397.327 161.600,397.279 160.496,396.824 160.215 C 396.618 160.087,396.476 160.347,396.509 160.791 M398.000 170.533 C 398.000 171.560,398.148 172.400,398.329 172.400 C 398.716 172.400,398.663 169.329,398.269 168.936 C 398.121 168.788,398.000 169.507,398.000 170.533 M91.000 204.000 C 91.136 204.220,91.687 204.400,92.224 204.400 C 92.761 204.400,93.200 204.580,93.200 204.800 C 93.200 205.020,93.560 205.200,94.000 205.200 C 94.440 205.200,94.800 205.380,94.800 205.600 C 94.800 205.820,95.160 206.000,95.600 206.000 C 96.040 206.000,96.400 206.180,96.400 206.400 C 96.400 206.620,96.760 206.800,97.200 206.800 C 97.640 206.800,98.000 206.980,98.000 207.200 C 98.000 207.420,98.345 207.600,98.767 207.600 C 99.188 207.600,99.593 207.745,99.667 207.921 C 99.826 208.306,106.772 211.703,109.251 212.610 C 113.812 214.277,116.671 215.180,117.420 215.190 C 117.871 215.195,118.411 215.349,118.620 215.532 C 119.227 216.062,123.850 216.758,128.400 217.004 C 134.407 217.329,141.704 216.403,145.800 214.795 C 146.240 214.622,147.230 214.264,148.000 214.000 C 148.770 213.736,149.760 213.374,150.200 213.197 C 151.658 212.610,158.996 209.039,159.200 208.818 C 159.310 208.698,159.805 208.375,160.300 208.100 C 160.795 207.825,161.605 207.375,162.100 207.100 C 162.595 206.825,163.090 206.508,163.200 206.395 C 163.310 206.282,164.300 205.767,165.400 205.251 C 166.500 204.735,167.713 204.152,168.095 203.956 C 170.127 202.914,172.899 204.062,173.427 206.165 C 174.604 210.855,171.101 223.737,167.726 227.129 C 167.437 227.419,167.200 227.811,167.200 228.000 C 167.200 228.189,166.975 228.581,166.700 228.871 C 166.425 229.162,165.663 230.120,165.006 231.000 C 162.241 234.705,153.664 241.600,151.821 241.600 C 151.479 241.600,151.200 241.780,151.200 242.000 C 151.200 242.220,150.840 242.400,150.400 242.400 C 149.960 242.400,149.600 242.580,149.600 242.800 C 149.600 243.020,149.251 243.200,148.824 243.200 C 148.397 243.200,147.936 243.380,147.800 243.600 C 147.664 243.820,147.124 244.000,146.600 244.000 C 146.076 244.000,145.536 244.180,145.400 244.400 C 145.264 244.620,144.713 244.800,144.176 244.800 C 143.639 244.800,143.200 244.980,143.200 245.200 C 143.200 245.420,142.426 245.600,141.480 245.600 C 140.534 245.600,139.589 245.766,139.380 245.969 C 138.221 247.094,120.579 247.094,119.420 245.969 C 119.211 245.766,118.367 245.600,117.544 245.600 C 116.721 245.600,115.936 245.420,115.800 245.200 C 115.664 244.980,115.124 244.800,114.600 244.800 C 114.076 244.800,113.536 244.620,113.400 244.400 C 113.264 244.180,112.724 244.000,112.200 244.000 C 111.676 244.000,111.136 243.820,111.000 243.600 C 110.864 243.380,110.403 243.200,109.976 243.200 C 109.549 243.200,109.200 243.020,109.200 242.800 C 109.200 242.580,108.840 242.400,108.400 242.400 C 107.960 242.400,107.600 242.220,107.600 242.000 C 107.600 241.780,107.240 241.600,106.800 241.600 C 106.360 241.600,106.000 241.464,106.000 241.298 C 106.000 241.131,105.490 240.770,104.867 240.494 C 102.278 239.348,96.641 234.537,94.446 231.600 C 93.871 230.831,93.085 229.852,92.700 229.425 C 92.315 228.998,92.000 228.453,92.000 228.213 C 92.000 227.973,91.640 227.517,91.200 227.200 C 90.760 226.883,90.400 226.318,90.400 225.945 C 90.400 225.572,90.264 225.207,90.098 225.133 C 89.932 225.060,89.193 223.740,88.456 222.200 C 87.719 220.660,86.955 219.087,86.758 218.705 C 86.561 218.323,86.400 217.479,86.400 216.829 C 86.400 216.179,86.220 215.536,86.000 215.400 C 85.780 215.264,85.600 214.544,85.600 213.800 C 85.600 213.056,85.420 212.336,85.200 212.200 C 84.047 211.488,85.150 205.328,86.630 204.208 C 87.507 203.545,90.627 203.396,91.000 204.000 M231.905 203.956 C 232.287 204.152,233.500 204.735,234.600 205.251 C 235.700 205.767,236.690 206.282,236.800 206.395 C 237.182 206.787,239.404 208.051,240.100 208.271 C 240.485 208.393,240.800 208.652,240.800 208.847 C 240.800 209.041,241.145 209.200,241.567 209.200 C 241.988 209.200,242.393 209.341,242.467 209.514 C 242.642 209.926,247.958 212.459,251.000 213.580 C 252.320 214.066,253.713 214.630,254.095 214.832 C 254.477 215.034,255.231 215.200,255.771 215.200 C 256.311 215.200,256.852 215.361,256.974 215.558 C 257.206 215.933,258.398 216.147,264.000 216.822 C 269.114 217.438,280.134 216.620,281.380 215.532 C 281.589 215.349,282.133 215.200,282.589 215.200 C 283.666 215.200,291.576 212.421,294.375 211.058 C 295.571 210.476,296.786 210.000,297.075 210.000 C 297.364 210.000,297.601 209.865,297.601 209.700 C 297.602 209.535,298.592 208.950,299.800 208.400 C 301.008 207.850,301.998 207.265,301.999 207.100 C 301.999 206.935,302.360 206.800,302.800 206.800 C 303.240 206.800,303.600 206.620,303.600 206.400 C 303.600 206.180,303.960 206.000,304.400 206.000 C 304.840 206.000,305.200 205.820,305.200 205.600 C 305.200 205.380,305.560 205.200,306.000 205.200 C 306.440 205.200,306.800 205.020,306.800 204.800 C 306.800 204.580,307.239 204.400,307.776 204.400 C 308.313 204.400,308.864 204.220,309.000 204.000 C 309.785 202.729,314.400 204.116,314.400 205.622 C 314.400 206.024,314.580 206.464,314.800 206.600 C 315.020 206.736,315.200 207.996,315.200 209.400 C 315.200 210.804,315.020 212.064,314.800 212.200 C 314.580 212.336,314.400 213.056,314.400 213.800 C 314.400 214.544,314.220 215.264,314.000 215.400 C 313.780 215.536,313.600 216.179,313.600 216.829 C 313.600 217.479,313.439 218.323,313.242 218.705 C 313.045 219.087,312.281 220.660,311.544 222.200 C 310.807 223.740,310.068 225.060,309.902 225.133 C 309.736 225.207,309.600 225.612,309.600 226.033 C 309.600 226.455,309.450 226.800,309.268 226.800 C 309.085 226.800,308.680 227.295,308.368 227.900 C 308.056 228.505,307.711 229.090,307.601 229.200 C 307.490 229.310,306.594 230.390,305.608 231.600 C 303.548 234.129,301.198 236.326,298.258 238.473 C 297.126 239.300,295.983 240.161,295.717 240.388 C 295.451 240.615,294.956 240.800,294.617 240.800 C 294.278 240.800,294.000 240.980,294.000 241.200 C 294.000 241.420,293.640 241.600,293.200 241.600 C 292.760 241.600,292.400 241.780,292.400 242.000 C 292.400 242.220,292.040 242.400,291.600 242.400 C 291.160 242.400,290.800 242.580,290.800 242.800 C 290.800 243.020,290.451 243.200,290.024 243.200 C 289.597 243.200,289.136 243.380,289.000 243.600 C 288.864 243.820,288.324 244.000,287.800 244.000 C 287.276 244.000,286.736 244.180,286.600 244.400 C 286.464 244.620,285.913 244.800,285.376 244.800 C 284.839 244.800,284.400 244.980,284.400 245.200 C 284.400 245.420,283.626 245.600,282.680 245.600 C 281.734 245.600,280.789 245.766,280.580 245.969 C 279.421 247.094,261.779 247.094,260.620 245.969 C 260.411 245.766,259.567 245.600,258.744 245.600 C 257.921 245.600,257.136 245.420,257.000 245.200 C 256.864 244.980,256.324 244.800,255.800 244.800 C 255.276 244.800,254.736 244.620,254.600 244.400 C 254.464 244.180,253.924 244.000,253.400 244.000 C 252.876 244.000,252.336 243.820,252.200 243.600 C 252.064 243.380,251.603 243.200,251.176 243.200 C 250.749 243.200,250.400 243.020,250.400 242.800 C 250.400 242.580,250.055 242.400,249.633 242.400 C 249.212 242.400,248.807 242.265,248.733 242.100 C 248.660 241.935,247.725 241.359,246.655 240.821 C 243.371 239.167,239.223 235.799,236.281 232.400 C 233.276 228.927,232.839 228.353,232.585 227.552 C 232.454 227.139,232.214 226.800,232.053 226.800 C 231.892 226.800,231.071 225.315,230.228 223.500 C 229.385 221.685,228.539 219.887,228.348 219.505 C 228.156 219.123,228.000 218.369,228.000 217.829 C 228.000 217.289,227.820 216.736,227.600 216.600 C 227.380 216.464,227.200 215.744,227.200 215.000 C 227.200 214.256,227.020 213.536,226.800 213.400 C 226.580 213.264,226.400 211.543,226.400 209.576 C 226.400 207.459,226.563 206.000,226.800 206.000 C 227.020 206.000,227.200 205.705,227.200 205.344 C 227.200 203.915,230.136 203.049,231.905 203.956 M396.534 238.627 C 396.402 238.972,396.499 239.459,396.749 239.709 C 397.090 240.050,397.182 239.892,397.115 239.082 C 397.013 237.844,396.876 237.737,396.534 238.627 M381.406 285.488 L 380.704 286.600 381.630 285.711 C 382.139 285.222,382.455 284.722,382.332 284.599 C 382.209 284.476,381.792 284.876,381.406 285.488 M251.800 290.000 C 251.936 290.220,252.487 290.400,253.024 290.400 C 253.561 290.400,254.000 290.580,254.000 290.800 C 254.000 291.020,254.270 291.200,254.600 291.200 C 254.930 291.200,255.200 291.380,255.200 291.600 C 255.200 291.820,255.398 292.000,255.640 292.000 C 256.229 292.000,258.297 294.244,258.606 295.220 C 258.743 295.649,259.022 296.000,259.227 296.000 C 259.432 296.000,259.600 296.540,259.600 297.200 C 259.600 297.860,259.780 298.400,260.000 298.400 C 260.220 298.400,260.400 299.379,260.400 300.576 C 260.400 301.773,260.220 302.864,260.000 303.000 C 259.780 303.136,259.600 303.591,259.600 304.011 C 259.600 305.441,257.376 308.800,256.429 308.800 C 256.193 308.800,256.000 308.980,256.000 309.200 C 256.000 309.420,255.730 309.600,255.400 309.600 C 255.070 309.600,254.800 309.736,254.800 309.902 C 254.800 310.332,252.907 311.063,250.800 311.446 C 248.484 311.868,151.586 311.878,149.200 311.456 C 147.121 311.089,145.723 310.492,144.625 309.500 C 144.198 309.115,143.658 308.797,143.425 308.793 C 142.823 308.783,140.400 304.966,140.400 304.028 C 140.400 303.599,140.220 303.136,140.000 303.000 C 139.780 302.864,139.600 301.773,139.600 300.576 C 139.600 299.379,139.780 298.400,140.000 298.400 C 140.220 298.400,140.400 297.860,140.400 297.200 C 140.400 296.540,140.550 296.000,140.732 296.000 C 140.915 296.000,141.320 295.505,141.632 294.900 C 141.945 294.295,142.560 293.440,143.000 293.000 C 143.440 292.560,144.295 291.945,144.900 291.632 C 145.505 291.320,146.000 290.915,146.000 290.732 C 146.000 290.550,146.439 290.400,146.976 290.400 C 147.513 290.400,148.064 290.220,148.200 290.000 C 148.542 289.447,251.458 289.447,251.800 290.000 M52.000 335.618 C 52.550 336.106,52.955 336.662,52.900 336.853 C 52.845 337.044,52.980 337.200,53.200 337.200 C 53.999 337.200,53.571 336.435,52.300 335.593 L 51.000 334.731 52.000 335.618 M324.750 356.600 C 324.723 356.710,324.655 356.980,324.600 357.200 C 324.545 357.420,324.475 357.735,324.444 357.900 C 324.413 358.065,324.213 357.930,324.000 357.600 C 323.767 357.239,323.610 357.190,323.606 357.476 C 323.590 358.755,324.848 358.254,325.053 356.900 C 325.125 356.430,324.858 356.167,324.750 356.600 M149.852 394.315 C 149.745 394.488,150.105 394.667,150.651 394.712 C 151.223 394.760,151.540 394.626,151.398 394.397 C 151.105 393.923,150.127 393.871,149.852 394.315 M156.945 395.878 C 157.377 396.311,158.400 396.371,158.400 395.965 C 158.400 395.764,158.010 395.600,157.533 395.600 C 157.057 395.600,156.792 395.725,156.945 395.878 M160.215 396.824 C 160.496 397.279,161.600 397.327,161.600 396.885 C 161.600 396.712,161.236 396.543,160.791 396.509 C 160.347 396.476,160.087 396.618,160.215 396.824 M238.252 396.715 C 238.145 396.888,238.505 397.067,239.051 397.112 C 239.623 397.160,239.940 397.026,239.798 396.797 C 239.505 396.323,238.527 396.271,238.252 396.715 M168.936 398.269 C 169.329 398.663,172.400 398.716,172.400 398.329 C 172.400 398.148,171.560 398.000,170.533 398.000 C 169.507 398.000,168.788 398.121,168.936 398.269 " stroke="none" fill="#fbdb3b" fill-rule="evenodd"></path><path id="path2" d="M326.840 45.674 C 327.273 46.484,328.995 48.911,333.741 55.400 C 339.931 63.863,349.942 81.809,353.600 91.000 C 353.775 91.440,354.192 92.430,354.526 93.200 C 356.994 98.881,359.048 104.749,362.088 114.800 C 362.321 115.570,362.649 116.650,362.818 117.200 C 363.135 118.237,363.804 121.029,364.400 123.800 C 364.733 125.349,365.182 127.359,365.986 130.900 C 366.610 133.650,367.130 136.758,367.607 140.600 C 367.853 142.580,368.219 145.280,368.422 146.600 C 370.520 160.307,370.033 185.021,367.342 201.400 C 365.972 209.735,366.055 209.307,364.612 215.600 C 347.821 288.863,288.526 347.967,215.000 364.729 C 210.176 365.829,204.582 366.909,200.400 367.548 C 190.143 369.116,182.624 369.649,170.738 369.651 C 160.303 369.652,151.816 369.220,146.600 368.422 C 145.280 368.219,142.580 367.853,140.600 367.607 C 136.758 367.130,133.650 366.610,130.900 365.986 C 129.965 365.774,128.390 365.420,127.400 365.200 C 126.410 364.980,124.790 364.620,123.800 364.400 C 119.158 363.368,117.163 362.853,114.400 361.969 C 113.850 361.793,110.970 360.896,108.000 359.976 C 103.224 358.496,97.420 356.359,93.200 354.526 C 92.430 354.192,91.440 353.775,91.000 353.600 C 81.809 349.942,63.863 339.931,55.400 333.741 C 44.969 326.112,44.766 325.986,45.015 327.280 C 45.109 327.767,45.594 328.551,46.093 329.023 C 47.794 330.632,49.600 332.778,49.600 333.189 C 49.600 333.415,49.780 333.600,50.000 333.600 C 50.220 333.600,50.404 333.825,50.409 334.100 C 50.414 334.375,50.999 334.885,51.709 335.234 C 52.419 335.583,53.196 336.256,53.436 336.731 C 54.029 337.909,55.249 339.217,55.569 339.019 C 55.713 338.930,56.069 339.396,56.360 340.054 C 56.690 340.801,57.099 341.171,57.445 341.038 C 57.750 340.921,58.000 340.989,58.000 341.189 C 58.000 341.685,61.482 345.185,61.729 344.937 C 61.838 344.829,62.046 345.116,62.192 345.576 C 62.338 346.035,62.623 346.310,62.824 346.185 C 63.027 346.060,63.072 346.267,62.926 346.649 C 62.725 347.171,62.819 347.278,63.310 347.090 C 63.767 346.914,63.893 347.012,63.737 347.420 C 63.585 347.817,63.789 348.000,64.381 348.000 C 64.857 348.000,65.151 348.156,65.033 348.347 C 64.915 348.537,65.175 349.015,65.609 349.409 C 66.044 349.802,66.400 350.027,66.400 349.909 C 66.400 349.790,67.140 350.390,68.045 351.242 C 68.950 352.094,69.850 352.693,70.045 352.572 C 70.240 352.452,70.400 352.530,70.400 352.746 C 70.400 353.162,72.091 354.869,73.823 356.200 C 74.396 356.640,75.098 357.216,75.384 357.481 C 75.671 357.745,75.996 357.871,76.107 357.760 C 76.218 357.649,76.689 358.042,77.154 358.633 C 77.619 359.224,78.000 359.504,78.000 359.254 C 78.000 359.004,78.180 358.800,78.400 358.800 C 78.620 358.800,78.779 358.935,78.753 359.100 C 78.610 360.006,78.896 360.401,79.700 360.406 C 80.428 360.411,80.485 360.486,80.000 360.800 C 79.423 361.173,80.210 361.432,81.330 361.237 C 81.511 361.206,81.554 361.351,81.425 361.560 C 81.296 361.768,81.778 362.352,82.495 362.856 C 83.213 363.361,84.038 364.005,84.329 364.287 C 84.619 364.569,85.010 364.800,85.198 364.800 C 85.385 364.800,86.086 365.261,86.755 365.824 C 87.425 366.387,88.338 366.875,88.786 366.909 C 89.234 366.943,89.600 367.232,89.600 367.552 C 89.600 367.872,89.717 368.017,89.859 367.874 C 90.002 367.731,90.452 367.999,90.859 368.468 C 91.267 368.938,91.605 369.160,91.612 368.961 C 91.619 368.763,91.808 368.915,92.032 369.300 C 92.256 369.685,92.628 370.000,92.858 370.000 C 93.088 370.000,93.798 370.371,94.436 370.825 C 95.073 371.279,95.780 371.536,96.007 371.396 C 96.234 371.255,96.370 371.359,96.310 371.625 C 96.249 371.891,96.721 372.256,97.358 372.436 C 97.995 372.615,98.985 373.196,99.558 373.727 C 100.706 374.789,102.962 375.687,103.430 375.267 C 103.594 375.120,103.599 375.225,103.441 375.500 C 103.248 375.834,103.438 376.000,104.012 376.000 C 104.485 376.000,105.229 376.405,105.666 376.900 C 106.103 377.395,106.349 377.530,106.212 377.200 C 106.075 376.870,106.263 377.005,106.630 377.500 C 106.997 377.995,107.538 378.400,107.831 378.400 C 108.125 378.400,109.281 378.940,110.400 379.600 C 111.519 380.260,112.772 380.800,113.184 380.800 C 113.596 380.800,113.996 380.988,114.073 381.218 C 114.149 381.448,114.602 381.665,115.078 381.701 C 115.555 381.737,115.873 381.882,115.786 382.023 C 115.698 382.165,116.335 382.514,117.200 382.800 C 118.065 383.086,118.679 383.472,118.563 383.660 C 118.385 383.948,119.920 384.202,120.900 384.047 C 121.065 384.021,121.200 384.180,121.200 384.400 C 121.200 384.620,121.549 384.800,121.976 384.800 C 122.403 384.800,122.864 384.980,123.000 385.200 C 123.136 385.420,123.642 385.603,124.124 385.606 C 124.836 385.611,124.888 385.685,124.400 386.000 C 123.943 386.295,124.105 386.389,125.076 386.394 C 125.778 386.397,126.464 386.580,126.600 386.800 C 126.736 387.020,127.272 387.200,127.790 387.200 C 128.309 387.200,128.799 387.397,128.879 387.637 C 128.959 387.877,129.497 388.102,130.074 388.137 C 130.651 388.172,131.053 388.315,130.966 388.455 C 130.722 388.850,132.338 389.326,135.100 389.671 C 135.375 389.705,135.600 389.862,135.600 390.020 C 135.600 390.527,137.118 390.722,137.566 390.274 C 137.878 389.962,138.000 390.019,138.000 390.477 C 138.000 391.226,138.811 391.600,140.433 391.600 C 141.075 391.600,141.600 391.780,141.600 392.000 C 141.600 392.220,142.215 392.400,142.967 392.400 C 143.718 392.400,144.393 392.560,144.467 392.755 C 144.540 392.950,145.410 393.216,146.400 393.347 C 149.613 393.770,150.964 394.106,152.193 394.788 C 152.857 395.156,154.479 395.505,155.797 395.562 C 157.115 395.620,158.291 395.824,158.409 396.015 C 158.528 396.206,159.294 396.408,160.112 396.463 C 160.930 396.518,161.600 396.707,161.600 396.882 C 161.600 397.057,162.219 397.200,162.976 397.200 C 163.733 397.200,164.464 397.380,164.600 397.600 C 164.737 397.821,166.537 398.000,168.624 398.000 C 170.875 398.000,172.400 398.162,172.400 398.400 C 172.400 398.620,172.904 398.800,173.520 398.800 C 174.136 398.800,174.837 398.997,175.077 399.237 C 175.392 399.552,175.741 399.553,176.325 399.240 C 176.932 398.915,177.177 398.931,177.301 399.303 C 177.573 400.118,221.479 400.017,222.045 399.200 C 222.358 398.749,222.511 398.724,222.664 399.100 C 222.775 399.375,223.132 399.600,223.457 399.600 C 223.823 399.600,223.933 399.410,223.747 399.100 C 223.508 398.703,223.572 398.701,224.053 399.090 C 224.428 399.394,224.801 399.439,225.032 399.208 C 225.238 399.002,226.484 398.731,227.803 398.605 C 229.121 398.479,231.280 398.275,232.600 398.153 C 233.920 398.030,235.171 397.765,235.380 397.565 C 235.589 397.364,236.253 397.200,236.856 397.200 C 237.459 397.200,238.051 397.041,238.171 396.847 C 238.291 396.653,239.125 396.484,240.024 396.472 C 240.923 396.459,241.950 396.213,242.306 395.925 C 242.855 395.480,242.902 395.492,242.618 396.000 C 242.345 396.488,242.383 396.507,242.821 396.100 C 243.118 395.825,243.738 395.600,244.200 395.600 C 244.662 395.600,245.282 395.375,245.579 395.100 C 246.017 394.693,246.055 394.712,245.782 395.200 C 245.508 395.689,245.556 395.712,246.039 395.321 C 246.364 395.058,247.389 394.798,248.315 394.743 C 249.242 394.688,250.000 394.499,250.000 394.322 C 250.000 394.145,250.360 394.000,250.800 394.000 C 251.240 394.000,251.600 393.798,251.600 393.551 C 251.600 393.241,251.785 393.256,252.200 393.600 C 252.615 393.944,252.800 393.959,252.800 393.649 C 252.800 393.402,253.250 393.200,253.800 393.200 C 254.350 393.200,254.800 393.020,254.800 392.800 C 254.800 392.580,254.991 392.400,255.224 392.400 C 255.457 392.400,255.520 392.625,255.365 392.900 C 255.139 393.300,255.190 393.300,255.621 392.900 C 255.918 392.625,256.585 392.400,257.104 392.400 C 257.623 392.400,257.964 392.265,257.863 392.100 C 257.761 391.935,258.304 391.754,259.069 391.698 C 259.835 391.642,260.811 391.408,261.239 391.179 C 261.666 390.950,262.193 390.872,262.408 391.005 C 262.624 391.138,262.800 391.087,262.800 390.890 C 262.800 390.694,263.025 390.513,263.300 390.487 C 264.290 390.396,267.405 389.407,267.617 389.117 C 267.737 388.954,268.227 388.760,268.707 388.687 C 269.187 388.614,269.704 388.429,269.856 388.277 C 270.009 388.125,270.463 388.000,270.867 388.000 C 271.270 388.000,271.600 387.858,271.600 387.685 C 271.600 387.512,271.962 387.343,272.404 387.310 C 272.846 387.276,273.778 386.843,274.476 386.346 C 275.174 385.849,275.611 385.658,275.449 385.921 C 275.286 386.185,275.343 386.400,275.576 386.400 C 275.809 386.400,276.000 386.262,276.000 386.094 C 276.000 385.717,278.886 384.443,280.448 384.130 C 281.082 384.004,281.600 383.742,281.600 383.550 C 281.600 383.358,281.960 383.200,282.400 383.200 C 282.840 383.200,283.200 383.032,283.200 382.826 C 283.200 382.620,283.830 382.224,284.600 381.946 C 285.370 381.667,286.003 381.250,286.006 381.020 C 286.009 380.789,286.187 380.870,286.400 381.200 C 286.658 381.600,286.790 381.633,286.794 381.300 C 286.797 381.025,287.160 380.800,287.600 380.800 C 288.040 380.800,288.400 380.620,288.400 380.400 C 288.400 380.180,288.745 380.000,289.167 380.000 C 289.588 380.000,289.993 379.843,290.067 379.651 C 290.140 379.460,290.920 378.946,291.800 378.511 C 294.778 377.037,296.999 375.801,297.229 375.491 C 297.356 375.320,297.893 375.098,298.424 374.995 C 298.955 374.893,299.669 374.439,300.010 373.986 C 300.352 373.533,301.017 373.134,301.488 373.098 C 301.959 373.063,302.256 372.891,302.149 372.717 C 302.041 372.543,302.403 372.400,302.954 372.400 C 303.504 372.400,304.190 372.083,304.477 371.697 C 304.765 371.310,305.855 370.561,306.900 370.034 C 307.945 369.506,308.800 368.944,308.800 368.786 C 308.800 368.627,309.340 368.273,310.000 368.000 C 310.660 367.727,311.200 367.345,311.200 367.151 C 311.200 366.958,311.494 366.800,311.853 366.800 C 312.212 366.800,312.857 366.395,313.287 365.900 C 313.716 365.405,314.187 364.984,314.334 364.965 C 315.359 364.833,316.030 364.265,315.534 363.950 C 315.151 363.708,315.254 363.611,315.900 363.606 C 316.395 363.603,316.800 363.450,316.800 363.268 C 316.800 363.085,317.244 362.698,317.786 362.407 C 318.329 362.117,318.678 361.727,318.563 361.540 C 318.447 361.353,318.723 361.200,319.176 361.200 C 319.629 361.200,320.000 361.020,320.000 360.800 C 320.000 360.580,320.371 360.400,320.824 360.400 C 321.277 360.400,321.536 360.220,321.400 360.000 C 321.264 359.780,321.356 359.600,321.605 359.600 C 321.854 359.600,322.327 359.330,322.657 359.000 C 322.987 358.670,323.147 358.400,323.013 358.400 C 322.878 358.400,323.001 358.149,323.284 357.842 C 323.568 357.535,323.933 357.365,324.097 357.464 C 324.391 357.642,327.678 355.274,327.933 354.700 C 328.007 354.535,328.367 354.397,328.733 354.394 C 329.310 354.389,329.319 354.335,328.800 354.000 C 328.315 353.686,328.372 353.611,329.100 353.606 C 329.631 353.603,330.000 353.354,330.000 353.000 C 330.000 352.670,330.157 352.400,330.350 352.400 C 330.542 352.400,331.387 351.770,332.228 351.000 C 333.069 350.230,334.036 349.597,334.378 349.594 C 334.880 349.589,334.895 349.521,334.457 349.244 C 334.054 348.989,334.339 348.661,335.557 347.976 C 336.461 347.468,337.200 346.835,337.200 346.569 C 337.200 346.303,337.481 345.978,337.825 345.846 C 338.169 345.714,338.339 345.424,338.202 345.203 C 338.065 344.981,338.242 344.800,338.595 344.800 C 339.205 344.800,341.286 343.042,341.029 342.742 C 340.962 342.664,341.333 342.189,341.854 341.686 C 342.374 341.183,342.800 340.881,342.800 341.014 C 342.800 341.148,343.070 340.987,343.400 340.657 C 343.730 340.327,344.000 339.899,344.000 339.705 C 344.000 339.512,344.716 338.824,345.591 338.177 C 346.465 337.530,347.185 336.685,347.191 336.300 C 347.196 335.915,347.427 335.600,347.704 335.600 C 347.982 335.600,348.657 335.043,349.204 334.363 C 349.752 333.683,350.695 332.583,351.300 331.921 C 351.905 331.258,352.400 330.554,352.400 330.358 C 352.400 330.161,352.593 330.000,352.829 330.000 C 353.382 330.000,354.400 328.982,354.400 328.429 C 354.400 328.193,354.610 328.000,354.867 328.000 C 355.123 328.000,355.224 327.891,355.091 327.758 C 354.958 327.625,355.288 327.109,355.825 326.612 C 356.361 326.115,356.800 325.519,356.800 325.287 C 356.800 325.056,356.952 324.807,357.138 324.733 C 357.324 324.660,357.741 324.060,358.065 323.400 C 358.388 322.740,358.866 322.245,359.127 322.300 C 359.387 322.355,359.600 322.119,359.600 321.776 C 359.600 321.433,359.761 321.252,359.957 321.374 C 360.154 321.495,360.417 321.191,360.543 320.697 C 360.780 319.764,361.693 318.507,363.900 316.076 C 364.615 315.288,365.200 314.449,365.200 314.210 C 365.200 313.972,365.560 313.517,366.000 313.200 C 366.440 312.883,366.800 312.303,366.800 311.912 C 366.800 311.520,366.980 311.200,367.200 311.200 C 367.420 311.200,367.603 310.795,367.606 310.300 C 367.611 309.572,367.686 309.515,368.000 310.000 C 368.314 310.485,368.389 310.428,368.394 309.700 C 368.397 309.205,368.580 308.800,368.800 308.800 C 369.020 308.800,369.200 308.530,369.200 308.200 C 369.200 307.870,369.391 307.600,369.624 307.600 C 369.857 307.600,369.935 307.419,369.798 307.197 C 369.661 306.976,369.831 306.686,370.175 306.554 C 370.519 306.422,370.800 306.086,370.800 305.806 C 370.800 305.527,371.078 305.067,371.418 304.785 C 371.758 304.503,371.946 304.036,371.835 303.747 C 371.724 303.458,372.020 302.951,372.493 302.620 C 372.965 302.289,373.238 301.905,373.100 301.766 C 372.961 301.628,373.292 301.038,373.836 300.457 C 374.380 299.876,374.934 298.950,375.068 298.400 C 375.201 297.850,375.446 297.220,375.613 297.000 C 376.389 295.972,377.600 293.513,377.600 292.964 C 377.600 292.628,377.780 292.464,378.000 292.600 C 378.220 292.736,378.400 292.466,378.400 292.000 C 378.400 291.429,378.563 291.251,378.900 291.453 C 379.213 291.641,379.180 291.463,378.813 290.977 C 378.490 290.550,378.377 290.326,378.561 290.481 C 379.029 290.874,380.000 289.810,380.000 288.904 C 380.000 288.490,380.360 287.764,380.800 287.292 C 381.690 286.337,381.857 285.794,381.121 286.249 C 380.858 286.411,381.033 285.997,381.510 285.327 C 381.986 284.658,382.266 283.999,382.131 283.864 C 381.996 283.729,382.181 283.505,382.543 283.367 C 382.904 283.228,383.200 282.774,383.200 282.357 C 383.200 281.941,383.380 281.600,383.600 281.600 C 383.820 281.600,384.000 281.251,384.000 280.824 C 384.000 280.397,384.180 279.936,384.400 279.800 C 384.620 279.664,384.800 279.239,384.800 278.856 C 384.800 277.930,385.709 276.007,386.149 276.003 C 386.341 276.001,386.251 275.695,385.949 275.323 C 385.647 274.951,385.583 274.756,385.807 274.889 C 386.030 275.023,386.418 274.697,386.669 274.165 C 387.013 273.436,387.012 273.264,386.663 273.464 C 386.408 273.610,386.650 273.221,387.200 272.600 C 387.750 271.979,387.947 271.618,387.638 271.797 C 387.222 272.039,387.167 271.978,387.427 271.562 C 387.620 271.253,387.818 270.733,387.867 270.407 C 387.916 270.081,388.147 269.751,388.381 269.673 C 388.614 269.595,388.698 269.359,388.568 269.148 C 388.438 268.937,388.629 268.310,388.993 267.754 C 389.357 267.199,389.670 266.216,389.688 265.570 C 389.707 264.925,389.962 264.197,390.257 263.953 C 390.551 263.709,390.693 263.350,390.572 263.155 C 390.451 262.960,390.505 262.800,390.691 262.800 C 390.877 262.800,391.048 262.485,391.072 262.100 C 391.097 261.715,391.210 261.040,391.324 260.600 C 392.307 256.818,392.615 255.773,392.795 255.600 C 392.909 255.490,393.064 254.860,393.139 254.200 C 393.214 253.540,393.439 252.940,393.638 252.867 C 393.837 252.793,394.000 252.129,394.000 251.390 C 394.000 250.652,394.180 249.936,394.400 249.800 C 394.620 249.664,394.800 248.843,394.800 247.976 C 394.800 246.985,394.986 246.398,395.300 246.394 C 395.633 246.390,395.600 246.258,395.200 246.000 C 394.800 245.742,394.767 245.610,395.100 245.606 C 395.379 245.603,395.600 245.106,395.600 244.480 C 395.600 243.864,395.825 243.118,396.100 242.821 C 396.507 242.383,396.488 242.345,396.000 242.618 C 395.492 242.902,395.480 242.855,395.925 242.306 C 396.213 241.950,396.459 240.923,396.472 240.024 C 396.484 239.125,396.653 238.291,396.847 238.171 C 397.041 238.051,397.200 237.434,397.200 236.800 C 397.200 236.166,397.351 235.554,397.536 235.440 C 397.721 235.325,397.903 234.362,397.940 233.298 C 397.978 232.234,398.180 230.767,398.389 230.037 C 398.599 229.307,398.755 228.595,398.738 228.455 C 398.550 226.979,398.878 223.904,399.173 224.371 C 399.686 225.181,399.784 220.945,399.793 197.633 C 399.798 181.919,399.690 177.430,399.303 177.301 C 398.931 177.177,398.915 176.932,399.240 176.325 C 399.553 175.741,399.552 175.392,399.237 175.077 C 398.997 174.837,398.800 174.136,398.800 173.520 C 398.800 172.904,398.620 172.400,398.400 172.400 C 398.162 172.400,398.000 170.875,398.000 168.624 C 398.000 166.537,397.821 164.737,397.600 164.600 C 397.380 164.464,397.200 163.733,397.200 162.976 C 397.200 162.219,397.057 161.600,396.882 161.600 C 396.707 161.600,396.518 160.930,396.463 160.112 C 396.408 159.294,396.202 158.525,396.006 158.404 C 395.809 158.282,395.608 157.054,395.558 155.674 C 395.508 154.294,395.317 153.072,395.134 152.959 C 394.950 152.846,394.800 152.393,394.800 151.953 C 394.800 151.513,394.620 151.264,394.400 151.400 C 394.159 151.549,394.000 151.012,394.000 150.047 C 394.000 149.167,393.820 148.336,393.600 148.200 C 393.380 148.064,393.200 147.459,393.200 146.856 C 393.200 146.253,392.975 145.518,392.700 145.221 C 392.300 144.790,392.300 144.739,392.700 144.965 C 392.975 145.120,393.200 145.057,393.200 144.824 C 393.200 144.591,393.020 144.400,392.800 144.400 C 392.580 144.400,392.400 143.849,392.400 143.176 C 392.400 142.463,392.233 142.056,392.000 142.200 C 391.766 142.345,391.600 141.930,391.600 141.200 C 391.600 140.309,391.457 140.039,391.100 140.253 C 390.716 140.484,390.718 140.408,391.112 139.922 C 391.676 139.225,391.000 137.029,390.346 137.433 C 390.161 137.548,390.116 137.362,390.247 137.021 C 390.378 136.679,390.349 136.085,390.182 135.700 C 389.832 134.890,389.620 134.079,389.511 133.128 C 389.469 132.758,389.291 132.544,389.117 132.651 C 388.811 132.840,388.634 131.941,388.771 130.895 C 388.808 130.617,388.549 130.278,388.196 130.143 C 387.843 130.008,387.647 129.656,387.760 129.361 C 387.873 129.067,387.793 128.719,387.583 128.589 C 387.372 128.459,387.200 127.993,387.200 127.553 C 387.200 127.113,387.020 126.864,386.800 127.000 C 386.566 127.145,386.400 126.730,386.400 126.000 C 386.400 125.109,386.257 124.839,385.900 125.053 C 385.609 125.228,385.650 125.039,386.000 124.600 C 386.350 124.161,386.391 123.972,386.100 124.147 C 385.758 124.352,385.597 124.155,385.591 123.524 C 385.586 123.016,385.230 122.150,384.800 121.600 C 384.370 121.050,384.014 120.285,384.009 119.900 C 384.004 119.515,383.820 119.200,383.600 119.200 C 383.380 119.200,383.200 118.840,383.200 118.400 C 383.200 117.960,383.020 117.600,382.800 117.600 C 382.580 117.600,382.421 117.465,382.447 117.300 C 382.580 116.462,382.367 115.100,382.139 115.327 C 381.758 115.709,380.800 113.677,380.800 112.488 C 380.800 111.926,380.683 111.584,380.539 111.727 C 380.227 112.039,379.200 110.168,379.200 109.288 C 379.200 108.946,379.083 108.784,378.940 108.927 C 378.580 109.287,377.628 107.960,377.613 107.076 C 377.606 106.678,377.420 106.464,377.200 106.600 C 376.965 106.745,376.800 106.315,376.800 105.557 C 376.800 104.847,376.683 104.384,376.539 104.527 C 376.221 104.846,375.265 103.075,375.017 101.704 C 374.865 100.867,374.193 99.793,373.200 98.800 C 372.796 98.396,371.970 96.980,371.742 96.300 C 371.612 95.915,371.337 95.600,371.130 95.600 C 370.922 95.600,370.864 95.420,371.000 95.200 C 371.136 94.980,371.096 94.800,370.911 94.800 C 370.727 94.800,370.365 94.305,370.108 93.700 C 369.248 91.677,367.695 89.399,367.245 89.500 C 367.000 89.555,366.800 89.240,366.800 88.800 C 366.800 88.360,366.620 88.000,366.400 88.000 C 366.180 88.000,366.045 87.775,366.100 87.500 C 366.155 87.225,365.975 87.045,365.700 87.100 C 365.425 87.155,365.221 87.065,365.247 86.900 C 365.390 85.996,365.148 85.185,364.800 85.400 C 364.580 85.536,364.398 85.412,364.395 85.124 C 364.389 84.555,363.237 82.957,361.500 81.109 C 360.895 80.465,360.400 79.772,360.400 79.569 C 360.400 79.366,360.220 79.200,360.000 79.200 C 359.780 79.200,359.600 78.930,359.600 78.600 C 359.600 78.270,359.442 78.000,359.249 78.000 C 359.055 78.000,358.673 77.460,358.400 76.800 C 358.127 76.140,357.644 75.600,357.328 75.600 C 357.012 75.600,356.854 75.437,356.977 75.237 C 357.100 75.038,356.391 74.041,355.401 73.022 C 354.410 72.003,353.600 70.986,353.600 70.761 C 353.600 70.537,353.420 70.464,353.200 70.600 C 352.980 70.736,352.800 70.684,352.800 70.485 C 352.800 70.285,352.485 69.743,352.100 69.280 C 350.620 67.500,350.000 66.626,350.000 66.319 C 350.000 66.143,349.730 66.000,349.400 66.000 C 348.863 66.000,348.626 65.533,348.748 64.714 C 348.771 64.557,348.541 64.525,348.236 64.642 C 347.931 64.759,347.562 64.662,347.417 64.427 C 347.272 64.192,347.351 64.000,347.592 64.000 C 347.875 64.000,347.847 63.802,347.516 63.444 C 347.142 63.042,346.919 63.014,346.706 63.344 C 346.519 63.635,346.410 63.546,346.406 63.100 C 346.403 62.715,346.265 62.421,346.100 62.447 C 345.353 62.565,344.800 62.365,344.800 61.976 C 344.800 61.743,344.993 61.672,345.230 61.818 C 345.466 61.964,345.428 61.713,345.145 61.260 C 344.862 60.807,344.560 60.506,344.475 60.592 C 344.390 60.677,343.702 60.129,342.947 59.373 C 342.191 58.618,341.405 58.000,341.199 58.000 C 340.993 58.000,340.921 57.750,341.038 57.445 C 341.171 57.099,340.801 56.690,340.054 56.360 C 339.396 56.069,338.930 55.713,339.019 55.569 C 339.217 55.249,337.909 54.029,336.731 53.436 C 336.256 53.196,335.583 52.419,335.234 51.709 C 334.885 50.999,334.375 50.414,334.100 50.409 C 333.825 50.404,333.600 50.220,333.600 50.000 C 333.600 49.780,333.415 49.600,333.189 49.600 C 332.778 49.600,330.632 47.794,329.023 46.093 C 327.822 44.823,326.220 44.516,326.840 45.674 M146.804 139.326 C 145.250 139.821,142.521 142.375,141.600 144.196 C 137.771 151.770,130.519 159.533,123.400 163.679 C 112.748 169.883,101.909 171.937,85.862 170.794 C 77.364 170.188,76.304 170.321,74.022 172.274 C 67.418 177.926,71.843 187.737,80.915 187.559 L 83.000 187.518 80.000 187.000 C 73.161 185.820,69.902 181.565,71.756 176.237 C 73.480 171.283,77.769 170.096,88.453 171.612 C 92.612 172.203,99.655 171.804,106.800 170.573 C 117.613 168.711,130.337 161.067,136.825 152.534 C 137.801 151.250,138.735 150.140,138.900 150.067 C 139.065 149.993,139.200 149.751,139.200 149.528 C 139.200 149.306,139.539 148.646,139.953 148.062 C 140.367 147.478,141.064 146.370,141.502 145.600 C 143.491 142.102,143.847 141.626,144.987 140.938 C 149.589 138.165,154.428 139.396,156.659 143.907 C 158.462 147.553,157.209 151.911,152.207 159.390 C 142.621 173.726,126.623 183.428,106.800 186.926 C 104.125 187.398,103.761 187.533,105.094 187.563 C 106.636 187.597,107.837 187.391,112.000 186.378 C 121.199 184.141,131.339 179.698,137.057 175.399 C 138.126 174.596,139.630 173.472,140.400 172.902 C 144.782 169.656,154.800 157.908,154.800 156.015 C 154.800 155.787,154.936 155.600,155.102 155.600 C 155.269 155.600,155.647 155.015,155.943 154.300 C 156.239 153.585,156.823 152.237,157.241 151.304 C 160.376 144.303,154.033 137.024,146.804 139.326 M247.928 139.274 C 243.771 140.381,240.554 146.742,242.350 150.305 C 242.543 150.687,243.466 152.530,244.402 154.400 C 252.065 169.713,268.912 182.115,287.600 186.202 C 289.250 186.563,291.251 187.025,292.046 187.229 C 292.842 187.433,294.282 187.575,295.246 187.546 C 296.236 187.515,296.564 187.421,296.000 187.331 C 292.919 186.837,287.915 185.829,286.000 185.318 C 284.790 184.995,283.260 184.589,282.600 184.417 C 281.542 184.140,279.519 183.414,277.000 182.406 C 275.560 181.829,268.638 178.396,266.943 177.417 C 265.258 176.444,263.111 174.899,259.253 171.883 C 252.496 166.602,244.708 156.078,242.877 149.754 C 240.054 140.004,253.208 135.311,257.880 144.400 C 258.276 145.170,259.095 146.552,259.700 147.472 C 260.305 148.392,260.800 149.337,260.800 149.572 C 260.800 149.807,260.941 150.000,261.114 150.000 C 261.286 150.000,261.773 150.585,262.194 151.300 C 265.275 156.524,275.954 164.709,283.600 167.707 C 292.156 171.062,305.966 172.957,311.891 171.590 C 314.839 170.910,322.890 170.915,324.228 171.598 C 325.780 172.390,328.000 174.778,328.000 175.655 C 328.000 176.039,328.180 176.464,328.400 176.600 C 329.028 176.988,328.868 180.136,328.145 181.639 C 326.530 184.992,324.716 186.187,320.000 187.000 L 317.000 187.518 319.085 187.559 C 327.620 187.727,332.433 178.640,326.826 172.943 C 324.447 170.526,323.296 170.244,317.422 170.644 C 296.241 172.087,281.451 168.807,272.011 160.571 C 267.166 156.345,261.200 149.961,261.200 149.004 C 261.200 148.861,260.699 147.992,260.088 147.072 C 259.476 146.152,258.711 144.862,258.388 144.205 C 256.382 140.126,252.177 138.144,247.928 139.274 M84.200 188.039 C 85.751 188.383,100.713 188.401,101.922 188.060 C 102.428 187.917,98.378 187.794,92.922 187.786 C 87.465 187.779,83.540 187.892,84.200 188.039 M298.224 188.053 C 299.831 188.398,314.758 188.388,316.000 188.041 C 316.550 187.887,312.511 187.770,307.024 187.781 C 301.537 187.791,297.577 187.914,298.224 188.053 M314.752 207.687 C 314.937 208.798,314.993 208.855,315.119 208.054 C 315.201 207.533,315.103 206.943,314.901 206.741 C 314.679 206.519,314.621 206.893,314.752 207.687 M84.854 209.476 C 84.825 210.838,84.935 212.036,85.100 212.138 C 85.265 212.240,85.347 211.486,85.283 210.462 C 85.084 207.288,84.911 206.891,84.854 209.476 M314.780 210.690 C 314.671 211.619,314.733 212.227,314.920 212.040 C 315.106 211.854,315.196 211.094,315.119 210.351 C 314.983 209.033,314.975 209.042,314.780 210.690 M127.444 217.277 C 129.411 217.627,133.261 217.623,135.600 217.267 C 136.706 217.099,135.181 216.995,131.644 216.997 C 128.269 216.999,126.531 217.115,127.444 217.277 M264.400 217.267 C 266.739 217.623,270.589 217.627,272.556 217.277 C 273.469 217.115,271.731 216.999,268.356 216.997 C 264.819 216.995,263.294 217.099,264.400 217.267 M231.078 225.395 C 231.444 226.162,231.814 226.719,231.901 226.632 C 232.084 226.449,230.870 224.000,230.596 224.000 C 230.495 224.000,230.712 224.628,231.078 225.395 M234.800 230.925 C 234.800 230.994,235.385 231.579,236.100 232.225 L 237.400 233.400 236.225 232.100 C 235.130 230.888,234.800 230.616,234.800 230.925 M96.838 234.500 C 96.932 234.555,97.727 235.230,98.604 236.000 L 100.200 237.400 98.822 235.900 C 98.063 235.075,97.268 234.400,97.055 234.400 C 96.841 234.400,96.744 234.445,96.838 234.500 M239.200 235.325 C 239.200 235.394,239.785 235.979,240.500 236.625 L 241.800 237.800 240.625 236.500 C 239.530 235.288,239.200 235.016,239.200 235.325 M125.600 246.788 C 125.930 247.008,126.815 247.191,127.567 247.194 C 129.360 247.202,129.041 246.975,126.800 246.650 C 125.542 246.467,125.181 246.509,125.600 246.788 M131.200 246.800 L 129.800 247.095 131.200 247.141 C 131.970 247.167,132.870 247.013,133.200 246.800 C 133.927 246.330,133.433 246.330,131.200 246.800 M266.800 246.788 C 267.130 247.008,268.015 247.191,268.767 247.194 C 270.560 247.202,270.241 246.975,268.000 246.650 C 266.742 246.467,266.381 246.509,266.800 246.788 M272.400 246.800 L 271.000 247.095 272.400 247.141 C 273.170 247.167,274.070 247.013,274.400 246.800 C 275.127 246.330,274.633 246.330,272.400 246.800 M139.628 301.876 C 139.613 302.358,139.780 302.864,140.000 303.000 C 140.473 303.292,140.473 302.901,140.000 301.800 C 139.669 301.029,139.655 301.031,139.628 301.876 M150.600 311.600 C 151.040 311.789,173.270 311.944,200.000 311.944 C 226.730 311.944,248.960 311.789,249.400 311.600 C 249.852 311.406,228.347 311.256,200.000 311.256 C 171.653 311.256,150.148 311.406,150.600 311.600 " stroke="none" fill="#f3c334" fill-rule="evenodd"></path><path id="path3" d="M147.400 139.749 C 146.740 139.999,145.654 140.533,144.987 140.936 C 143.847 141.626,143.490 142.103,141.502 145.600 C 141.064 146.370,140.367 147.478,139.953 148.062 C 139.539 148.646,139.200 149.306,139.200 149.528 C 139.200 149.751,139.065 149.993,138.900 150.067 C 138.735 150.140,137.801 151.250,136.825 152.534 C 130.337 161.067,117.613 168.711,106.800 170.573 C 99.655 171.804,92.612 172.203,88.453 171.612 C 77.769 170.096,73.480 171.283,71.756 176.237 C 69.769 181.945,73.324 186.004,81.400 187.246 C 99.519 190.034,122.255 185.149,136.200 175.473 C 146.655 168.218,156.828 155.089,157.513 147.969 C 158.025 142.639,152.224 137.925,147.400 139.749 M248.284 139.736 C 243.920 141.143,241.618 145.407,242.877 149.754 C 246.023 160.620,258.395 173.391,272.400 180.230 C 274.490 181.250,276.560 182.229,277.000 182.406 C 279.527 183.417,281.554 184.144,282.700 184.451 C 283.415 184.643,284.675 184.981,285.500 185.203 C 299.913 189.076,321.539 188.782,325.933 184.653 C 328.264 182.462,329.795 177.462,328.400 176.600 C 328.180 176.464,328.000 176.039,328.000 175.655 C 328.000 174.778,325.780 172.390,324.228 171.598 C 322.890 170.915,314.839 170.910,311.891 171.590 C 305.966 172.957,292.156 171.062,283.600 167.707 C 275.954 164.709,265.275 156.524,262.194 151.300 C 261.773 150.585,261.286 150.000,261.114 150.000 C 260.941 150.000,260.800 149.807,260.800 149.572 C 260.800 149.337,260.305 148.392,259.700 147.472 C 259.095 146.552,258.252 145.117,257.827 144.282 C 255.888 140.472,251.899 138.572,248.284 139.736 M87.452 203.916 C 87.344 204.090,87.873 204.161,88.628 204.073 C 89.383 203.985,90.000 203.842,90.000 203.756 C 90.000 203.455,87.645 203.603,87.452 203.916 M169.200 203.755 C 169.200 203.840,169.730 203.987,170.379 204.082 C 171.027 204.177,171.467 204.108,171.355 203.928 C 171.157 203.607,169.200 203.450,169.200 203.755 M229.200 203.755 C 229.200 203.840,229.730 203.987,230.379 204.082 C 231.027 204.177,231.467 204.108,231.355 203.928 C 231.157 203.607,229.200 203.450,229.200 203.755 M310.000 203.756 C 310.000 203.842,310.617 203.985,311.372 204.073 C 312.127 204.161,312.656 204.090,312.548 203.916 C 312.355 203.603,310.000 203.455,310.000 203.756 M226.406 211.433 C 226.409 211.855,226.595 212.470,226.818 212.800 C 227.115 213.238,227.152 213.076,226.956 212.200 C 226.627 210.729,226.398 210.410,226.406 211.433 M85.606 213.433 C 85.609 213.855,85.795 214.470,86.018 214.800 C 86.315 215.238,86.352 215.076,86.156 214.200 C 85.827 212.729,85.598 212.410,85.606 213.433 M142.400 216.000 C 141.576 216.264,141.541 216.326,142.200 216.354 C 142.640 216.373,143.270 216.213,143.600 216.000 C 144.301 215.547,143.814 215.547,142.400 216.000 M313.246 216.467 C 313.221 216.834,313.096 217.464,312.970 217.867 C 312.752 218.562,312.763 218.563,313.197 217.887 C 313.448 217.496,313.573 216.866,313.473 216.487 C 313.311 215.868,313.288 215.866,313.246 216.467 M123.305 217.087 C 123.914 217.179,124.814 217.177,125.305 217.082 C 125.797 216.987,125.300 216.911,124.200 216.914 C 123.100 216.917,122.697 216.995,123.305 217.087 M274.905 217.087 C 275.514 217.179,276.414 217.177,276.905 217.082 C 277.397 216.987,276.900 216.911,275.800 216.914 C 274.700 216.917,274.297 216.995,274.905 217.087 M129.700 217.876 C 130.085 217.976,130.715 217.976,131.100 217.876 C 131.485 217.775,131.170 217.693,130.400 217.693 C 129.630 217.693,129.315 217.775,129.700 217.876 M268.900 217.876 C 269.285 217.976,269.915 217.976,270.300 217.876 C 270.685 217.775,270.370 217.693,269.600 217.693 C 268.830 217.693,268.515 217.775,268.900 217.876 M234.796 230.394 C 235.490 231.271,236.267 232.118,236.523 232.276 C 236.778 232.434,236.293 231.716,235.445 230.681 C 234.597 229.647,233.820 228.800,233.718 228.800 C 233.616 228.800,234.101 229.518,234.796 230.394 M164.001 231.398 C 163.486 231.948,163.139 232.464,163.232 232.546 C 163.324 232.628,163.819 232.178,164.330 231.547 C 165.476 230.135,165.274 230.044,164.001 231.398 M304.975 231.700 L 303.800 233.000 305.100 231.825 C 305.815 231.179,306.400 230.594,306.400 230.525 C 306.400 230.216,306.070 230.488,304.975 231.700 M99.000 236.000 C 99.859 236.880,100.652 237.600,100.762 237.600 C 100.872 237.600,100.259 236.880,99.400 236.000 C 98.541 235.120,97.748 234.400,97.638 234.400 C 97.528 234.400,98.141 235.120,99.000 236.000 M300.175 236.500 L 299.000 237.800 300.398 236.600 C 301.167 235.940,301.872 235.355,301.965 235.300 C 302.057 235.245,301.957 235.200,301.742 235.200 C 301.526 235.200,300.821 235.785,300.175 236.500 M158.770 236.700 L 157.800 237.800 159.000 236.800 C 159.660 236.250,160.275 235.755,160.367 235.700 C 160.458 235.645,160.355 235.600,160.136 235.600 C 159.918 235.600,159.303 236.095,158.770 236.700 M257.400 245.200 C 257.536 245.420,258.042 245.587,258.524 245.572 C 259.369 245.545,259.371 245.531,258.600 245.200 C 257.499 244.727,257.108 244.727,257.400 245.200 M126.433 246.544 C 126.525 246.624,127.410 246.796,128.400 246.927 C 129.602 247.086,129.934 247.047,129.400 246.810 C 128.636 246.472,126.086 246.243,126.433 246.544 M269.000 246.826 C 269.880 246.985,271.320 246.984,272.200 246.824 C 273.465 246.594,273.131 246.533,270.600 246.535 C 268.071 246.537,267.736 246.598,269.000 246.826 M148.938 289.906 C 148.684 290.068,171.662 290.200,200.000 290.200 C 228.338 290.200,251.316 290.068,251.062 289.906 C 250.458 289.522,149.542 289.522,148.938 289.906 M143.000 293.200 C 142.368 293.860,142.019 294.390,142.225 294.378 C 142.578 294.357,144.639 292.000,144.305 292.000 C 144.220 292.000,143.632 292.540,143.000 293.200 M255.600 292.122 C 255.600 292.192,256.163 292.779,256.850 293.425 C 257.725 294.248,257.947 294.348,257.591 293.759 C 257.151 293.033,255.600 291.757,255.600 292.122 M140.865 296.217 C 140.195 297.688,140.323 298.002,141.047 296.665 C 141.386 296.040,141.588 295.454,141.496 295.363 C 141.405 295.271,141.121 295.656,140.865 296.217 M139.844 299.767 C 139.711 300.299,139.751 301.139,139.934 301.633 C 140.192 302.330,140.267 302.113,140.267 300.666 C 140.267 298.552,140.190 298.389,139.844 299.767 M259.758 300.839 C 259.761 302.853,259.787 302.911,260.140 301.696 C 260.379 300.872,260.377 300.076,260.136 299.535 C 259.835 298.860,259.755 299.136,259.758 300.839 " stroke="none" fill="#ebb42c" fill-rule="evenodd"></path><path id="path4" d="M86.933 204.572 C 85.244 205.794,84.954 211.531,86.412 214.880 C 86.742 215.640,86.769 215.557,86.564 214.400 C 85.078 205.995,87.000 202.735,91.985 205.204 C 94.139 206.270,98.386 208.393,102.000 210.208 C 109.354 213.902,118.881 217.273,121.654 217.162 C 122.174 217.142,120.980 216.713,119.000 216.209 C 115.435 215.302,112.239 214.314,110.500 213.580 C 110.005 213.371,109.195 213.041,108.700 212.847 C 108.205 212.653,104.107 210.656,99.593 208.409 C 90.872 204.067,88.589 203.375,86.933 204.572 M165.763 205.602 C 164.024 206.483,161.700 207.745,160.600 208.407 C 158.272 209.808,150.439 213.640,148.400 214.376 C 147.630 214.653,146.640 215.022,146.200 215.195 C 143.919 216.090,138.707 217.158,134.600 217.571 L 131.400 217.894 134.039 217.947 C 137.087 218.008,144.058 216.560,148.200 215.004 C 151.505 213.763,158.542 210.362,158.733 209.913 C 158.807 209.741,159.035 209.600,159.241 209.600 C 159.446 209.600,160.736 208.920,162.107 208.088 C 170.907 202.753,173.743 203.639,172.706 211.400 C 170.436 228.391,155.925 242.553,137.859 245.408 C 137.012 245.542,136.417 245.750,136.537 245.871 C 136.921 246.254,142.024 245.192,145.373 244.032 C 159.343 239.191,168.994 228.722,172.641 214.449 C 175.006 205.195,172.623 202.129,165.763 205.602 M228.117 204.603 C 227.576 204.982,227.082 205.986,226.789 207.303 C 226.313 209.438,226.319 209.488,227.973 216.800 C 230.389 227.488,241.858 239.557,253.483 243.646 C 257.790 245.162,265.371 246.743,263.000 245.631 C 262.560 245.425,261.763 245.244,261.228 245.228 C 260.694 245.213,259.704 245.032,259.028 244.827 C 258.353 244.622,256.990 244.231,256.000 243.958 C 255.010 243.684,254.029 243.312,253.820 243.130 C 253.611 242.949,253.131 242.800,252.754 242.800 C 251.661 242.800,246.061 239.682,242.931 237.331 C 236.230 232.298,230.591 224.281,228.554 216.894 C 225.308 205.118,228.108 201.662,236.400 207.209 C 245.326 213.181,258.842 218.090,265.961 217.947 L 268.600 217.894 265.200 217.554 C 263.330 217.368,261.080 217.044,260.200 216.836 C 259.320 216.627,257.700 216.247,256.600 215.991 C 255.500 215.735,254.240 215.380,253.800 215.202 C 253.360 215.024,251.920 214.462,250.600 213.954 C 248.172 213.018,242.335 210.120,239.400 208.391 C 232.538 204.351,229.793 203.429,228.117 204.603 M308.000 204.761 C 307.010 205.159,303.050 207.064,299.200 208.995 C 295.350 210.926,291.840 212.638,291.400 212.799 C 290.960 212.961,290.150 213.288,289.600 213.526 C 287.843 214.288,284.702 215.268,281.000 216.209 C 279.020 216.713,277.850 217.139,278.400 217.157 C 281.310 217.253,291.805 213.464,299.382 209.583 C 303.970 207.233,306.959 205.715,308.015 205.199 C 312.981 202.775,315.572 207.497,313.284 214.800 C 313.043 215.570,312.676 216.867,312.468 217.683 C 310.879 223.943,304.130 233.118,297.600 237.898 C 294.973 239.821,289.410 242.800,288.446 242.800 C 288.069 242.800,287.589 242.949,287.380 243.130 C 287.171 243.312,286.190 243.684,285.200 243.958 C 284.210 244.231,282.847 244.622,282.172 244.827 C 281.496 245.032,280.506 245.213,279.972 245.228 C 279.437 245.244,278.640 245.425,278.200 245.631 C 277.105 246.145,280.775 245.696,283.400 244.995 C 298.092 241.074,309.518 230.051,313.347 216.105 C 316.079 206.155,314.240 202.253,308.000 204.761 M86.806 216.450 C 86.797 217.403,87.831 220.168,89.213 222.888 C 94.816 233.915,104.516 241.743,116.600 244.992 C 119.212 245.694,122.901 246.148,121.800 245.631 C 121.360 245.425,120.563 245.244,120.028 245.228 C 119.494 245.213,118.504 245.032,117.828 244.827 C 117.153 244.622,115.790 244.231,114.800 243.958 C 113.810 243.684,112.829 243.312,112.620 243.130 C 112.411 242.949,111.934 242.800,111.561 242.800 C 108.568 242.800,97.042 234.152,93.967 229.600 C 93.447 228.830,92.702 227.851,92.311 227.425 C 91.920 226.998,91.600 226.428,91.600 226.158 C 91.600 225.888,91.464 225.607,91.298 225.533 C 91.132 225.460,90.393 224.140,89.656 222.600 C 88.919 221.060,88.155 219.487,87.958 219.105 C 87.761 218.723,87.597 218.093,87.594 217.705 C 87.585 216.739,86.815 215.510,86.806 216.450 M124.200 217.623 C 126.363 218.070,129.967 218.050,128.200 217.600 C 127.540 217.432,126.010 217.294,124.800 217.293 C 122.618 217.292,122.613 217.295,124.200 217.623 M272.000 217.600 C 270.606 217.893,270.608 217.895,272.400 217.924 C 273.390 217.941,274.920 217.805,275.800 217.623 L 277.400 217.292 275.400 217.299 C 274.300 217.302,272.770 217.438,272.000 217.600 M126.143 246.376 C 128.092 246.512,131.152 246.512,132.943 246.374 C 135.345 246.190,134.415 246.124,129.400 246.125 C 124.081 246.126,123.371 246.181,126.143 246.376 M267.200 246.363 C 269.070 246.494,272.130 246.495,274.000 246.368 C 276.465 246.199,275.531 246.134,270.600 246.131 C 265.664 246.128,264.732 246.192,267.200 246.363 M148.200 290.367 C 142.174 291.839,138.394 299.699,141.131 305.066 C 142.030 306.827,144.694 309.600,145.488 309.600 C 145.770 309.600,146.000 309.757,146.000 309.948 C 146.000 311.551,250.545 311.821,253.759 310.227 C 261.716 306.278,261.848 295.905,254.000 291.264 L 252.200 290.200 200.800 290.137 C 172.530 290.103,148.860 290.206,148.200 290.367 M254.320 292.114 C 260.148 295.788,261.038 303.908,256.063 308.009 C 252.376 311.048,257.353 310.800,200.000 310.800 C 149.565 310.800,148.765 310.788,147.083 309.997 C 138.921 306.161,138.442 296.264,146.200 291.780 L 147.800 290.855 200.019 290.828 L 252.237 290.800 254.320 292.114 " stroke="none" fill="#9c8c44" fill-rule="evenodd"></path></g></svg>